<svg width="1440" height="654" viewBox="0 0 1440 654" fill="none" xmlns="http://www.w3.org/2000/svg">
<path d="M-165.519 120.979L-165.943 121.243L-165.519 120.978C-207.147 54.2561 -211.1 -2.38334 -191.109 -49.83C-171.103 -97.3103 -127.078 -135.687 -72.5359 -165.763C36.5472 -225.914 187.424 -252.71 271.141 -252.805C388.344 -252.929 514.609 -281.95 641.684 -311.156C667.823 -317.164 693.996 -323.18 720.132 -328.953C873.372 -362.805 1025.33 -388.343 1161.76 -355.385C1292.95 -323.688 1407.86 -221.349 1468.71 -96.8884C1529.55 27.5652 1536.29 174.056 1451.29 294.092C1403.31 361.841 1348.56 405.442 1277.76 427.885C1206.95 450.335 1120.03 451.632 1007.67 434.673C942.23 424.798 890.918 429.501 847.234 442.969C803.555 456.435 767.532 478.654 732.672 503.765C720.444 512.573 708.36 521.735 696.138 531.002C638.658 574.586 578.136 620.475 485.316 642.637C416.776 659.001 351.401 657.33 292.181 626.264C232.957 595.195 179.812 534.687 135.818 433.22C91.7459 331.573 37.929 288.1 -15.6507 252.723C-23.1819 247.75 -30.7059 242.939 -38.1955 238.149C-83.9758 208.873 -128.474 180.417 -165.519 120.979Z" stroke="black"/>
</svg>
