<svg width="402" height="245" viewBox="0 0 402 245" fill="none" xmlns="http://www.w3.org/2000/svg">
<path d="M57.221 192.32L57.0064 192.772L57.2209 192.32C28.5524 178.71 9.65673 155.872 3.08397 132.017C-3.48526 108.176 2.24556 83.3082 22.8562 65.5279L22.5296 65.1493L22.8562 65.5279C58.2836 34.9646 102.715 30.7601 147.869 30.5707C155.926 30.5369 164.011 30.631 172.07 30.7248C186.566 30.8936 200.979 31.0614 215.001 30.4822C236.832 29.5804 257.786 26.8675 276.779 19.5109C319.287 3.0462 371.933 -9.84046 414.782 12.267C431.084 20.6816 446.327 33.9473 455.528 51.3022C464.724 68.6452 467.902 90.0982 460.044 114.943C454.433 132.68 446.607 145.391 439.435 157.037C436.533 161.75 433.739 166.289 431.242 170.916C426.915 178.931 423.506 187.185 422.053 197.009C420.6 206.832 421.107 218.196 424.576 232.432C429.779 253.797 432.576 268.705 432.071 280.338C431.567 291.924 427.786 300.263 419.77 308.499C411.132 317.373 399.714 320.311 386.907 319.315C374.087 318.318 359.915 313.379 345.858 306.545C317.745 292.877 290.232 271.7 275.157 259.662C243.85 234.667 206.553 226.038 168.524 219.546C162.787 218.567 157.035 217.637 151.284 216.707C118.872 211.464 86.4972 206.227 57.221 192.32Z" stroke="black"/>
</svg>
