<svg width="1440" height="766" viewBox="0 0 1440 766" fill="none" xmlns="http://www.w3.org/2000/svg">
<mask id="mask0_8_1895" style="mask-type:alpha" maskUnits="userSpaceOnUse" x="-237" y="-372" width="1720" height="1026">
<path d="M452.432 643.123C315.198 675.889 190.403 636.482 102.359 433.419C14.3151 230.355 -112.59 259.798 -198.943 121.243C-365.715 -146.065 70.576 -253.116 238.141 -253.305C520.621 -253.604 855.769 -421.847 1128.88 -355.871C1391.59 -292.396 1588.97 53.9381 1418.7 294.381C1322.63 430.02 1199.38 469.096 974.592 435.167C713.106 395.706 677.79 589.318 452.432 643.123Z" fill="#FB6645"/>
</mask>
<g mask="url(#mask0_8_1895)">
<path d="M462.082 377.16C462.082 377.4 462.35 377.594 462.681 377.594C463.011 377.594 463.279 377.4 463.279 377.16C463.279 376.921 463.011 376.727 462.681 376.727C462.35 376.727 462.082 376.921 462.082 377.16Z" fill="black"/>
<path d="M428.827 377.16C428.827 377.4 429.095 377.594 429.425 377.594C429.756 377.594 430.024 377.4 430.024 377.16C430.024 376.921 429.756 376.727 429.425 376.727C429.095 376.727 428.827 376.921 428.827 377.16Z" fill="black"/>
<path d="M395.572 377.16C395.572 377.4 395.839 377.594 396.17 377.594C396.501 377.594 396.769 377.4 396.769 377.16C396.769 376.921 396.501 376.727 396.17 376.727C395.839 376.727 395.572 376.921 395.572 377.16Z" fill="black"/>
<path d="M362.316 377.16C362.316 377.4 362.584 377.594 362.915 377.594C363.245 377.594 363.513 377.4 363.513 377.16C363.513 376.921 363.245 376.727 362.915 376.727C362.584 376.727 362.316 376.921 362.316 377.16Z" fill="black"/>
<path d="M329.061 377.16C329.061 377.4 329.329 377.594 329.66 377.594C329.99 377.594 330.258 377.4 330.258 377.16C330.258 376.921 329.99 376.727 329.66 376.727C329.329 376.727 329.061 376.921 329.061 377.16Z" fill="black"/>
<path d="M295.806 377.16C295.806 377.4 296.074 377.594 296.404 377.594C296.735 377.594 297.003 377.4 297.003 377.16C297.003 376.921 296.735 376.727 296.404 376.727C296.074 376.727 295.806 376.921 295.806 377.16Z" fill="black"/>
<path d="M262.55 377.16C262.55 377.4 262.818 377.594 263.149 377.594C263.48 377.594 263.748 377.4 263.748 377.16C263.748 376.921 263.48 376.727 263.149 376.727C262.818 376.727 262.55 376.921 262.55 377.16Z" fill="black"/>
<path d="M229.295 377.16C229.295 377.4 229.563 377.594 229.894 377.594C230.224 377.594 230.492 377.4 230.492 377.16C230.492 376.921 230.224 376.727 229.894 376.727C229.563 376.727 229.295 376.921 229.295 377.16Z" fill="black"/>
<path d="M196.04 377.16C196.04 377.4 196.308 377.594 196.638 377.594C196.969 377.594 197.237 377.4 197.237 377.16C197.237 376.921 196.969 376.727 196.638 376.727C196.308 376.727 196.04 376.921 196.04 377.16Z" fill="black"/>
<path d="M162.784 377.16C162.784 377.4 163.052 377.594 163.383 377.594C163.714 377.594 163.982 377.4 163.982 377.16C163.982 376.921 163.714 376.727 163.383 376.727C163.052 376.727 162.784 376.921 162.784 377.16Z" fill="black"/>
<path d="M129.529 377.16C129.529 377.4 129.797 377.594 130.128 377.594C130.458 377.594 130.726 377.4 130.726 377.16C130.726 376.921 130.458 376.727 130.128 376.727C129.797 376.727 129.529 376.921 129.529 377.16Z" fill="black"/>
<path d="M96.2738 377.16C96.2738 377.4 96.5418 377.594 96.8724 377.594C97.203 377.594 97.471 377.4 97.471 377.16C97.471 376.921 97.203 376.727 96.8724 376.727C96.5418 376.727 96.2738 376.921 96.2738 377.16Z" fill="black"/>
<path d="M478.401 401.226C478.401 401.588 478.807 401.882 479.308 401.882C479.809 401.882 480.215 401.588 480.215 401.226C480.215 400.863 479.809 400.569 479.308 400.569C478.807 400.569 478.401 400.863 478.401 401.226Z" fill="black"/>
<path d="M445.146 401.226C445.146 401.588 445.552 401.882 446.053 401.882C446.554 401.882 446.96 401.588 446.96 401.226C446.96 400.863 446.554 400.569 446.053 400.569C445.552 400.569 445.146 400.863 445.146 401.226Z" fill="black"/>
<path d="M411.891 401.226C411.891 401.588 412.297 401.882 412.798 401.882C413.299 401.882 413.705 401.588 413.705 401.226C413.705 400.863 413.299 400.569 412.798 400.569C412.297 400.569 411.891 400.863 411.891 401.226Z" fill="black"/>
<path d="M378.635 401.226C378.635 401.588 379.042 401.882 379.542 401.882C380.043 401.882 380.449 401.588 380.449 401.226C380.449 400.863 380.043 400.569 379.542 400.569C379.042 400.569 378.635 400.863 378.635 401.226Z" fill="black"/>
<path d="M345.38 401.226C345.38 401.588 345.786 401.882 346.287 401.882C346.788 401.882 347.194 401.588 347.194 401.226C347.194 400.863 346.788 400.569 346.287 400.569C345.786 400.569 345.38 400.863 345.38 401.226Z" fill="black"/>
<path d="M312.125 401.226C312.125 401.588 312.531 401.882 313.032 401.882C313.533 401.882 313.939 401.588 313.939 401.226C313.939 400.863 313.533 400.569 313.032 400.569C312.531 400.569 312.125 400.863 312.125 401.226Z" fill="black"/>
<path d="M278.87 401.226C278.87 401.588 279.276 401.882 279.777 401.882C280.277 401.882 280.684 401.588 280.684 401.226C280.684 400.863 280.277 400.569 279.777 400.569C279.276 400.569 278.87 400.863 278.87 401.226Z" fill="black"/>
<path d="M245.614 401.226C245.614 401.588 246.02 401.882 246.521 401.882C247.022 401.882 247.428 401.588 247.428 401.226C247.428 400.863 247.022 400.569 246.521 400.569C246.02 400.569 245.614 400.863 245.614 401.226Z" fill="black"/>
<path d="M212.359 401.226C212.359 401.588 212.765 401.882 213.266 401.882C213.767 401.882 214.173 401.588 214.173 401.226C214.173 400.863 213.767 400.569 213.266 400.569C212.765 400.569 212.359 400.863 212.359 401.226Z" fill="black"/>
<path d="M179.104 401.226C179.104 401.588 179.51 401.882 180.011 401.882C180.512 401.882 180.918 401.588 180.918 401.226C180.918 400.863 180.512 400.569 180.011 400.569C179.51 400.569 179.104 400.863 179.104 401.226Z" fill="black"/>
<path d="M145.848 401.226C145.848 401.588 146.254 401.882 146.755 401.882C147.256 401.882 147.662 401.588 147.662 401.226C147.662 400.863 147.256 400.569 146.755 400.569C146.254 400.569 145.848 400.863 145.848 401.226Z" fill="black"/>
<path d="M112.593 401.226C112.593 401.588 112.999 401.882 113.5 401.882C114.001 401.882 114.407 401.588 114.407 401.226C114.407 400.863 114.001 400.569 113.5 400.569C112.999 400.569 112.593 400.863 112.593 401.226Z" fill="black"/>
<path d="M461.465 425.291C461.465 425.777 462.009 426.171 462.681 426.171C463.352 426.171 463.896 425.777 463.896 425.291C463.896 424.805 463.352 424.412 462.681 424.412C462.009 424.412 461.465 424.805 461.465 425.291Z" fill="black"/>
<path d="M428.21 425.291C428.21 425.777 428.754 426.171 429.425 426.171C430.097 426.171 430.641 425.777 430.641 425.291C430.641 424.805 430.097 424.412 429.425 424.412C428.754 424.412 428.21 424.805 428.21 425.291Z" fill="black"/>
<path d="M394.955 425.291C394.955 425.777 395.499 426.171 396.17 426.171C396.841 426.171 397.385 425.777 397.385 425.291C397.385 424.805 396.841 424.412 396.17 424.412C395.499 424.412 394.955 424.805 394.955 425.291Z" fill="black"/>
<path d="M361.699 425.291C361.699 425.777 362.244 426.171 362.915 426.171C363.586 426.171 364.13 425.777 364.13 425.291C364.13 424.805 363.586 424.412 362.915 424.412C362.244 424.412 361.699 424.805 361.699 425.291Z" fill="black"/>
<path d="M328.444 425.291C328.444 425.777 328.988 426.171 329.66 426.171C330.331 426.171 330.875 425.777 330.875 425.291C330.875 424.805 330.331 424.412 329.66 424.412C328.988 424.412 328.444 424.805 328.444 425.291Z" fill="black"/>
<path d="M295.189 425.291C295.189 425.777 295.733 426.171 296.404 426.171C297.075 426.171 297.62 425.777 297.62 425.291C297.62 424.805 297.075 424.412 296.404 424.412C295.733 424.412 295.189 424.805 295.189 425.291Z" fill="black"/>
<path d="M261.934 425.291C261.934 425.777 262.478 426.171 263.149 426.171C263.82 426.171 264.364 425.777 264.364 425.291C264.364 424.805 263.82 424.412 263.149 424.412C262.478 424.412 261.934 424.805 261.934 425.291Z" fill="black"/>
<path d="M228.678 425.291C228.678 425.777 229.222 426.171 229.894 426.171C230.565 426.171 231.109 425.777 231.109 425.291C231.109 424.805 230.565 424.412 229.894 424.412C229.222 424.412 228.678 424.805 228.678 425.291Z" fill="black"/>
<path d="M195.423 425.291C195.423 425.777 195.967 426.171 196.638 426.171C197.31 426.171 197.854 425.777 197.854 425.291C197.854 424.805 197.31 424.412 196.638 424.412C195.967 424.412 195.423 424.805 195.423 425.291Z" fill="black"/>
<path d="M162.168 425.291C162.168 425.777 162.712 426.171 163.383 426.171C164.054 426.171 164.598 425.777 164.598 425.291C164.598 424.805 164.054 424.412 163.383 424.412C162.712 424.412 162.168 424.805 162.168 425.291Z" fill="black"/>
<path d="M128.912 425.291C128.912 425.777 129.457 426.171 130.128 426.171C130.799 426.171 131.343 425.777 131.343 425.291C131.343 424.805 130.799 424.412 130.128 424.412C129.457 424.412 128.912 424.805 128.912 425.291Z" fill="black"/>
<path d="M95.6571 425.291C95.6571 425.777 96.2012 426.171 96.8724 426.171C97.5436 426.171 98.0877 425.777 98.0877 425.291C98.0877 424.805 97.5436 424.412 96.8724 424.412C96.2012 424.412 95.6571 424.805 95.6571 425.291Z" fill="black"/>
<path d="M477.803 449.356C477.803 449.958 478.477 450.446 479.308 450.446C480.14 450.446 480.814 449.958 480.814 449.356C480.814 448.755 480.14 448.267 479.308 448.267C478.477 448.267 477.803 448.755 477.803 449.356Z" fill="black"/>
<path d="M444.547 449.356C444.547 449.958 445.222 450.446 446.053 450.446C446.885 450.446 447.559 449.958 447.559 449.356C447.559 448.755 446.885 448.267 446.053 448.267C445.222 448.267 444.547 448.755 444.547 449.356Z" fill="black"/>
<path d="M411.292 449.356C411.292 449.958 411.966 450.446 412.798 450.446C413.629 450.446 414.303 449.958 414.303 449.356C414.303 448.755 413.629 448.267 412.798 448.267C411.966 448.267 411.292 448.755 411.292 449.356Z" fill="black"/>
<path d="M378.037 449.356C378.037 449.958 378.711 450.446 379.542 450.446C380.374 450.446 381.048 449.958 381.048 449.356C381.048 448.755 380.374 448.267 379.542 448.267C378.711 448.267 378.037 448.755 378.037 449.356Z" fill="black"/>
<path d="M344.782 449.356C344.782 449.958 345.456 450.446 346.287 450.446C347.119 450.446 347.793 449.958 347.793 449.356C347.793 448.755 347.119 448.267 346.287 448.267C345.456 448.267 344.782 448.755 344.782 449.356Z" fill="black"/>
<path d="M311.526 449.356C311.526 449.958 312.2 450.446 313.032 450.446C313.863 450.446 314.537 449.958 314.537 449.356C314.537 448.755 313.863 448.267 313.032 448.267C312.2 448.267 311.526 448.755 311.526 449.356Z" fill="black"/>
<path d="M278.271 449.356C278.271 449.958 278.945 450.446 279.777 450.446C280.608 450.446 281.282 449.958 281.282 449.356C281.282 448.755 280.608 448.267 279.777 448.267C278.945 448.267 278.271 448.755 278.271 449.356Z" fill="black"/>
<path d="M245.016 449.356C245.016 449.958 245.69 450.446 246.521 450.446C247.353 450.446 248.027 449.958 248.027 449.356C248.027 448.755 247.353 448.267 246.521 448.267C245.69 448.267 245.016 448.755 245.016 449.356Z" fill="black"/>
<path d="M211.76 449.356C211.76 449.958 212.434 450.446 213.266 450.446C214.097 450.446 214.772 449.958 214.772 449.356C214.772 448.755 214.097 448.267 213.266 448.267C212.434 448.267 211.76 448.755 211.76 449.356Z" fill="black"/>
<path d="M178.505 449.356C178.505 449.958 179.179 450.446 180.011 450.446C180.842 450.446 181.516 449.958 181.516 449.356C181.516 448.755 180.842 448.267 180.011 448.267C179.179 448.267 178.505 448.755 178.505 449.356Z" fill="black"/>
<path d="M145.25 449.356C145.25 449.958 145.924 450.446 146.755 450.446C147.587 450.446 148.261 449.958 148.261 449.356C148.261 448.755 147.587 448.267 146.755 448.267C145.924 448.267 145.25 448.755 145.25 449.356Z" fill="black"/>
<path d="M111.995 449.356C111.995 449.958 112.669 450.446 113.5 450.446C114.332 450.446 115.006 449.958 115.006 449.356C115.006 448.755 114.332 448.267 113.5 448.267C112.669 448.267 111.995 448.755 111.995 449.356Z" fill="black"/>
<path d="M460.867 473.422C460.867 474.147 461.679 474.734 462.681 474.734C463.682 474.734 464.495 474.147 464.495 473.422C464.495 472.697 463.682 472.109 462.681 472.109C461.679 472.109 460.867 472.697 460.867 473.422Z" fill="black"/>
<path d="M427.611 473.422C427.611 474.147 428.424 474.734 429.425 474.734C430.427 474.734 431.239 474.147 431.239 473.422C431.239 472.697 430.427 472.109 429.425 472.109C428.424 472.109 427.611 472.697 427.611 473.422Z" fill="black"/>
<path d="M394.356 473.422C394.356 474.147 395.168 474.734 396.17 474.734C397.172 474.734 397.984 474.147 397.984 473.422C397.984 472.697 397.172 472.109 396.17 472.109C395.168 472.109 394.356 472.697 394.356 473.422Z" fill="black"/>
<path d="M361.101 473.422C361.101 474.147 361.913 474.734 362.915 474.734C363.917 474.734 364.729 474.147 364.729 473.422C364.729 472.697 363.917 472.109 362.915 472.109C361.913 472.109 361.101 472.697 361.101 473.422Z" fill="black"/>
<path d="M327.846 473.422C327.846 474.147 328.658 474.734 329.66 474.734C330.661 474.734 331.473 474.147 331.473 473.422C331.473 472.697 330.661 472.109 329.66 472.109C328.658 472.109 327.846 472.697 327.846 473.422Z" fill="black"/>
<path d="M294.59 473.422C294.59 474.147 295.402 474.734 296.404 474.734C297.406 474.734 298.218 474.147 298.218 473.422C298.218 472.697 297.406 472.109 296.404 472.109C295.402 472.109 294.59 472.697 294.59 473.422Z" fill="black"/>
<path d="M261.335 473.422C261.335 474.147 262.147 474.734 263.149 474.734C264.151 474.734 264.963 474.147 264.963 473.422C264.963 472.697 264.151 472.109 263.149 472.109C262.147 472.109 261.335 472.697 261.335 473.422Z" fill="black"/>
<path d="M228.08 473.422C228.08 474.147 228.892 474.734 229.894 474.734C230.895 474.734 231.708 474.147 231.708 473.422C231.708 472.697 230.895 472.109 229.894 472.109C228.892 472.109 228.08 472.697 228.08 473.422Z" fill="black"/>
<path d="M194.824 473.422C194.824 474.147 195.637 474.734 196.638 474.734C197.64 474.734 198.452 474.147 198.452 473.422C198.452 472.697 197.64 472.109 196.638 472.109C195.637 472.109 194.824 472.697 194.824 473.422Z" fill="black"/>
<path d="M161.569 473.422C161.569 474.147 162.381 474.734 163.383 474.734C164.385 474.734 165.197 474.147 165.197 473.422C165.197 472.697 164.385 472.109 163.383 472.109C162.381 472.109 161.569 472.697 161.569 473.422Z" fill="black"/>
<path d="M128.314 473.422C128.314 474.147 129.126 474.734 130.128 474.734C131.13 474.734 131.942 474.147 131.942 473.422C131.942 472.697 131.13 472.109 130.128 472.109C129.126 472.109 128.314 472.697 128.314 473.422Z" fill="black"/>
<path d="M95.0585 473.422C95.0585 474.147 95.8706 474.734 96.8724 474.734C97.8742 474.734 98.6863 474.147 98.6863 473.422C98.6863 472.697 97.8742 472.109 96.8724 472.109C95.8706 472.109 95.0585 472.697 95.0585 473.422Z" fill="black"/>
<path d="M477.186 497.487C477.186 498.335 478.136 499.023 479.308 499.023C480.48 499.023 481.431 498.335 481.431 497.487C481.431 496.639 480.48 495.951 479.308 495.951C478.136 495.951 477.186 496.639 477.186 497.487Z" fill="black"/>
<path d="M443.931 497.487C443.931 498.335 444.881 499.023 446.053 499.023C447.225 499.023 448.175 498.335 448.175 497.487C448.175 496.639 447.225 495.951 446.053 495.951C444.881 495.951 443.931 496.639 443.931 497.487Z" fill="black"/>
<path d="M410.675 497.487C410.675 498.335 411.626 499.023 412.798 499.023C413.97 499.023 414.92 498.335 414.92 497.487C414.92 496.639 413.97 495.951 412.798 495.951C411.626 495.951 410.675 496.639 410.675 497.487Z" fill="black"/>
<path d="M377.42 497.487C377.42 498.335 378.37 499.023 379.542 499.023C380.715 499.023 381.665 498.335 381.665 497.487C381.665 496.639 380.715 495.951 379.542 495.951C378.37 495.951 377.42 496.639 377.42 497.487Z" fill="black"/>
<path d="M344.165 497.487C344.165 498.335 345.115 499.023 346.287 499.023C347.459 499.023 348.409 498.335 348.409 497.487C348.409 496.639 347.459 495.951 346.287 495.951C345.115 495.951 344.165 496.639 344.165 497.487Z" fill="black"/>
<path d="M310.91 497.487C310.91 498.335 311.86 499.023 313.032 499.023C314.204 499.023 315.154 498.335 315.154 497.487C315.154 496.639 314.204 495.951 313.032 495.951C311.86 495.951 310.91 496.639 310.91 497.487Z" fill="black"/>
<path d="M277.654 497.487C277.654 498.335 278.604 499.023 279.777 499.023C280.949 499.023 281.899 498.335 281.899 497.487C281.899 496.639 280.949 495.951 279.777 495.951C278.604 495.951 277.654 496.639 277.654 497.487Z" fill="black"/>
<path d="M244.399 497.487C244.399 498.335 245.349 499.023 246.521 499.023C247.693 499.023 248.644 498.335 248.644 497.487C248.644 496.639 247.693 495.951 246.521 495.951C245.349 495.951 244.399 496.639 244.399 497.487Z" fill="black"/>
<path d="M211.144 497.487C211.144 498.335 212.094 499.023 213.266 499.023C214.438 499.023 215.388 498.335 215.388 497.487C215.388 496.639 214.438 495.951 213.266 495.951C212.094 495.951 211.144 496.639 211.144 497.487Z" fill="black"/>
<path d="M177.888 497.487C177.888 498.335 178.839 499.023 180.011 499.023C181.183 499.023 182.133 498.335 182.133 497.487C182.133 496.639 181.183 495.951 180.011 495.951C178.839 495.951 177.888 496.639 177.888 497.487Z" fill="black"/>
<path d="M144.633 497.487C144.633 498.335 145.583 499.023 146.755 499.023C147.927 499.023 148.878 498.335 148.878 497.487C148.878 496.639 147.927 495.951 146.755 495.951C145.583 495.951 144.633 496.639 144.633 497.487Z" fill="black"/>
<path d="M111.378 497.487C111.378 498.335 112.328 499.023 113.5 499.023C114.672 499.023 115.622 498.335 115.622 497.487C115.622 496.639 114.672 495.951 113.5 495.951C112.328 495.951 111.378 496.639 111.378 497.487Z" fill="black"/>
<path d="M460.268 521.552C460.268 522.517 461.348 523.298 462.681 523.298C464.013 523.298 465.093 522.517 465.093 521.552C465.093 520.588 464.013 519.806 462.681 519.806C461.348 519.806 460.268 520.588 460.268 521.552Z" fill="black"/>
<path d="M427.013 521.552C427.013 522.517 428.093 523.298 429.425 523.298C430.758 523.298 431.838 522.517 431.838 521.552C431.838 520.588 430.758 519.806 429.425 519.806C428.093 519.806 427.013 520.588 427.013 521.552Z" fill="black"/>
<path d="M393.758 521.552C393.758 522.517 394.838 523.298 396.17 523.298C397.502 523.298 398.583 522.517 398.583 521.552C398.583 520.588 397.502 519.806 396.17 519.806C394.838 519.806 393.758 520.588 393.758 521.552Z" fill="black"/>
<path d="M360.502 521.552C360.502 522.517 361.582 523.298 362.915 523.298C364.247 523.298 365.327 522.517 365.327 521.552C365.327 520.588 364.247 519.806 362.915 519.806C361.582 519.806 360.502 520.588 360.502 521.552Z" fill="black"/>
<path d="M327.247 521.552C327.247 522.517 328.327 523.298 329.66 523.298C330.992 523.298 332.072 522.517 332.072 521.552C332.072 520.588 330.992 519.806 329.66 519.806C328.327 519.806 327.247 520.588 327.247 521.552Z" fill="black"/>
<path d="M293.992 521.552C293.992 522.517 295.072 523.298 296.404 523.298C297.737 523.298 298.817 522.517 298.817 521.552C298.817 520.588 297.737 519.806 296.404 519.806C295.072 519.806 293.992 520.588 293.992 521.552Z" fill="black"/>
<path d="M260.736 521.552C260.736 522.517 261.817 523.298 263.149 523.298C264.481 523.298 265.561 522.517 265.561 521.552C265.561 520.588 264.481 519.806 263.149 519.806C261.817 519.806 260.736 520.588 260.736 521.552Z" fill="black"/>
<path d="M227.481 521.552C227.481 522.517 228.561 523.298 229.894 523.298C231.226 523.298 232.306 522.517 232.306 521.552C232.306 520.588 231.226 519.806 229.894 519.806C228.561 519.806 227.481 520.588 227.481 521.552Z" fill="black"/>
<path d="M194.226 521.552C194.226 522.517 195.306 523.298 196.638 523.298C197.971 523.298 199.051 522.517 199.051 521.552C199.051 520.588 197.971 519.806 196.638 519.806C195.306 519.806 194.226 520.588 194.226 521.552Z" fill="black"/>
<path d="M160.97 521.552C160.97 522.517 162.051 523.298 163.383 523.298C164.715 523.298 165.796 522.517 165.796 521.552C165.796 520.588 164.715 519.806 163.383 519.806C162.051 519.806 160.97 520.588 160.97 521.552Z" fill="black"/>
<path d="M127.715 521.552C127.715 522.517 128.795 523.298 130.128 523.298C131.46 523.298 132.54 522.517 132.54 521.552C132.54 520.588 131.46 519.806 130.128 519.806C128.795 519.806 127.715 520.588 127.715 521.552Z" fill="black"/>
<path d="M94.4599 521.552C94.4599 522.517 95.54 523.298 96.8724 523.298C98.2048 523.298 99.2849 522.517 99.2849 521.552C99.2849 520.588 98.2048 519.806 96.8724 519.806C95.54 519.806 94.4599 520.588 94.4599 521.552Z" fill="black"/>
<path d="M476.587 545.618C476.587 546.705 477.806 547.587 479.308 547.587C480.811 547.587 482.029 546.705 482.029 545.618C482.029 544.53 480.811 543.649 479.308 543.649C477.806 543.649 476.587 544.53 476.587 545.618Z" fill="black"/>
<path d="M443.332 545.618C443.332 546.705 444.55 547.587 446.053 547.587C447.556 547.587 448.774 546.705 448.774 545.618C448.774 544.53 447.556 543.649 446.053 543.649C444.55 543.649 443.332 544.53 443.332 545.618Z" fill="black"/>
<path d="M410.077 545.618C410.077 546.705 411.295 547.587 412.798 547.587C414.3 547.587 415.519 546.705 415.519 545.618C415.519 544.53 414.3 543.649 412.798 543.649C411.295 543.649 410.077 544.53 410.077 545.618Z" fill="black"/>
<path d="M376.822 545.618C376.822 546.705 378.04 547.587 379.542 547.587C381.045 547.587 382.263 546.705 382.263 545.618C382.263 544.53 381.045 543.649 379.542 543.649C378.04 543.649 376.822 544.53 376.822 545.618Z" fill="black"/>
<path d="M343.566 545.618C343.566 546.705 344.784 547.587 346.287 547.587C347.79 547.587 349.008 546.705 349.008 545.618C349.008 544.53 347.79 543.649 346.287 543.649C344.784 543.649 343.566 544.53 343.566 545.618Z" fill="black"/>
<path d="M310.311 545.618C310.311 546.705 311.529 547.587 313.032 547.587C314.535 547.587 315.753 546.705 315.753 545.618C315.753 544.53 314.535 543.649 313.032 543.649C311.529 543.649 310.311 544.53 310.311 545.618Z" fill="black"/>
<path d="M277.056 545.618C277.056 546.705 278.274 547.587 279.777 547.587C281.279 547.587 282.497 546.705 282.497 545.618C282.497 544.53 281.279 543.649 279.777 543.649C278.274 543.649 277.056 544.53 277.056 545.618Z" fill="black"/>
<path d="M243.8 545.618C243.8 546.705 245.019 547.587 246.521 547.587C248.024 547.587 249.242 546.705 249.242 545.618C249.242 544.53 248.024 543.649 246.521 543.649C245.019 543.649 243.8 544.53 243.8 545.618Z" fill="black"/>
<path d="M210.545 545.618C210.545 546.705 211.763 547.587 213.266 547.587C214.769 547.587 215.987 546.705 215.987 545.618C215.987 544.53 214.769 543.649 213.266 543.649C211.763 543.649 210.545 544.53 210.545 545.618Z" fill="black"/>
<path d="M177.29 545.618C177.29 546.705 178.508 547.587 180.011 547.587C181.513 547.587 182.732 546.705 182.732 545.618C182.732 544.53 181.513 543.649 180.011 543.649C178.508 543.649 177.29 544.53 177.29 545.618Z" fill="black"/>
<path d="M144.034 545.618C144.034 546.705 145.253 547.587 146.755 547.587C148.258 547.587 149.476 546.705 149.476 545.618C149.476 544.53 148.258 543.649 146.755 543.649C145.253 543.649 144.034 544.53 144.034 545.618Z" fill="black"/>
<path d="M110.779 545.618C110.779 546.705 111.997 547.587 113.5 547.587C115.003 547.587 116.221 546.705 116.221 545.618C116.221 544.53 115.003 543.649 113.5 543.649C111.997 543.649 110.779 544.53 110.779 545.618Z" fill="black"/>
<path d="M459.651 569.683C459.651 570.894 461.008 571.875 462.681 571.875C464.354 571.875 465.71 570.894 465.71 569.683C465.71 568.472 464.354 567.491 462.681 567.491C461.008 567.491 459.651 568.472 459.651 569.683Z" fill="black"/>
<path d="M426.396 569.683C426.396 570.894 427.752 571.875 429.425 571.875C431.098 571.875 432.455 570.894 432.455 569.683C432.455 568.472 431.098 567.491 429.425 567.491C427.752 567.491 426.396 568.472 426.396 569.683Z" fill="black"/>
<path d="M393.141 569.683C393.141 570.894 394.497 571.875 396.17 571.875C397.843 571.875 399.199 570.894 399.199 569.683C399.199 568.472 397.843 567.491 396.17 567.491C394.497 567.491 393.141 568.472 393.141 569.683Z" fill="black"/>
<path d="M359.886 569.683C359.886 570.894 361.242 571.875 362.915 571.875C364.588 571.875 365.944 570.894 365.944 569.683C365.944 568.472 364.588 567.491 362.915 567.491C361.242 567.491 359.886 568.472 359.886 569.683Z" fill="black"/>
<path d="M326.63 569.683C326.63 570.894 327.987 571.875 329.66 571.875C331.333 571.875 332.689 570.894 332.689 569.683C332.689 568.472 331.333 567.491 329.66 567.491C327.987 567.491 326.63 568.472 326.63 569.683Z" fill="black"/>
<path d="M293.375 569.683C293.375 570.894 294.731 571.875 296.404 571.875C298.077 571.875 299.433 570.894 299.433 569.683C299.433 568.472 298.077 567.491 296.404 567.491C294.731 567.491 293.375 568.472 293.375 569.683Z" fill="black"/>
<path d="M260.12 569.683C260.12 570.894 261.476 571.875 263.149 571.875C264.822 571.875 266.178 570.894 266.178 569.683C266.178 568.472 264.822 567.491 263.149 567.491C261.476 567.491 260.12 568.472 260.12 569.683Z" fill="black"/>
<path d="M226.864 569.683C226.864 570.894 228.221 571.875 229.894 571.875C231.567 571.875 232.923 570.894 232.923 569.683C232.923 568.472 231.567 567.491 229.894 567.491C228.221 567.491 226.864 568.472 226.864 569.683Z" fill="black"/>
<path d="M193.609 569.683C193.609 570.894 194.965 571.875 196.638 571.875C198.311 571.875 199.668 570.894 199.668 569.683C199.668 568.472 198.311 567.491 196.638 567.491C194.965 567.491 193.609 568.472 193.609 569.683Z" fill="black"/>
<path d="M160.354 569.683C160.354 570.894 161.71 571.875 163.383 571.875C165.056 571.875 166.412 570.894 166.412 569.683C166.412 568.472 165.056 567.491 163.383 567.491C161.71 567.491 160.354 568.472 160.354 569.683Z" fill="black"/>
<path d="M127.098 569.683C127.098 570.894 128.455 571.875 130.128 571.875C131.801 571.875 133.157 570.894 133.157 569.683C133.157 568.472 131.801 567.491 130.128 567.491C128.455 567.491 127.098 568.472 127.098 569.683Z" fill="black"/>
<path d="M93.8432 569.683C93.8432 570.894 95.1994 571.875 96.8724 571.875C98.5454 571.875 99.9017 570.894 99.9017 569.683C99.9017 568.472 98.5454 567.491 96.8724 567.491C95.1994 567.491 93.8432 568.472 93.8432 569.683Z" fill="black"/>
<path d="M475.989 593.748C475.989 595.075 477.475 596.15 479.308 596.15C481.142 596.15 482.628 595.075 482.628 593.748C482.628 592.422 481.142 591.346 479.308 591.346C477.475 591.346 475.989 592.422 475.989 593.748Z" fill="black"/>
<path d="M442.734 593.748C442.734 595.075 444.22 596.15 446.053 596.15C447.886 596.15 449.373 595.075 449.373 593.748C449.373 592.422 447.886 591.346 446.053 591.346C444.22 591.346 442.734 592.422 442.734 593.748Z" fill="black"/>
<path d="M409.478 593.748C409.478 595.075 410.964 596.15 412.798 596.15C414.631 596.15 416.117 595.075 416.117 593.748C416.117 592.422 414.631 591.346 412.798 591.346C410.964 591.346 409.478 592.422 409.478 593.748Z" fill="black"/>
<path d="M376.223 593.748C376.223 595.075 377.709 596.15 379.542 596.15C381.376 596.15 382.862 595.075 382.862 593.748C382.862 592.422 381.376 591.346 379.542 591.346C377.709 591.346 376.223 592.422 376.223 593.748Z" fill="black"/>
<path d="M342.968 593.748C342.968 595.075 344.454 596.15 346.287 596.15C348.12 596.15 349.607 595.075 349.607 593.748C349.607 592.422 348.12 591.346 346.287 591.346C344.454 591.346 342.968 592.422 342.968 593.748Z" fill="black"/>
<path d="M309.712 593.748C309.712 595.075 311.199 596.15 313.032 596.15C314.865 596.15 316.351 595.075 316.351 593.748C316.351 592.422 314.865 591.346 313.032 591.346C311.199 591.346 309.712 592.422 309.712 593.748Z" fill="black"/>
<path d="M276.457 593.748C276.457 595.075 277.943 596.15 279.777 596.15C281.61 596.15 283.096 595.075 283.096 593.748C283.096 592.422 281.61 591.346 279.777 591.346C277.943 591.346 276.457 592.422 276.457 593.748Z" fill="black"/>
<path d="M243.202 593.748C243.202 595.075 244.688 596.15 246.521 596.15C248.355 596.15 249.841 595.075 249.841 593.748C249.841 592.422 248.355 591.346 246.521 591.346C244.688 591.346 243.202 592.422 243.202 593.748Z" fill="black"/>
<path d="M209.946 593.748C209.946 595.075 211.433 596.15 213.266 596.15C215.099 596.15 216.585 595.075 216.585 593.748C216.585 592.422 215.099 591.346 213.266 591.346C211.433 591.346 209.946 592.422 209.946 593.748Z" fill="black"/>
<path d="M176.691 593.748C176.691 595.075 178.177 596.15 180.011 596.15C181.844 596.15 183.33 595.075 183.33 593.748C183.33 592.422 181.844 591.346 180.011 591.346C178.177 591.346 176.691 592.422 176.691 593.748Z" fill="black"/>
<path d="M143.436 593.748C143.436 595.075 144.922 596.15 146.755 596.15C148.589 596.15 150.075 595.075 150.075 593.748C150.075 592.422 148.589 591.346 146.755 591.346C144.922 591.346 143.436 592.422 143.436 593.748Z" fill="black"/>
<path d="M110.181 593.748C110.181 595.075 111.667 596.15 113.5 596.15C115.333 596.15 116.82 595.075 116.82 593.748C116.82 592.422 115.333 591.346 113.5 591.346C111.667 591.346 110.181 592.422 110.181 593.748Z" fill="black"/>
<path d="M459.053 617.814C459.053 619.263 460.677 620.439 462.681 620.439C464.684 620.439 466.309 619.263 466.309 617.814C466.309 616.364 464.684 615.188 462.681 615.188C460.677 615.188 459.053 616.364 459.053 617.814Z" fill="black"/>
<path d="M425.798 617.814C425.798 619.263 427.422 620.439 429.425 620.439C431.429 620.439 433.053 619.263 433.053 617.814C433.053 616.364 431.429 615.188 429.425 615.188C427.422 615.188 425.798 616.364 425.798 617.814Z" fill="black"/>
<path d="M392.542 617.814C392.542 619.263 394.166 620.439 396.17 620.439C398.174 620.439 399.798 619.263 399.798 617.814C399.798 616.364 398.174 615.188 396.17 615.188C394.166 615.188 392.542 616.364 392.542 617.814Z" fill="black"/>
<path d="M359.287 617.814C359.287 619.263 360.911 620.439 362.915 620.439C364.918 620.439 366.543 619.263 366.543 617.814C366.543 616.364 364.918 615.188 362.915 615.188C360.911 615.188 359.287 616.364 359.287 617.814Z" fill="black"/>
<path d="M326.032 617.814C326.032 619.263 327.656 620.439 329.66 620.439C331.663 620.439 333.287 619.263 333.287 617.814C333.287 616.364 331.663 615.188 329.66 615.188C327.656 615.188 326.032 616.364 326.032 617.814Z" fill="black"/>
<path d="M292.776 617.814C292.776 619.263 294.401 620.439 296.404 620.439C298.408 620.439 300.032 619.263 300.032 617.814C300.032 616.364 298.408 615.188 296.404 615.188C294.401 615.188 292.776 616.364 292.776 617.814Z" fill="black"/>
<path d="M259.521 617.814C259.521 619.263 261.145 620.439 263.149 620.439C265.153 620.439 266.777 619.263 266.777 617.814C266.777 616.364 265.153 615.188 263.149 615.188C261.145 615.188 259.521 616.364 259.521 617.814Z" fill="black"/>
<path d="M226.266 617.814C226.266 619.263 227.89 620.439 229.894 620.439C231.897 620.439 233.521 619.263 233.521 617.814C233.521 616.364 231.897 615.188 229.894 615.188C227.89 615.188 226.266 616.364 226.266 617.814Z" fill="black"/>
<path d="M193.01 617.814C193.01 619.263 194.635 620.439 196.638 620.439C198.642 620.439 200.266 619.263 200.266 617.814C200.266 616.364 198.642 615.188 196.638 615.188C194.635 615.188 193.01 616.364 193.01 617.814Z" fill="black"/>
<path d="M159.755 617.814C159.755 619.263 161.379 620.439 163.383 620.439C165.387 620.439 167.011 619.263 167.011 617.814C167.011 616.364 165.387 615.188 163.383 615.188C161.379 615.188 159.755 616.364 159.755 617.814Z" fill="black"/>
<path d="M126.5 617.814C126.5 619.263 128.124 620.439 130.128 620.439C132.131 620.439 133.756 619.263 133.756 617.814C133.756 616.364 132.131 615.188 130.128 615.188C128.124 615.188 126.5 616.364 126.5 617.814Z" fill="black"/>
<path d="M93.2446 617.814C93.2446 619.263 94.8688 620.439 96.8724 620.439C98.876 620.439 100.5 619.263 100.5 617.814C100.5 616.364 98.876 615.188 96.8724 615.188C94.8688 615.188 93.2446 616.364 93.2446 617.814Z" fill="black"/>
<path d="M475.372 641.879C475.372 643.452 477.134 644.727 479.308 644.727C481.482 644.727 483.245 643.452 483.245 641.879C483.245 640.306 481.482 639.03 479.308 639.03C477.134 639.03 475.372 640.306 475.372 641.879Z" fill="black"/>
<path d="M442.117 641.879C442.117 643.452 443.879 644.727 446.053 644.727C448.227 644.727 449.989 643.452 449.989 641.879C449.989 640.306 448.227 639.03 446.053 639.03C443.879 639.03 442.117 640.306 442.117 641.879Z" fill="black"/>
<path d="M408.862 641.879C408.862 643.452 410.624 644.727 412.798 644.727C414.972 644.727 416.734 643.452 416.734 641.879C416.734 640.306 414.972 639.03 412.798 639.03C410.624 639.03 408.862 640.306 408.862 641.879Z" fill="black"/>
<path d="M375.606 641.879C375.606 643.452 377.369 644.727 379.542 644.727C381.716 644.727 383.479 643.452 383.479 641.879C383.479 640.306 381.716 639.03 379.542 639.03C377.369 639.03 375.606 640.306 375.606 641.879Z" fill="black"/>
<path d="M342.351 641.879C342.351 643.452 344.113 644.727 346.287 644.727C348.461 644.727 350.223 643.452 350.223 641.879C350.223 640.306 348.461 639.03 346.287 639.03C344.113 639.03 342.351 640.306 342.351 641.879Z" fill="black"/>
<path d="M309.096 641.879C309.096 643.452 310.858 644.727 313.032 644.727C315.206 644.727 316.968 643.452 316.968 641.879C316.968 640.306 315.206 639.03 313.032 639.03C310.858 639.03 309.096 640.306 309.096 641.879Z" fill="black"/>
<path d="M275.84 641.879C275.84 643.452 277.603 644.727 279.777 644.727C281.95 644.727 283.713 643.452 283.713 641.879C283.713 640.306 281.95 639.03 279.777 639.03C277.603 639.03 275.84 640.306 275.84 641.879Z" fill="black"/>
<path d="M242.585 641.879C242.585 643.452 244.347 644.727 246.521 644.727C248.695 644.727 250.457 643.452 250.457 641.879C250.457 640.306 248.695 639.03 246.521 639.03C244.347 639.03 242.585 640.306 242.585 641.879Z" fill="black"/>
<path d="M209.33 641.879C209.33 643.452 211.092 644.727 213.266 644.727C215.44 644.727 217.202 643.452 217.202 641.879C217.202 640.306 215.44 639.03 213.266 639.03C211.092 639.03 209.33 640.306 209.33 641.879Z" fill="black"/>
<path d="M176.074 641.879C176.074 643.452 177.837 644.727 180.011 644.727C182.185 644.727 183.947 643.452 183.947 641.879C183.947 640.306 182.185 639.03 180.011 639.03C177.837 639.03 176.074 640.306 176.074 641.879Z" fill="black"/>
<path d="M142.819 641.879C142.819 643.452 144.581 644.727 146.755 644.727C148.929 644.727 150.692 643.452 150.692 641.879C150.692 640.306 148.929 639.03 146.755 639.03C144.581 639.03 142.819 640.306 142.819 641.879Z" fill="black"/>
<path d="M109.564 641.879C109.564 643.452 111.326 644.727 113.5 644.727C115.674 644.727 117.436 643.452 117.436 641.879C117.436 640.306 115.674 639.03 113.5 639.03C111.326 639.03 109.564 640.306 109.564 641.879Z" fill="black"/>
</g>
</svg>
