<svg  viewBox="0 0 457 270" fill="none" xmlns="http://www.w3.org/2000/svg">
<path d="M432.501 1.16047C432.501 1.39971 432.814 1.59365 433.201 1.59365C433.587 1.59365 433.901 1.39971 433.901 1.16047C433.901 0.921234 433.587 0.727295 433.201 0.727295C432.814 0.727295 432.501 0.921234 432.501 1.16047Z" fill="black"/>
<path d="M393.618 1.16047C393.618 1.39971 393.931 1.59365 394.318 1.59365C394.704 1.59365 395.018 1.39971 395.018 1.16047C395.018 0.921234 394.704 0.727295 394.318 0.727295C393.931 0.727295 393.618 0.921234 393.618 1.16047Z" fill="black"/>
<path d="M354.735 1.16047C354.735 1.39971 355.048 1.59365 355.434 1.59365C355.821 1.59365 356.134 1.39971 356.134 1.16047C356.134 0.921234 355.821 0.727295 355.434 0.727295C355.048 0.727295 354.735 0.921234 354.735 1.16047Z" fill="black"/>
<path d="M315.851 1.16047C315.851 1.39971 316.165 1.59365 316.551 1.59365C316.938 1.59365 317.251 1.39971 317.251 1.16047C317.251 0.921234 316.938 0.727295 316.551 0.727295C316.165 0.727295 315.851 0.921234 315.851 1.16047Z" fill="black"/>
<path d="M276.968 1.16047C276.968 1.39971 277.282 1.59365 277.668 1.59365C278.055 1.59365 278.368 1.39971 278.368 1.16047C278.368 0.921234 278.055 0.727295 277.668 0.727295C277.282 0.727295 276.968 0.921234 276.968 1.16047Z" fill="black"/>
<path d="M238.085 1.16047C238.085 1.39971 238.399 1.59365 238.785 1.59365C239.172 1.59365 239.485 1.39971 239.485 1.16047C239.485 0.921234 239.172 0.727295 238.785 0.727295C238.399 0.727295 238.085 0.921234 238.085 1.16047Z" fill="black"/>
<path d="M199.202 1.16047C199.202 1.39971 199.515 1.59365 199.902 1.59365C200.289 1.59365 200.602 1.39971 200.602 1.16047C200.602 0.921234 200.289 0.727295 199.902 0.727295C199.515 0.727295 199.202 0.921234 199.202 1.16047Z" fill="black"/>
<path d="M160.319 1.16047C160.319 1.39971 160.632 1.59365 161.019 1.59365C161.405 1.59365 161.719 1.39971 161.719 1.16047C161.719 0.921234 161.405 0.727295 161.019 0.727295C160.632 0.727295 160.319 0.921234 160.319 1.16047Z" fill="black"/>
<path d="M121.436 1.16047C121.436 1.39971 121.749 1.59365 122.136 1.59365C122.522 1.59365 122.836 1.39971 122.836 1.16047C122.836 0.921234 122.522 0.727295 122.136 0.727295C121.749 0.727295 121.436 0.921234 121.436 1.16047Z" fill="black"/>
<path d="M82.5528 1.16047C82.5528 1.39971 82.8661 1.59365 83.2527 1.59365C83.6392 1.59365 83.9526 1.39971 83.9526 1.16047C83.9526 0.921234 83.6392 0.727295 83.2527 0.727295C82.8661 0.727295 82.5528 0.921234 82.5528 1.16047Z" fill="black"/>
<path d="M43.6697 1.16047C43.6697 1.39971 43.983 1.59365 44.3696 1.59365C44.7561 1.59365 45.0695 1.39971 45.0695 1.16047C45.0695 0.921234 44.7561 0.727295 44.3696 0.727295C43.983 0.727295 43.6697 0.921234 43.6697 1.16047Z" fill="black"/>
<path d="M4.78652 1.16047C4.78652 1.39971 5.09988 1.59365 5.48642 1.59365C5.87297 1.59365 6.18632 1.39971 6.18632 1.16047C6.18632 0.921234 5.87297 0.727295 5.48642 0.727295C5.09988 0.727295 4.78652 0.921234 4.78652 1.16047Z" fill="black"/>
<path d="M451.582 25.2258C451.582 25.5883 452.057 25.8821 452.642 25.8821C453.228 25.8821 453.703 25.5883 453.703 25.2258C453.703 24.8633 453.228 24.5695 452.642 24.5695C452.057 24.5695 451.582 24.8633 451.582 25.2258Z" fill="black"/>
<path d="M412.699 25.2258C412.699 25.5883 413.174 25.8821 413.759 25.8821C414.345 25.8821 414.82 25.5883 414.82 25.2258C414.82 24.8633 414.345 24.5695 413.759 24.5695C413.174 24.5695 412.699 24.8633 412.699 25.2258Z" fill="black"/>
<path d="M373.816 25.2258C373.816 25.5883 374.29 25.8821 374.876 25.8821C375.462 25.8821 375.936 25.5883 375.936 25.2258C375.936 24.8633 375.462 24.5695 374.876 24.5695C374.29 24.5695 373.816 24.8633 373.816 25.2258Z" fill="black"/>
<path d="M334.932 25.2258C334.932 25.5883 335.407 25.8821 335.993 25.8821C336.579 25.8821 337.053 25.5883 337.053 25.2258C337.053 24.8633 336.579 24.5695 335.993 24.5695C335.407 24.5695 334.932 24.8633 334.932 25.2258Z" fill="black"/>
<path d="M296.049 25.2258C296.049 25.5883 296.524 25.8821 297.11 25.8821C297.695 25.8821 298.17 25.5883 298.17 25.2258C298.17 24.8633 297.695 24.5695 297.11 24.5695C296.524 24.5695 296.049 24.8633 296.049 25.2258Z" fill="black"/>
<path d="M257.166 25.2258C257.166 25.5883 257.641 25.8821 258.227 25.8821C258.812 25.8821 259.287 25.5883 259.287 25.2258C259.287 24.8633 258.812 24.5695 258.227 24.5695C257.641 24.5695 257.166 24.8633 257.166 25.2258Z" fill="black"/>
<path d="M218.283 25.2258C218.283 25.5883 218.758 25.8821 219.344 25.8821C219.929 25.8821 220.404 25.5883 220.404 25.2258C220.404 24.8633 219.929 24.5695 219.344 24.5695C218.758 24.5695 218.283 24.8633 218.283 25.2258Z" fill="black"/>
<path d="M179.4 25.2258C179.4 25.5883 179.875 25.8821 180.46 25.8821C181.046 25.8821 181.521 25.5883 181.521 25.2258C181.521 24.8633 181.046 24.5695 180.46 24.5695C179.875 24.5695 179.4 24.8633 179.4 25.2258Z" fill="black"/>
<path d="M140.517 25.2258C140.517 25.5883 140.992 25.8821 141.577 25.8821C142.163 25.8821 142.638 25.5883 142.638 25.2258C142.638 24.8633 142.163 24.5695 141.577 24.5695C140.992 24.5695 140.517 24.8633 140.517 25.2258Z" fill="black"/>
<path d="M101.634 25.2258C101.634 25.5883 102.109 25.8821 102.694 25.8821C103.28 25.8821 103.755 25.5883 103.755 25.2258C103.755 24.8633 103.28 24.5695 102.694 24.5695C102.109 24.5695 101.634 24.8633 101.634 25.2258Z" fill="black"/>
<path d="M62.7507 25.2258C62.7507 25.5883 63.2254 25.8821 63.8111 25.8821C64.3968 25.8821 64.8715 25.5883 64.8715 25.2258C64.8715 24.8633 64.3968 24.5695 63.8111 24.5695C63.2254 24.5695 62.7507 24.8633 62.7507 25.2258Z" fill="black"/>
<path d="M23.8675 25.2258C23.8675 25.5883 24.3423 25.8821 24.928 25.8821C25.5137 25.8821 25.9884 25.5883 25.9884 25.2258C25.9884 24.8633 25.5137 24.5695 24.928 24.5695C24.3423 24.5695 23.8675 24.8633 23.8675 25.2258Z" fill="black"/>
<path d="M431.78 49.2911C431.78 49.7768 432.416 50.1706 433.201 50.1706C433.986 50.1706 434.622 49.7768 434.622 49.2911C434.622 48.8054 433.986 48.4116 433.201 48.4116C432.416 48.4116 431.78 48.8054 431.78 49.2911Z" fill="black"/>
<path d="M392.897 49.2911C392.897 49.7768 393.533 50.1706 394.318 50.1706C395.102 50.1706 395.739 49.7768 395.739 49.2911C395.739 48.8054 395.102 48.4116 394.318 48.4116C393.533 48.4116 392.897 48.8054 392.897 49.2911Z" fill="black"/>
<path d="M354.014 49.2911C354.014 49.7768 354.65 50.1706 355.434 50.1706C356.219 50.1706 356.856 49.7768 356.856 49.2911C356.856 48.8054 356.219 48.4116 355.434 48.4116C354.65 48.4116 354.014 48.8054 354.014 49.2911Z" fill="black"/>
<path d="M315.13 49.2911C315.13 49.7768 315.767 50.1706 316.551 50.1706C317.336 50.1706 317.972 49.7768 317.972 49.2911C317.972 48.8054 317.336 48.4116 316.551 48.4116C315.767 48.4116 315.13 48.8054 315.13 49.2911Z" fill="black"/>
<path d="M276.247 49.2911C276.247 49.7768 276.883 50.1706 277.668 50.1706C278.453 50.1706 279.089 49.7768 279.089 49.2911C279.089 48.8054 278.453 48.4116 277.668 48.4116C276.883 48.4116 276.247 48.8054 276.247 49.2911Z" fill="black"/>
<path d="M237.364 49.2911C237.364 49.7768 238 50.1706 238.785 50.1706C239.57 50.1706 240.206 49.7768 240.206 49.2911C240.206 48.8054 239.57 48.4116 238.785 48.4116C238 48.4116 237.364 48.8054 237.364 49.2911Z" fill="black"/>
<path d="M198.481 49.2911C198.481 49.7768 199.117 50.1706 199.902 50.1706C200.687 50.1706 201.323 49.7768 201.323 49.2911C201.323 48.8054 200.687 48.4116 199.902 48.4116C199.117 48.4116 198.481 48.8054 198.481 49.2911Z" fill="black"/>
<path d="M159.598 49.2911C159.598 49.7768 160.234 50.1706 161.019 50.1706C161.804 50.1706 162.44 49.7768 162.44 49.2911C162.44 48.8054 161.804 48.4116 161.019 48.4116C160.234 48.4116 159.598 48.8054 159.598 49.2911Z" fill="black"/>
<path d="M120.715 49.2911C120.715 49.7768 121.351 50.1706 122.136 50.1706C122.921 50.1706 123.557 49.7768 123.557 49.2911C123.557 48.8054 122.921 48.4116 122.136 48.4116C121.351 48.4116 120.715 48.8054 120.715 49.2911Z" fill="black"/>
<path d="M81.8317 49.2911C81.8317 49.7768 82.4679 50.1706 83.2527 50.1706C84.0375 50.1706 84.6737 49.7768 84.6737 49.2911C84.6737 48.8054 84.0375 48.4116 83.2527 48.4116C82.4679 48.4116 81.8317 48.8054 81.8317 49.2911Z" fill="black"/>
<path d="M42.9486 49.2911C42.9486 49.7768 43.5848 50.1706 44.3696 50.1706C45.1544 50.1706 45.7906 49.7768 45.7906 49.2911C45.7906 48.8054 45.1544 48.4116 44.3696 48.4116C43.5848 48.4116 42.9486 48.8054 42.9486 49.2911Z" fill="black"/>
<path d="M4.06543 49.2911C4.06543 49.7768 4.70163 50.1706 5.48642 50.1706C6.27122 50.1706 6.90742 49.7768 6.90742 49.2911C6.90742 48.8054 6.27122 48.4116 5.48642 48.4116C4.70163 48.4116 4.06543 48.8054 4.06543 49.2911Z" fill="black"/>
<path d="M450.882 73.3564C450.882 73.9581 451.67 74.4459 452.642 74.4459C453.615 74.4459 454.403 73.9581 454.403 73.3564C454.403 72.7547 453.615 72.2669 452.642 72.2669C451.67 72.2669 450.882 72.7547 450.882 73.3564Z" fill="black"/>
<path d="M411.999 73.3564C411.999 73.9581 412.787 74.4459 413.759 74.4459C414.731 74.4459 415.52 73.9581 415.52 73.3564C415.52 72.7547 414.731 72.2669 413.759 72.2669C412.787 72.2669 411.999 72.7547 411.999 73.3564Z" fill="black"/>
<path d="M373.116 73.3564C373.116 73.9581 373.904 74.4459 374.876 74.4459C375.848 74.4459 376.636 73.9581 376.636 73.3564C376.636 72.7547 375.848 72.2669 374.876 72.2669C373.904 72.2669 373.116 72.7547 373.116 73.3564Z" fill="black"/>
<path d="M334.233 73.3564C334.233 73.9581 335.021 74.4459 335.993 74.4459C336.965 74.4459 337.753 73.9581 337.753 73.3564C337.753 72.7547 336.965 72.2669 335.993 72.2669C335.021 72.2669 334.233 72.7547 334.233 73.3564Z" fill="black"/>
<path d="M295.349 73.3564C295.349 73.9581 296.138 74.4459 297.11 74.4459C298.082 74.4459 298.87 73.9581 298.87 73.3564C298.87 72.7547 298.082 72.2669 297.11 72.2669C296.138 72.2669 295.349 72.7547 295.349 73.3564Z" fill="black"/>
<path d="M256.466 73.3564C256.466 73.9581 257.254 74.4459 258.227 74.4459C259.199 74.4459 259.987 73.9581 259.987 73.3564C259.987 72.7547 259.199 72.2669 258.227 72.2669C257.254 72.2669 256.466 72.7547 256.466 73.3564Z" fill="black"/>
<path d="M217.583 73.3564C217.583 73.9581 218.371 74.4459 219.344 74.4459C220.316 74.4459 221.104 73.9581 221.104 73.3564C221.104 72.7547 220.316 72.2669 219.344 72.2669C218.371 72.2669 217.583 72.7547 217.583 73.3564Z" fill="black"/>
<path d="M178.7 73.3564C178.7 73.9581 179.488 74.4459 180.46 74.4459C181.433 74.4459 182.221 73.9581 182.221 73.3564C182.221 72.7547 181.433 72.2669 180.46 72.2669C179.488 72.2669 178.7 72.7547 178.7 73.3564Z" fill="black"/>
<path d="M139.817 73.3564C139.817 73.9581 140.605 74.4459 141.577 74.4459C142.55 74.4459 143.338 73.9581 143.338 73.3564C143.338 72.7547 142.55 72.2669 141.577 72.2669C140.605 72.2669 139.817 72.7547 139.817 73.3564Z" fill="black"/>
<path d="M100.934 73.3564C100.934 73.9581 101.722 74.4459 102.694 74.4459C103.666 74.4459 104.455 73.9581 104.455 73.3564C104.455 72.7547 103.666 72.2669 102.694 72.2669C101.722 72.2669 100.934 72.7547 100.934 73.3564Z" fill="black"/>
<path d="M62.0508 73.3564C62.0508 73.9581 62.8389 74.4459 63.8111 74.4459C64.7833 74.4459 65.5714 73.9581 65.5714 73.3564C65.5714 72.7547 64.7833 72.2669 63.8111 72.2669C62.8389 72.2669 62.0508 72.7547 62.0508 73.3564Z" fill="black"/>
<path d="M23.1676 73.3564C23.1676 73.9581 23.9558 74.4459 24.928 74.4459C25.9002 74.4459 26.6883 73.9581 26.6883 73.3564C26.6883 72.7547 25.9002 72.2669 24.928 72.2669C23.9558 72.2669 23.1676 72.7547 23.1676 73.3564Z" fill="black"/>
<path d="M431.08 97.4217C431.08 98.1467 432.029 98.7344 433.201 98.7344C434.372 98.7344 435.322 98.1467 435.322 97.4217C435.322 96.6967 434.372 96.109 433.201 96.109C432.029 96.109 431.08 96.6967 431.08 97.4217Z" fill="black"/>
<path d="M392.197 97.4217C392.197 98.1467 393.146 98.7344 394.318 98.7344C395.489 98.7344 396.439 98.1467 396.439 97.4217C396.439 96.6967 395.489 96.109 394.318 96.109C393.146 96.109 392.197 96.6967 392.197 97.4217Z" fill="black"/>
<path d="M353.314 97.4217C353.314 98.1467 354.263 98.7344 355.434 98.7344C356.606 98.7344 357.555 98.1467 357.555 97.4217C357.555 96.6967 356.606 96.109 355.434 96.109C354.263 96.109 353.314 96.6967 353.314 97.4217Z" fill="black"/>
<path d="M314.43 97.4217C314.43 98.1467 315.38 98.7344 316.551 98.7344C317.723 98.7344 318.672 98.1467 318.672 97.4217C318.672 96.6967 317.723 96.109 316.551 96.109C315.38 96.109 314.43 96.6967 314.43 97.4217Z" fill="black"/>
<path d="M275.547 97.4217C275.547 98.1467 276.497 98.7344 277.668 98.7344C278.84 98.7344 279.789 98.1467 279.789 97.4217C279.789 96.6967 278.84 96.109 277.668 96.109C276.497 96.109 275.547 96.6967 275.547 97.4217Z" fill="black"/>
<path d="M236.664 97.4217C236.664 98.1467 237.614 98.7344 238.785 98.7344C239.956 98.7344 240.906 98.1467 240.906 97.4217C240.906 96.6967 239.956 96.109 238.785 96.109C237.614 96.109 236.664 96.6967 236.664 97.4217Z" fill="black"/>
<path d="M197.781 97.4217C197.781 98.1467 198.731 98.7344 199.902 98.7344C201.073 98.7344 202.023 98.1467 202.023 97.4217C202.023 96.6967 201.073 96.109 199.902 96.109C198.731 96.109 197.781 96.6967 197.781 97.4217Z" fill="black"/>
<path d="M158.898 97.4217C158.898 98.1467 159.848 98.7344 161.019 98.7344C162.19 98.7344 163.14 98.1467 163.14 97.4217C163.14 96.6967 162.19 96.109 161.019 96.109C159.848 96.109 158.898 96.6967 158.898 97.4217Z" fill="black"/>
<path d="M120.015 97.4217C120.015 98.1467 120.964 98.7344 122.136 98.7344C123.307 98.7344 124.257 98.1467 124.257 97.4217C124.257 96.6967 123.307 96.109 122.136 96.109C120.964 96.109 120.015 96.6967 120.015 97.4217Z" fill="black"/>
<path d="M81.1318 97.4217C81.1318 98.1467 82.0813 98.7344 83.2527 98.7344C84.424 98.7344 85.3736 98.1467 85.3736 97.4217C85.3736 96.6967 84.424 96.109 83.2527 96.109C82.0813 96.109 81.1318 96.6967 81.1318 97.4217Z" fill="black"/>
<path d="M42.2487 97.4217C42.2487 98.1467 43.1982 98.7344 44.3696 98.7344C45.5409 98.7344 46.4905 98.1467 46.4905 97.4217C46.4905 96.6967 45.5409 96.109 44.3696 96.109C43.1982 96.109 42.2487 96.6967 42.2487 97.4217Z" fill="black"/>
<path d="M3.36553 97.4217C3.36553 98.1467 4.31508 98.7344 5.48642 98.7344C6.65776 98.7344 7.60732 98.1467 7.60732 97.4217C7.60732 96.6967 6.65776 96.109 5.48642 96.109C4.31508 96.109 3.36553 96.6967 3.36553 97.4217Z" fill="black"/>
<path d="M450.161 121.487C450.161 122.335 451.272 123.023 452.642 123.023C454.013 123.023 455.124 122.335 455.124 121.487C455.124 120.639 454.013 119.951 452.642 119.951C451.272 119.951 450.161 120.639 450.161 121.487Z" fill="black"/>
<path d="M411.278 121.487C411.278 122.335 412.389 123.023 413.759 123.023C415.13 123.023 416.241 122.335 416.241 121.487C416.241 120.639 415.13 119.951 413.759 119.951C412.389 119.951 411.278 120.639 411.278 121.487Z" fill="black"/>
<path d="M372.395 121.487C372.395 122.335 373.506 123.023 374.876 123.023C376.247 123.023 377.357 122.335 377.357 121.487C377.357 120.639 376.247 119.951 374.876 119.951C373.506 119.951 372.395 120.639 372.395 121.487Z" fill="black"/>
<path d="M333.511 121.487C333.511 122.335 334.622 123.023 335.993 123.023C337.363 123.023 338.474 122.335 338.474 121.487C338.474 120.639 337.363 119.951 335.993 119.951C334.622 119.951 333.511 120.639 333.511 121.487Z" fill="black"/>
<path d="M294.628 121.487C294.628 122.335 295.739 123.023 297.11 123.023C298.48 123.023 299.591 122.335 299.591 121.487C299.591 120.639 298.48 119.951 297.11 119.951C295.739 119.951 294.628 120.639 294.628 121.487Z" fill="black"/>
<path d="M255.745 121.487C255.745 122.335 256.856 123.023 258.227 123.023C259.597 123.023 260.708 122.335 260.708 121.487C260.708 120.639 259.597 119.951 258.227 119.951C256.856 119.951 255.745 120.639 255.745 121.487Z" fill="black"/>
<path d="M216.862 121.487C216.862 122.335 217.973 123.023 219.344 123.023C220.714 123.023 221.825 122.335 221.825 121.487C221.825 120.639 220.714 119.951 219.344 119.951C217.973 119.951 216.862 120.639 216.862 121.487Z" fill="black"/>
<path d="M177.979 121.487C177.979 122.335 179.09 123.023 180.46 123.023C181.831 123.023 182.942 122.335 182.942 121.487C182.942 120.639 181.831 119.951 180.46 119.951C179.09 119.951 177.979 120.639 177.979 121.487Z" fill="black"/>
<path d="M139.096 121.487C139.096 122.335 140.207 123.023 141.577 123.023C142.948 123.023 144.059 122.335 144.059 121.487C144.059 120.639 142.948 119.951 141.577 119.951C140.207 119.951 139.096 120.639 139.096 121.487Z" fill="black"/>
<path d="M100.213 121.487C100.213 122.335 101.324 123.023 102.694 123.023C104.065 123.023 105.176 122.335 105.176 121.487C105.176 120.639 104.065 119.951 102.694 119.951C101.324 119.951 100.213 120.639 100.213 121.487Z" fill="black"/>
<path d="M61.3297 121.487C61.3297 122.335 62.4406 123.023 63.8111 123.023C65.1816 123.023 66.2925 122.335 66.2925 121.487C66.2925 120.639 65.1816 119.951 63.8111 119.951C62.4406 119.951 61.3297 120.639 61.3297 121.487Z" fill="black"/>
<path d="M22.4465 121.487C22.4465 122.335 23.5575 123.023 24.928 123.023C26.2985 123.023 27.4094 122.335 27.4094 121.487C27.4094 120.639 26.2985 119.951 24.928 119.951C23.5575 119.951 22.4465 120.639 22.4465 121.487Z" fill="black"/>
<path d="M430.38 145.552C430.38 146.517 431.643 147.298 433.201 147.298C434.759 147.298 436.022 146.517 436.022 145.552C436.022 144.588 434.759 143.806 433.201 143.806C431.643 143.806 430.38 144.588 430.38 145.552Z" fill="black"/>
<path d="M391.497 145.552C391.497 146.517 392.76 147.298 394.318 147.298C395.875 147.298 397.138 146.517 397.138 145.552C397.138 144.588 395.875 143.806 394.318 143.806C392.76 143.806 391.497 144.588 391.497 145.552Z" fill="black"/>
<path d="M352.614 145.552C352.614 146.517 353.877 147.298 355.434 147.298C356.992 147.298 358.255 146.517 358.255 145.552C358.255 144.588 356.992 143.806 355.434 143.806C353.877 143.806 352.614 144.588 352.614 145.552Z" fill="black"/>
<path d="M313.731 145.552C313.731 146.517 314.993 147.298 316.551 147.298C318.109 147.298 319.372 146.517 319.372 145.552C319.372 144.588 318.109 143.806 316.551 143.806C314.993 143.806 313.731 144.588 313.731 145.552Z" fill="black"/>
<path d="M274.847 145.552C274.847 146.517 276.11 147.298 277.668 147.298C279.226 147.298 280.489 146.517 280.489 145.552C280.489 144.588 279.226 143.806 277.668 143.806C276.11 143.806 274.847 144.588 274.847 145.552Z" fill="black"/>
<path d="M235.964 145.552C235.964 146.517 237.227 147.298 238.785 147.298C240.343 147.298 241.606 146.517 241.606 145.552C241.606 144.588 240.343 143.806 238.785 143.806C237.227 143.806 235.964 144.588 235.964 145.552Z" fill="black"/>
<path d="M197.081 145.552C197.081 146.517 198.344 147.298 199.902 147.298C201.46 147.298 202.723 146.517 202.723 145.552C202.723 144.588 201.46 143.806 199.902 143.806C198.344 143.806 197.081 144.588 197.081 145.552Z" fill="black"/>
<path d="M158.198 145.552C158.198 146.517 159.461 147.298 161.019 147.298C162.577 147.298 163.84 146.517 163.84 145.552C163.84 144.588 162.577 143.806 161.019 143.806C159.461 143.806 158.198 144.588 158.198 145.552Z" fill="black"/>
<path d="M119.315 145.552C119.315 146.517 120.578 147.298 122.136 147.298C123.694 147.298 124.957 146.517 124.957 145.552C124.957 144.588 123.694 143.806 122.136 143.806C120.578 143.806 119.315 144.588 119.315 145.552Z" fill="black"/>
<path d="M80.4319 145.552C80.4319 146.517 81.6948 147.298 83.2527 147.298C84.8105 147.298 86.0735 146.517 86.0735 145.552C86.0735 144.588 84.8105 143.806 83.2527 143.806C81.6948 143.806 80.4319 144.588 80.4319 145.552Z" fill="black"/>
<path d="M41.5488 145.552C41.5488 146.517 42.8117 147.298 44.3696 147.298C45.9274 147.298 47.1904 146.517 47.1904 145.552C47.1904 144.588 45.9274 143.806 44.3696 143.806C42.8117 143.806 41.5488 144.588 41.5488 145.552Z" fill="black"/>
<path d="M2.66563 145.552C2.66563 146.517 3.92854 147.298 5.48642 147.298C7.0443 147.298 8.30722 146.517 8.30722 145.552C8.30722 144.588 7.0443 143.806 5.48642 143.806C3.92854 143.806 2.66563 144.588 2.66563 145.552Z" fill="black"/>
<path d="M449.461 169.618C449.461 170.705 450.885 171.587 452.642 171.587C454.399 171.587 455.824 170.705 455.824 169.618C455.824 168.53 454.399 167.649 452.642 167.649C450.885 167.649 449.461 168.53 449.461 169.618Z" fill="black"/>
<path d="M410.578 169.618C410.578 170.705 412.002 171.587 413.759 171.587C415.516 171.587 416.941 170.705 416.941 169.618C416.941 168.53 415.516 167.649 413.759 167.649C412.002 167.649 410.578 168.53 410.578 169.618Z" fill="black"/>
<path d="M371.695 169.618C371.695 170.705 373.119 171.587 374.876 171.587C376.633 171.587 378.057 170.705 378.057 169.618C378.057 168.53 376.633 167.649 374.876 167.649C373.119 167.649 371.695 168.53 371.695 169.618Z" fill="black"/>
<path d="M332.812 169.618C332.812 170.705 334.236 171.587 335.993 171.587C337.75 171.587 339.174 170.705 339.174 169.618C339.174 168.53 337.75 167.649 335.993 167.649C334.236 167.649 332.812 168.53 332.812 169.618Z" fill="black"/>
<path d="M293.928 169.618C293.928 170.705 295.353 171.587 297.11 171.587C298.867 171.587 300.291 170.705 300.291 169.618C300.291 168.53 298.867 167.649 297.11 167.649C295.353 167.649 293.928 168.53 293.928 169.618Z" fill="black"/>
<path d="M255.045 169.618C255.045 170.705 256.47 171.587 258.227 171.587C259.984 171.587 261.408 170.705 261.408 169.618C261.408 168.53 259.984 167.649 258.227 167.649C256.47 167.649 255.045 168.53 255.045 169.618Z" fill="black"/>
<path d="M216.162 169.618C216.162 170.705 217.587 171.587 219.344 171.587C221.101 171.587 222.525 170.705 222.525 169.618C222.525 168.53 221.101 167.649 219.344 167.649C217.587 167.649 216.162 168.53 216.162 169.618Z" fill="black"/>
<path d="M177.279 169.618C177.279 170.705 178.703 171.587 180.46 171.587C182.217 171.587 183.642 170.705 183.642 169.618C183.642 168.53 182.217 167.649 180.46 167.649C178.703 167.649 177.279 168.53 177.279 169.618Z" fill="black"/>
<path d="M138.396 169.618C138.396 170.705 139.82 171.587 141.577 171.587C143.334 171.587 144.759 170.705 144.759 169.618C144.759 168.53 143.334 167.649 141.577 167.649C139.82 167.649 138.396 168.53 138.396 169.618Z" fill="black"/>
<path d="M99.5129 169.618C99.5129 170.705 100.937 171.587 102.694 171.587C104.451 171.587 105.876 170.705 105.876 169.618C105.876 168.53 104.451 167.649 102.694 167.649C100.937 167.649 99.5129 168.53 99.5129 169.618Z" fill="black"/>
<path d="M60.6298 169.618C60.6298 170.705 62.0541 171.587 63.8111 171.587C65.5681 171.587 66.9924 170.705 66.9924 169.618C66.9924 168.53 65.5681 167.649 63.8111 167.649C62.0541 167.649 60.6298 168.53 60.6298 169.618Z" fill="black"/>
<path d="M21.7466 169.618C21.7466 170.705 23.171 171.587 24.928 171.587C26.685 171.587 28.1093 170.705 28.1093 169.618C28.1093 168.53 26.685 167.649 24.928 167.649C23.171 167.649 21.7466 168.53 21.7466 169.618Z" fill="black"/>
<path d="M429.659 193.683C429.659 194.894 431.245 195.875 433.201 195.875C435.157 195.875 436.743 194.894 436.743 193.683C436.743 192.472 435.157 191.491 433.201 191.491C431.245 191.491 429.659 192.472 429.659 193.683Z" fill="black"/>
<path d="M390.776 193.683C390.776 194.894 392.361 195.875 394.318 195.875C396.274 195.875 397.86 194.894 397.86 193.683C397.86 192.472 396.274 191.491 394.318 191.491C392.361 191.491 390.776 192.472 390.776 193.683Z" fill="black"/>
<path d="M351.893 193.683C351.893 194.894 353.478 195.875 355.434 195.875C357.391 195.875 358.976 194.894 358.976 193.683C358.976 192.472 357.391 191.491 355.434 191.491C353.478 191.491 351.893 192.472 351.893 193.683Z" fill="black"/>
<path d="M313.009 193.683C313.009 194.894 314.595 195.875 316.551 195.875C318.508 195.875 320.093 194.894 320.093 193.683C320.093 192.472 318.508 191.491 316.551 191.491C314.595 191.491 313.009 192.472 313.009 193.683Z" fill="black"/>
<path d="M274.126 193.683C274.126 194.894 275.712 195.875 277.668 195.875C279.624 195.875 281.21 194.894 281.21 193.683C281.21 192.472 279.624 191.491 277.668 191.491C275.712 191.491 274.126 192.472 274.126 193.683Z" fill="black"/>
<path d="M235.243 193.683C235.243 194.894 236.829 195.875 238.785 195.875C240.741 195.875 242.327 194.894 242.327 193.683C242.327 192.472 240.741 191.491 238.785 191.491C236.829 191.491 235.243 192.472 235.243 193.683Z" fill="black"/>
<path d="M196.36 193.683C196.36 194.894 197.946 195.875 199.902 195.875C201.858 195.875 203.444 194.894 203.444 193.683C203.444 192.472 201.858 191.491 199.902 191.491C197.946 191.491 196.36 192.472 196.36 193.683Z" fill="black"/>
<path d="M157.477 193.683C157.477 194.894 159.063 195.875 161.019 195.875C162.975 195.875 164.561 194.894 164.561 193.683C164.561 192.472 162.975 191.491 161.019 191.491C159.063 191.491 157.477 192.472 157.477 193.683Z" fill="black"/>
<path d="M118.594 193.683C118.594 194.894 120.18 195.875 122.136 195.875C124.092 195.875 125.678 194.894 125.678 193.683C125.678 192.472 124.092 191.491 122.136 191.491C120.18 191.491 118.594 192.472 118.594 193.683Z" fill="black"/>
<path d="M79.7108 193.683C79.7108 194.894 81.2965 195.875 83.2527 195.875C85.2088 195.875 86.7946 194.894 86.7946 193.683C86.7946 192.472 85.2088 191.491 83.2527 191.491C81.2965 191.491 79.7108 192.472 79.7108 193.683Z" fill="black"/>
<path d="M40.8277 193.683C40.8277 194.894 42.4134 195.875 44.3696 195.875C46.3257 195.875 47.9115 194.894 47.9115 193.683C47.9115 192.472 46.3257 191.491 44.3696 191.491C42.4134 191.491 40.8277 192.472 40.8277 193.683Z" fill="black"/>
<path d="M1.94453 193.683C1.94453 194.894 3.53029 195.875 5.48642 195.875C7.44256 195.875 9.02832 194.894 9.02832 193.683C9.02832 192.472 7.44256 191.491 5.48642 191.491C3.53029 191.491 1.94453 192.472 1.94453 193.683Z" fill="black"/>
<path d="M448.761 217.748C448.761 219.075 450.499 220.15 452.642 220.15C454.786 220.15 456.524 219.075 456.524 217.748C456.524 216.422 454.786 215.346 452.642 215.346C450.499 215.346 448.761 216.422 448.761 217.748Z" fill="black"/>
<path d="M409.878 217.748C409.878 219.075 411.616 220.15 413.759 220.15C415.903 220.15 417.64 219.075 417.64 217.748C417.64 216.422 415.903 215.346 413.759 215.346C411.616 215.346 409.878 216.422 409.878 217.748Z" fill="black"/>
<path d="M370.995 217.748C370.995 219.075 372.732 220.15 374.876 220.15C377.02 220.15 378.757 219.075 378.757 217.748C378.757 216.422 377.02 215.346 374.876 215.346C372.732 215.346 370.995 216.422 370.995 217.748Z" fill="black"/>
<path d="M332.112 217.748C332.112 219.075 333.849 220.15 335.993 220.15C338.136 220.15 339.874 219.075 339.874 217.748C339.874 216.422 338.136 215.346 335.993 215.346C333.849 215.346 332.112 216.422 332.112 217.748Z" fill="black"/>
<path d="M293.229 217.748C293.229 219.075 294.966 220.15 297.11 220.15C299.253 220.15 300.991 219.075 300.991 217.748C300.991 216.422 299.253 215.346 297.11 215.346C294.966 215.346 293.229 216.422 293.229 217.748Z" fill="black"/>
<path d="M254.345 217.748C254.345 219.075 256.083 220.15 258.227 220.15C260.37 220.15 262.108 219.075 262.108 217.748C262.108 216.422 260.37 215.346 258.227 215.346C256.083 215.346 254.345 216.422 254.345 217.748Z" fill="black"/>
<path d="M215.462 217.748C215.462 219.075 217.2 220.15 219.344 220.15C221.487 220.15 223.225 219.075 223.225 217.748C223.225 216.422 221.487 215.346 219.344 215.346C217.2 215.346 215.462 216.422 215.462 217.748Z" fill="black"/>
<path d="M176.579 217.748C176.579 219.075 178.317 220.15 180.46 220.15C182.604 220.15 184.342 219.075 184.342 217.748C184.342 216.422 182.604 215.346 180.46 215.346C178.317 215.346 176.579 216.422 176.579 217.748Z" fill="black"/>
<path d="M137.696 217.748C137.696 219.075 139.434 220.15 141.577 220.15C143.721 220.15 145.459 219.075 145.459 217.748C145.459 216.422 143.721 215.346 141.577 215.346C139.434 215.346 137.696 216.422 137.696 217.748Z" fill="black"/>
<path d="M98.813 217.748C98.813 219.075 100.551 220.15 102.694 220.15C104.838 220.15 106.575 219.075 106.575 217.748C106.575 216.422 104.838 215.346 102.694 215.346C100.551 215.346 98.813 216.422 98.813 217.748Z" fill="black"/>
<path d="M59.9299 217.748C59.9299 219.075 61.6675 220.15 63.8111 220.15C65.9546 220.15 67.6923 219.075 67.6923 217.748C67.6923 216.422 65.9546 215.346 63.8111 215.346C61.6675 215.346 59.9299 216.422 59.9299 217.748Z" fill="black"/>
<path d="M21.0467 217.748C21.0467 219.075 22.7844 220.15 24.928 220.15C27.0715 220.15 28.8092 219.075 28.8092 217.748C28.8092 216.422 27.0715 215.346 24.928 215.346C22.7844 215.346 21.0467 216.422 21.0467 217.748Z" fill="black"/>
<path d="M428.959 241.814C428.959 243.263 430.858 244.439 433.201 244.439C435.543 244.439 437.443 243.263 437.443 241.814C437.443 240.364 435.543 239.188 433.201 239.188C430.858 239.188 428.959 240.364 428.959 241.814Z" fill="black"/>
<path d="M390.076 241.814C390.076 243.263 391.975 244.439 394.318 244.439C396.66 244.439 398.559 243.263 398.559 241.814C398.559 240.364 396.66 239.188 394.318 239.188C391.975 239.188 390.076 240.364 390.076 241.814Z" fill="black"/>
<path d="M351.193 241.814C351.193 243.263 353.092 244.439 355.434 244.439C357.777 244.439 359.676 243.263 359.676 241.814C359.676 240.364 357.777 239.188 355.434 239.188C353.092 239.188 351.193 240.364 351.193 241.814Z" fill="black"/>
<path d="M312.31 241.814C312.31 243.263 314.209 244.439 316.551 244.439C318.894 244.439 320.793 243.263 320.793 241.814C320.793 240.364 318.894 239.188 316.551 239.188C314.209 239.188 312.31 240.364 312.31 241.814Z" fill="black"/>
<path d="M273.426 241.814C273.426 243.263 275.326 244.439 277.668 244.439C280.011 244.439 281.91 243.263 281.91 241.814C281.91 240.364 280.011 239.188 277.668 239.188C275.326 239.188 273.426 240.364 273.426 241.814Z" fill="black"/>
<path d="M234.543 241.814C234.543 243.263 236.442 244.439 238.785 244.439C241.128 244.439 243.027 243.263 243.027 241.814C243.027 240.364 241.128 239.188 238.785 239.188C236.442 239.188 234.543 240.364 234.543 241.814Z" fill="black"/>
<path d="M195.66 241.814C195.66 243.263 197.559 244.439 199.902 244.439C202.245 244.439 204.144 243.263 204.144 241.814C204.144 240.364 202.245 239.188 199.902 239.188C197.559 239.188 195.66 240.364 195.66 241.814Z" fill="black"/>
<path d="M156.777 241.814C156.777 243.263 158.676 244.439 161.019 244.439C163.362 244.439 165.261 243.263 165.261 241.814C165.261 240.364 163.362 239.188 161.019 239.188C158.676 239.188 156.777 240.364 156.777 241.814Z" fill="black"/>
<path d="M117.894 241.814C117.894 243.263 119.793 244.439 122.136 244.439C124.478 244.439 126.378 243.263 126.378 241.814C126.378 240.364 124.478 239.188 122.136 239.188C119.793 239.188 117.894 240.364 117.894 241.814Z" fill="black"/>
<path d="M79.0109 241.814C79.0109 243.263 80.91 244.439 83.2527 244.439C85.5953 244.439 87.4945 243.263 87.4945 241.814C87.4945 240.364 85.5953 239.188 83.2527 239.188C80.91 239.188 79.0109 240.364 79.0109 241.814Z" fill="black"/>
<path d="M40.1278 241.814C40.1278 243.263 42.0269 244.439 44.3696 244.439C46.7122 244.439 48.6114 243.263 48.6114 241.814C48.6114 240.364 46.7122 239.188 44.3696 239.188C42.0269 239.188 40.1278 240.364 40.1278 241.814Z" fill="black"/>
<path d="M1.24463 241.814C1.24463 243.263 3.14375 244.439 5.48642 244.439C7.8291 244.439 9.72822 243.263 9.72822 241.814C9.72822 240.364 7.8291 239.188 5.48642 239.188C3.14375 239.188 1.24463 240.364 1.24463 241.814Z" fill="black"/>
<path d="M448.04 265.879C448.04 267.452 450.1 268.727 452.642 268.727C455.184 268.727 457.245 267.452 457.245 265.879C457.245 264.306 455.184 263.03 452.642 263.03C450.1 263.03 448.04 264.306 448.04 265.879Z" fill="black"/>
<path d="M409.157 265.879C409.157 267.452 411.217 268.727 413.759 268.727C416.301 268.727 418.362 267.452 418.362 265.879C418.362 264.306 416.301 263.03 413.759 263.03C411.217 263.03 409.157 264.306 409.157 265.879Z" fill="black"/>
<path d="M370.274 265.879C370.274 267.452 372.334 268.727 374.876 268.727C377.418 268.727 379.478 267.452 379.478 265.879C379.478 264.306 377.418 263.03 374.876 263.03C372.334 263.03 370.274 264.306 370.274 265.879Z" fill="black"/>
<path d="M331.391 265.879C331.391 267.452 333.451 268.727 335.993 268.727C338.535 268.727 340.595 267.452 340.595 265.879C340.595 264.306 338.535 263.03 335.993 263.03C333.451 263.03 331.391 264.306 331.391 265.879Z" fill="black"/>
<path d="M292.507 265.879C292.507 267.452 294.568 268.727 297.11 268.727C299.652 268.727 301.712 267.452 301.712 265.879C301.712 264.306 299.652 263.03 297.11 263.03C294.568 263.03 292.507 264.306 292.507 265.879Z" fill="black"/>
<path d="M253.624 265.879C253.624 267.452 255.685 268.727 258.227 268.727C260.769 268.727 262.829 267.452 262.829 265.879C262.829 264.306 260.769 263.03 258.227 263.03C255.685 263.03 253.624 264.306 253.624 265.879Z" fill="black"/>
<path d="M214.741 265.879C214.741 267.452 216.802 268.727 219.344 268.727C221.885 268.727 223.946 267.452 223.946 265.879C223.946 264.306 221.885 263.03 219.344 263.03C216.802 263.03 214.741 264.306 214.741 265.879Z" fill="black"/>
<path d="M175.858 265.879C175.858 267.452 177.919 268.727 180.46 268.727C183.002 268.727 185.063 267.452 185.063 265.879C185.063 264.306 183.002 263.03 180.46 263.03C177.919 263.03 175.858 264.306 175.858 265.879Z" fill="black"/>
<path d="M136.975 265.879C136.975 267.452 139.036 268.727 141.577 268.727C144.119 268.727 146.18 267.452 146.18 265.879C146.18 264.306 144.119 263.03 141.577 263.03C139.036 263.03 136.975 264.306 136.975 265.879Z" fill="black"/>
<path d="M98.0919 265.879C98.0919 267.452 100.152 268.727 102.694 268.727C105.236 268.727 107.297 267.452 107.297 265.879C107.297 264.306 105.236 263.03 102.694 263.03C100.152 263.03 98.0919 264.306 98.0919 265.879Z" fill="black"/>
<path d="M59.2088 265.879C59.2088 267.452 61.2693 268.727 63.8111 268.727C66.3529 268.727 68.4134 267.452 68.4134 265.879C68.4134 264.306 66.3529 263.03 63.8111 263.03C61.2693 263.03 59.2088 264.306 59.2088 265.879Z" fill="black"/>
<path d="M20.3256 265.879C20.3256 267.452 22.3862 268.727 24.928 268.727C27.4698 268.727 29.5303 267.452 29.5303 265.879C29.5303 264.306 27.4698 263.03 24.928 263.03C22.3862 263.03 20.3256 264.306 20.3256 265.879Z" fill="black"/>
<path d="M432.501 1.16047C432.501 1.39971 432.814 1.59365 433.201 1.59365C433.587 1.59365 433.901 1.39971 433.901 1.16047C433.901 0.921234 433.587 0.727295 433.201 0.727295C432.814 0.727295 432.501 0.921234 432.501 1.16047Z" stroke="black"/>
<path d="M393.618 1.16047C393.618 1.39971 393.931 1.59365 394.318 1.59365C394.704 1.59365 395.018 1.39971 395.018 1.16047C395.018 0.921234 394.704 0.727295 394.318 0.727295C393.931 0.727295 393.618 0.921234 393.618 1.16047Z" stroke="black"/>
<path d="M354.735 1.16047C354.735 1.39971 355.048 1.59365 355.434 1.59365C355.821 1.59365 356.134 1.39971 356.134 1.16047C356.134 0.921234 355.821 0.727295 355.434 0.727295C355.048 0.727295 354.735 0.921234 354.735 1.16047Z" stroke="black"/>
<path d="M315.851 1.16047C315.851 1.39971 316.165 1.59365 316.551 1.59365C316.938 1.59365 317.251 1.39971 317.251 1.16047C317.251 0.921234 316.938 0.727295 316.551 0.727295C316.165 0.727295 315.851 0.921234 315.851 1.16047Z" stroke="black"/>
<path d="M276.968 1.16047C276.968 1.39971 277.282 1.59365 277.668 1.59365C278.055 1.59365 278.368 1.39971 278.368 1.16047C278.368 0.921234 278.055 0.727295 277.668 0.727295C277.282 0.727295 276.968 0.921234 276.968 1.16047Z" stroke="black"/>
<path d="M238.085 1.16047C238.085 1.39971 238.399 1.59365 238.785 1.59365C239.172 1.59365 239.485 1.39971 239.485 1.16047C239.485 0.921234 239.172 0.727295 238.785 0.727295C238.399 0.727295 238.085 0.921234 238.085 1.16047Z" stroke="black"/>
<path d="M199.202 1.16047C199.202 1.39971 199.515 1.59365 199.902 1.59365C200.289 1.59365 200.602 1.39971 200.602 1.16047C200.602 0.921234 200.289 0.727295 199.902 0.727295C199.515 0.727295 199.202 0.921234 199.202 1.16047Z" stroke="black"/>
<path d="M160.319 1.16047C160.319 1.39971 160.632 1.59365 161.019 1.59365C161.405 1.59365 161.719 1.39971 161.719 1.16047C161.719 0.921234 161.405 0.727295 161.019 0.727295C160.632 0.727295 160.319 0.921234 160.319 1.16047Z" stroke="black"/>
<path d="M121.436 1.16047C121.436 1.39971 121.749 1.59365 122.136 1.59365C122.522 1.59365 122.836 1.39971 122.836 1.16047C122.836 0.921234 122.522 0.727295 122.136 0.727295C121.749 0.727295 121.436 0.921234 121.436 1.16047Z" stroke="black"/>
<path d="M82.5528 1.16047C82.5528 1.39971 82.8661 1.59365 83.2527 1.59365C83.6392 1.59365 83.9526 1.39971 83.9526 1.16047C83.9526 0.921234 83.6392 0.727295 83.2527 0.727295C82.8661 0.727295 82.5528 0.921234 82.5528 1.16047Z" stroke="black"/>
<path d="M43.6697 1.16047C43.6697 1.39971 43.983 1.59365 44.3696 1.59365C44.7561 1.59365 45.0695 1.39971 45.0695 1.16047C45.0695 0.921234 44.7561 0.727295 44.3696 0.727295C43.983 0.727295 43.6697 0.921234 43.6697 1.16047Z" stroke="black"/>
<path d="M4.78652 1.16047C4.78652 1.39971 5.09988 1.59365 5.48642 1.59365C5.87297 1.59365 6.18632 1.39971 6.18632 1.16047C6.18632 0.921234 5.87297 0.727295 5.48642 0.727295C5.09988 0.727295 4.78652 0.921234 4.78652 1.16047Z" stroke="black"/>
<path d="M451.582 25.2258C451.582 25.5883 452.057 25.8821 452.642 25.8821C453.228 25.8821 453.703 25.5883 453.703 25.2258C453.703 24.8633 453.228 24.5695 452.642 24.5695C452.057 24.5695 451.582 24.8633 451.582 25.2258Z" stroke="black"/>
<path d="M412.699 25.2258C412.699 25.5883 413.174 25.8821 413.759 25.8821C414.345 25.8821 414.82 25.5883 414.82 25.2258C414.82 24.8633 414.345 24.5695 413.759 24.5695C413.174 24.5695 412.699 24.8633 412.699 25.2258Z" stroke="black"/>
<path d="M373.816 25.2258C373.816 25.5883 374.29 25.8821 374.876 25.8821C375.462 25.8821 375.936 25.5883 375.936 25.2258C375.936 24.8633 375.462 24.5695 374.876 24.5695C374.29 24.5695 373.816 24.8633 373.816 25.2258Z" stroke="black"/>
<path d="M334.932 25.2258C334.932 25.5883 335.407 25.8821 335.993 25.8821C336.579 25.8821 337.053 25.5883 337.053 25.2258C337.053 24.8633 336.579 24.5695 335.993 24.5695C335.407 24.5695 334.932 24.8633 334.932 25.2258Z" stroke="black"/>
<path d="M296.049 25.2258C296.049 25.5883 296.524 25.8821 297.11 25.8821C297.695 25.8821 298.17 25.5883 298.17 25.2258C298.17 24.8633 297.695 24.5695 297.11 24.5695C296.524 24.5695 296.049 24.8633 296.049 25.2258Z" stroke="black"/>
<path d="M257.166 25.2258C257.166 25.5883 257.641 25.8821 258.227 25.8821C258.812 25.8821 259.287 25.5883 259.287 25.2258C259.287 24.8633 258.812 24.5695 258.227 24.5695C257.641 24.5695 257.166 24.8633 257.166 25.2258Z" stroke="black"/>
<path d="M218.283 25.2258C218.283 25.5883 218.758 25.8821 219.344 25.8821C219.929 25.8821 220.404 25.5883 220.404 25.2258C220.404 24.8633 219.929 24.5695 219.344 24.5695C218.758 24.5695 218.283 24.8633 218.283 25.2258Z" stroke="black"/>
<path d="M179.4 25.2258C179.4 25.5883 179.875 25.8821 180.46 25.8821C181.046 25.8821 181.521 25.5883 181.521 25.2258C181.521 24.8633 181.046 24.5695 180.46 24.5695C179.875 24.5695 179.4 24.8633 179.4 25.2258Z" stroke="black"/>
<path d="M140.517 25.2258C140.517 25.5883 140.992 25.8821 141.577 25.8821C142.163 25.8821 142.638 25.5883 142.638 25.2258C142.638 24.8633 142.163 24.5695 141.577 24.5695C140.992 24.5695 140.517 24.8633 140.517 25.2258Z" stroke="black"/>
<path d="M101.634 25.2258C101.634 25.5883 102.109 25.8821 102.694 25.8821C103.28 25.8821 103.755 25.5883 103.755 25.2258C103.755 24.8633 103.28 24.5695 102.694 24.5695C102.109 24.5695 101.634 24.8633 101.634 25.2258Z" stroke="black"/>
<path d="M62.7507 25.2258C62.7507 25.5883 63.2254 25.8821 63.8111 25.8821C64.3968 25.8821 64.8715 25.5883 64.8715 25.2258C64.8715 24.8633 64.3968 24.5695 63.8111 24.5695C63.2254 24.5695 62.7507 24.8633 62.7507 25.2258Z" stroke="black"/>
<path d="M23.8675 25.2258C23.8675 25.5883 24.3423 25.8821 24.928 25.8821C25.5137 25.8821 25.9884 25.5883 25.9884 25.2258C25.9884 24.8633 25.5137 24.5695 24.928 24.5695C24.3423 24.5695 23.8675 24.8633 23.8675 25.2258Z" stroke="black"/>
<path d="M431.78 49.2911C431.78 49.7768 432.416 50.1706 433.201 50.1706C433.986 50.1706 434.622 49.7768 434.622 49.2911C434.622 48.8054 433.986 48.4116 433.201 48.4116C432.416 48.4116 431.78 48.8054 431.78 49.2911Z" stroke="black"/>
<path d="M392.897 49.2911C392.897 49.7768 393.533 50.1706 394.318 50.1706C395.102 50.1706 395.739 49.7768 395.739 49.2911C395.739 48.8054 395.102 48.4116 394.318 48.4116C393.533 48.4116 392.897 48.8054 392.897 49.2911Z" stroke="black"/>
<path d="M354.014 49.2911C354.014 49.7768 354.65 50.1706 355.434 50.1706C356.219 50.1706 356.856 49.7768 356.856 49.2911C356.856 48.8054 356.219 48.4116 355.434 48.4116C354.65 48.4116 354.014 48.8054 354.014 49.2911Z" stroke="black"/>
<path d="M315.13 49.2911C315.13 49.7768 315.767 50.1706 316.551 50.1706C317.336 50.1706 317.972 49.7768 317.972 49.2911C317.972 48.8054 317.336 48.4116 316.551 48.4116C315.767 48.4116 315.13 48.8054 315.13 49.2911Z" stroke="black"/>
<path d="M276.247 49.2911C276.247 49.7768 276.883 50.1706 277.668 50.1706C278.453 50.1706 279.089 49.7768 279.089 49.2911C279.089 48.8054 278.453 48.4116 277.668 48.4116C276.883 48.4116 276.247 48.8054 276.247 49.2911Z" stroke="black"/>
<path d="M237.364 49.2911C237.364 49.7768 238 50.1706 238.785 50.1706C239.57 50.1706 240.206 49.7768 240.206 49.2911C240.206 48.8054 239.57 48.4116 238.785 48.4116C238 48.4116 237.364 48.8054 237.364 49.2911Z" stroke="black"/>
<path d="M198.481 49.2911C198.481 49.7768 199.117 50.1706 199.902 50.1706C200.687 50.1706 201.323 49.7768 201.323 49.2911C201.323 48.8054 200.687 48.4116 199.902 48.4116C199.117 48.4116 198.481 48.8054 198.481 49.2911Z" stroke="black"/>
<path d="M159.598 49.2911C159.598 49.7768 160.234 50.1706 161.019 50.1706C161.804 50.1706 162.44 49.7768 162.44 49.2911C162.44 48.8054 161.804 48.4116 161.019 48.4116C160.234 48.4116 159.598 48.8054 159.598 49.2911Z" stroke="black"/>
<path d="M120.715 49.2911C120.715 49.7768 121.351 50.1706 122.136 50.1706C122.921 50.1706 123.557 49.7768 123.557 49.2911C123.557 48.8054 122.921 48.4116 122.136 48.4116C121.351 48.4116 120.715 48.8054 120.715 49.2911Z" stroke="black"/>
<path d="M81.8317 49.2911C81.8317 49.7768 82.4679 50.1706 83.2527 50.1706C84.0375 50.1706 84.6737 49.7768 84.6737 49.2911C84.6737 48.8054 84.0375 48.4116 83.2527 48.4116C82.4679 48.4116 81.8317 48.8054 81.8317 49.2911Z" stroke="black"/>
<path d="M42.9486 49.2911C42.9486 49.7768 43.5848 50.1706 44.3696 50.1706C45.1544 50.1706 45.7906 49.7768 45.7906 49.2911C45.7906 48.8054 45.1544 48.4116 44.3696 48.4116C43.5848 48.4116 42.9486 48.8054 42.9486 49.2911Z" stroke="black"/>
<path d="M4.06543 49.2911C4.06543 49.7768 4.70163 50.1706 5.48642 50.1706C6.27122 50.1706 6.90742 49.7768 6.90742 49.2911C6.90742 48.8054 6.27122 48.4116 5.48642 48.4116C4.70163 48.4116 4.06543 48.8054 4.06543 49.2911Z" stroke="black"/>
<path d="M450.882 73.3564C450.882 73.9581 451.67 74.4459 452.642 74.4459C453.615 74.4459 454.403 73.9581 454.403 73.3564C454.403 72.7547 453.615 72.2669 452.642 72.2669C451.67 72.2669 450.882 72.7547 450.882 73.3564Z" stroke="black"/>
<path d="M411.999 73.3564C411.999 73.9581 412.787 74.4459 413.759 74.4459C414.731 74.4459 415.52 73.9581 415.52 73.3564C415.52 72.7547 414.731 72.2669 413.759 72.2669C412.787 72.2669 411.999 72.7547 411.999 73.3564Z" stroke="black"/>
<path d="M373.116 73.3564C373.116 73.9581 373.904 74.4459 374.876 74.4459C375.848 74.4459 376.636 73.9581 376.636 73.3564C376.636 72.7547 375.848 72.2669 374.876 72.2669C373.904 72.2669 373.116 72.7547 373.116 73.3564Z" stroke="black"/>
<path d="M334.233 73.3564C334.233 73.9581 335.021 74.4459 335.993 74.4459C336.965 74.4459 337.753 73.9581 337.753 73.3564C337.753 72.7547 336.965 72.2669 335.993 72.2669C335.021 72.2669 334.233 72.7547 334.233 73.3564Z" stroke="black"/>
<path d="M295.349 73.3564C295.349 73.9581 296.138 74.4459 297.11 74.4459C298.082 74.4459 298.87 73.9581 298.87 73.3564C298.87 72.7547 298.082 72.2669 297.11 72.2669C296.138 72.2669 295.349 72.7547 295.349 73.3564Z" stroke="black"/>
<path d="M256.466 73.3564C256.466 73.9581 257.254 74.4459 258.227 74.4459C259.199 74.4459 259.987 73.9581 259.987 73.3564C259.987 72.7547 259.199 72.2669 258.227 72.2669C257.254 72.2669 256.466 72.7547 256.466 73.3564Z" stroke="black"/>
<path d="M217.583 73.3564C217.583 73.9581 218.371 74.4459 219.344 74.4459C220.316 74.4459 221.104 73.9581 221.104 73.3564C221.104 72.7547 220.316 72.2669 219.344 72.2669C218.371 72.2669 217.583 72.7547 217.583 73.3564Z" stroke="black"/>
<path d="M178.7 73.3564C178.7 73.9581 179.488 74.4459 180.46 74.4459C181.433 74.4459 182.221 73.9581 182.221 73.3564C182.221 72.7547 181.433 72.2669 180.46 72.2669C179.488 72.2669 178.7 72.7547 178.7 73.3564Z" stroke="black"/>
<path d="M139.817 73.3564C139.817 73.9581 140.605 74.4459 141.577 74.4459C142.55 74.4459 143.338 73.9581 143.338 73.3564C143.338 72.7547 142.55 72.2669 141.577 72.2669C140.605 72.2669 139.817 72.7547 139.817 73.3564Z" stroke="black"/>
<path d="M100.934 73.3564C100.934 73.9581 101.722 74.4459 102.694 74.4459C103.666 74.4459 104.455 73.9581 104.455 73.3564C104.455 72.7547 103.666 72.2669 102.694 72.2669C101.722 72.2669 100.934 72.7547 100.934 73.3564Z" stroke="black"/>
<path d="M62.0508 73.3564C62.0508 73.9581 62.8389 74.4459 63.8111 74.4459C64.7833 74.4459 65.5714 73.9581 65.5714 73.3564C65.5714 72.7547 64.7833 72.2669 63.8111 72.2669C62.8389 72.2669 62.0508 72.7547 62.0508 73.3564Z" stroke="black"/>
<path d="M23.1676 73.3564C23.1676 73.9581 23.9558 74.4459 24.928 74.4459C25.9002 74.4459 26.6883 73.9581 26.6883 73.3564C26.6883 72.7547 25.9002 72.2669 24.928 72.2669C23.9558 72.2669 23.1676 72.7547 23.1676 73.3564Z" stroke="black"/>
<path d="M431.08 97.4217C431.08 98.1467 432.029 98.7344 433.201 98.7344C434.372 98.7344 435.322 98.1467 435.322 97.4217C435.322 96.6967 434.372 96.109 433.201 96.109C432.029 96.109 431.08 96.6967 431.08 97.4217Z" stroke="black"/>
<path d="M392.197 97.4217C392.197 98.1467 393.146 98.7344 394.318 98.7344C395.489 98.7344 396.439 98.1467 396.439 97.4217C396.439 96.6967 395.489 96.109 394.318 96.109C393.146 96.109 392.197 96.6967 392.197 97.4217Z" stroke="black"/>
<path d="M353.314 97.4217C353.314 98.1467 354.263 98.7344 355.434 98.7344C356.606 98.7344 357.555 98.1467 357.555 97.4217C357.555 96.6967 356.606 96.109 355.434 96.109C354.263 96.109 353.314 96.6967 353.314 97.4217Z" stroke="black"/>
<path d="M314.43 97.4217C314.43 98.1467 315.38 98.7344 316.551 98.7344C317.723 98.7344 318.672 98.1467 318.672 97.4217C318.672 96.6967 317.723 96.109 316.551 96.109C315.38 96.109 314.43 96.6967 314.43 97.4217Z" stroke="black"/>
<path d="M275.547 97.4217C275.547 98.1467 276.497 98.7344 277.668 98.7344C278.84 98.7344 279.789 98.1467 279.789 97.4217C279.789 96.6967 278.84 96.109 277.668 96.109C276.497 96.109 275.547 96.6967 275.547 97.4217Z" stroke="black"/>
<path d="M236.664 97.4217C236.664 98.1467 237.614 98.7344 238.785 98.7344C239.956 98.7344 240.906 98.1467 240.906 97.4217C240.906 96.6967 239.956 96.109 238.785 96.109C237.614 96.109 236.664 96.6967 236.664 97.4217Z" stroke="black"/>
<path d="M197.781 97.4217C197.781 98.1467 198.731 98.7344 199.902 98.7344C201.073 98.7344 202.023 98.1467 202.023 97.4217C202.023 96.6967 201.073 96.109 199.902 96.109C198.731 96.109 197.781 96.6967 197.781 97.4217Z" stroke="black"/>
<path d="M158.898 97.4217C158.898 98.1467 159.848 98.7344 161.019 98.7344C162.19 98.7344 163.14 98.1467 163.14 97.4217C163.14 96.6967 162.19 96.109 161.019 96.109C159.848 96.109 158.898 96.6967 158.898 97.4217Z" stroke="black"/>
<path d="M120.015 97.4217C120.015 98.1467 120.964 98.7344 122.136 98.7344C123.307 98.7344 124.257 98.1467 124.257 97.4217C124.257 96.6967 123.307 96.109 122.136 96.109C120.964 96.109 120.015 96.6967 120.015 97.4217Z" stroke="black"/>
<path d="M81.1318 97.4217C81.1318 98.1467 82.0813 98.7344 83.2527 98.7344C84.424 98.7344 85.3736 98.1467 85.3736 97.4217C85.3736 96.6967 84.424 96.109 83.2527 96.109C82.0813 96.109 81.1318 96.6967 81.1318 97.4217Z" stroke="black"/>
<path d="M42.2487 97.4217C42.2487 98.1467 43.1982 98.7344 44.3696 98.7344C45.5409 98.7344 46.4905 98.1467 46.4905 97.4217C46.4905 96.6967 45.5409 96.109 44.3696 96.109C43.1982 96.109 42.2487 96.6967 42.2487 97.4217Z" stroke="black"/>
<path d="M3.36553 97.4217C3.36553 98.1467 4.31508 98.7344 5.48642 98.7344C6.65776 98.7344 7.60732 98.1467 7.60732 97.4217C7.60732 96.6967 6.65776 96.109 5.48642 96.109C4.31508 96.109 3.36553 96.6967 3.36553 97.4217Z" stroke="black"/>
<path d="M450.161 121.487C450.161 122.335 451.272 123.023 452.642 123.023C454.013 123.023 455.124 122.335 455.124 121.487C455.124 120.639 454.013 119.951 452.642 119.951C451.272 119.951 450.161 120.639 450.161 121.487Z" stroke="black"/>
<path d="M411.278 121.487C411.278 122.335 412.389 123.023 413.759 123.023C415.13 123.023 416.241 122.335 416.241 121.487C416.241 120.639 415.13 119.951 413.759 119.951C412.389 119.951 411.278 120.639 411.278 121.487Z" stroke="black"/>
<path d="M372.395 121.487C372.395 122.335 373.506 123.023 374.876 123.023C376.247 123.023 377.357 122.335 377.357 121.487C377.357 120.639 376.247 119.951 374.876 119.951C373.506 119.951 372.395 120.639 372.395 121.487Z" stroke="black"/>
<path d="M333.511 121.487C333.511 122.335 334.622 123.023 335.993 123.023C337.363 123.023 338.474 122.335 338.474 121.487C338.474 120.639 337.363 119.951 335.993 119.951C334.622 119.951 333.511 120.639 333.511 121.487Z" stroke="black"/>
<path d="M294.628 121.487C294.628 122.335 295.739 123.023 297.11 123.023C298.48 123.023 299.591 122.335 299.591 121.487C299.591 120.639 298.48 119.951 297.11 119.951C295.739 119.951 294.628 120.639 294.628 121.487Z" stroke="black"/>
<path d="M255.745 121.487C255.745 122.335 256.856 123.023 258.227 123.023C259.597 123.023 260.708 122.335 260.708 121.487C260.708 120.639 259.597 119.951 258.227 119.951C256.856 119.951 255.745 120.639 255.745 121.487Z" stroke="black"/>
<path d="M216.862 121.487C216.862 122.335 217.973 123.023 219.344 123.023C220.714 123.023 221.825 122.335 221.825 121.487C221.825 120.639 220.714 119.951 219.344 119.951C217.973 119.951 216.862 120.639 216.862 121.487Z" stroke="black"/>
<path d="M177.979 121.487C177.979 122.335 179.09 123.023 180.46 123.023C181.831 123.023 182.942 122.335 182.942 121.487C182.942 120.639 181.831 119.951 180.46 119.951C179.09 119.951 177.979 120.639 177.979 121.487Z" stroke="black"/>
<path d="M139.096 121.487C139.096 122.335 140.207 123.023 141.577 123.023C142.948 123.023 144.059 122.335 144.059 121.487C144.059 120.639 142.948 119.951 141.577 119.951C140.207 119.951 139.096 120.639 139.096 121.487Z" stroke="black"/>
<path d="M100.213 121.487C100.213 122.335 101.324 123.023 102.694 123.023C104.065 123.023 105.176 122.335 105.176 121.487C105.176 120.639 104.065 119.951 102.694 119.951C101.324 119.951 100.213 120.639 100.213 121.487Z" stroke="black"/>
<path d="M61.3297 121.487C61.3297 122.335 62.4406 123.023 63.8111 123.023C65.1816 123.023 66.2925 122.335 66.2925 121.487C66.2925 120.639 65.1816 119.951 63.8111 119.951C62.4406 119.951 61.3297 120.639 61.3297 121.487Z" stroke="black"/>
<path d="M22.4465 121.487C22.4465 122.335 23.5575 123.023 24.928 123.023C26.2985 123.023 27.4094 122.335 27.4094 121.487C27.4094 120.639 26.2985 119.951 24.928 119.951C23.5575 119.951 22.4465 120.639 22.4465 121.487Z" stroke="black"/>
<path d="M430.38 145.552C430.38 146.517 431.643 147.298 433.201 147.298C434.759 147.298 436.022 146.517 436.022 145.552C436.022 144.588 434.759 143.806 433.201 143.806C431.643 143.806 430.38 144.588 430.38 145.552Z" stroke="black"/>
<path d="M391.497 145.552C391.497 146.517 392.76 147.298 394.318 147.298C395.875 147.298 397.138 146.517 397.138 145.552C397.138 144.588 395.875 143.806 394.318 143.806C392.76 143.806 391.497 144.588 391.497 145.552Z" stroke="black"/>
<path d="M352.614 145.552C352.614 146.517 353.877 147.298 355.434 147.298C356.992 147.298 358.255 146.517 358.255 145.552C358.255 144.588 356.992 143.806 355.434 143.806C353.877 143.806 352.614 144.588 352.614 145.552Z" stroke="black"/>
<path d="M313.731 145.552C313.731 146.517 314.993 147.298 316.551 147.298C318.109 147.298 319.372 146.517 319.372 145.552C319.372 144.588 318.109 143.806 316.551 143.806C314.993 143.806 313.731 144.588 313.731 145.552Z" stroke="black"/>
<path d="M274.847 145.552C274.847 146.517 276.11 147.298 277.668 147.298C279.226 147.298 280.489 146.517 280.489 145.552C280.489 144.588 279.226 143.806 277.668 143.806C276.11 143.806 274.847 144.588 274.847 145.552Z" stroke="black"/>
<path d="M235.964 145.552C235.964 146.517 237.227 147.298 238.785 147.298C240.343 147.298 241.606 146.517 241.606 145.552C241.606 144.588 240.343 143.806 238.785 143.806C237.227 143.806 235.964 144.588 235.964 145.552Z" stroke="black"/>
<path d="M197.081 145.552C197.081 146.517 198.344 147.298 199.902 147.298C201.46 147.298 202.723 146.517 202.723 145.552C202.723 144.588 201.46 143.806 199.902 143.806C198.344 143.806 197.081 144.588 197.081 145.552Z" stroke="black"/>
<path d="M158.198 145.552C158.198 146.517 159.461 147.298 161.019 147.298C162.577 147.298 163.84 146.517 163.84 145.552C163.84 144.588 162.577 143.806 161.019 143.806C159.461 143.806 158.198 144.588 158.198 145.552Z" stroke="black"/>
<path d="M119.315 145.552C119.315 146.517 120.578 147.298 122.136 147.298C123.694 147.298 124.957 146.517 124.957 145.552C124.957 144.588 123.694 143.806 122.136 143.806C120.578 143.806 119.315 144.588 119.315 145.552Z" stroke="black"/>
<path d="M80.4319 145.552C80.4319 146.517 81.6948 147.298 83.2527 147.298C84.8105 147.298 86.0735 146.517 86.0735 145.552C86.0735 144.588 84.8105 143.806 83.2527 143.806C81.6948 143.806 80.4319 144.588 80.4319 145.552Z" stroke="black"/>
<path d="M41.5488 145.552C41.5488 146.517 42.8117 147.298 44.3696 147.298C45.9274 147.298 47.1904 146.517 47.1904 145.552C47.1904 144.588 45.9274 143.806 44.3696 143.806C42.8117 143.806 41.5488 144.588 41.5488 145.552Z" stroke="black"/>
<path d="M2.66563 145.552C2.66563 146.517 3.92854 147.298 5.48642 147.298C7.0443 147.298 8.30722 146.517 8.30722 145.552C8.30722 144.588 7.0443 143.806 5.48642 143.806C3.92854 143.806 2.66563 144.588 2.66563 145.552Z" stroke="black"/>
<path d="M449.461 169.618C449.461 170.705 450.885 171.587 452.642 171.587C454.399 171.587 455.824 170.705 455.824 169.618C455.824 168.53 454.399 167.649 452.642 167.649C450.885 167.649 449.461 168.53 449.461 169.618Z" stroke="black"/>
<path d="M410.578 169.618C410.578 170.705 412.002 171.587 413.759 171.587C415.516 171.587 416.941 170.705 416.941 169.618C416.941 168.53 415.516 167.649 413.759 167.649C412.002 167.649 410.578 168.53 410.578 169.618Z" stroke="black"/>
<path d="M371.695 169.618C371.695 170.705 373.119 171.587 374.876 171.587C376.633 171.587 378.057 170.705 378.057 169.618C378.057 168.53 376.633 167.649 374.876 167.649C373.119 167.649 371.695 168.53 371.695 169.618Z" stroke="black"/>
<path d="M332.812 169.618C332.812 170.705 334.236 171.587 335.993 171.587C337.75 171.587 339.174 170.705 339.174 169.618C339.174 168.53 337.75 167.649 335.993 167.649C334.236 167.649 332.812 168.53 332.812 169.618Z" stroke="black"/>
<path d="M293.928 169.618C293.928 170.705 295.353 171.587 297.11 171.587C298.867 171.587 300.291 170.705 300.291 169.618C300.291 168.53 298.867 167.649 297.11 167.649C295.353 167.649 293.928 168.53 293.928 169.618Z" stroke="black"/>
<path d="M255.045 169.618C255.045 170.705 256.47 171.587 258.227 171.587C259.984 171.587 261.408 170.705 261.408 169.618C261.408 168.53 259.984 167.649 258.227 167.649C256.47 167.649 255.045 168.53 255.045 169.618Z" stroke="black"/>
<path d="M216.162 169.618C216.162 170.705 217.587 171.587 219.344 171.587C221.101 171.587 222.525 170.705 222.525 169.618C222.525 168.53 221.101 167.649 219.344 167.649C217.587 167.649 216.162 168.53 216.162 169.618Z" stroke="black"/>
<path d="M177.279 169.618C177.279 170.705 178.703 171.587 180.46 171.587C182.217 171.587 183.642 170.705 183.642 169.618C183.642 168.53 182.217 167.649 180.46 167.649C178.703 167.649 177.279 168.53 177.279 169.618Z" stroke="black"/>
<path d="M138.396 169.618C138.396 170.705 139.82 171.587 141.577 171.587C143.334 171.587 144.759 170.705 144.759 169.618C144.759 168.53 143.334 167.649 141.577 167.649C139.82 167.649 138.396 168.53 138.396 169.618Z" stroke="black"/>
<path d="M99.5129 169.618C99.5129 170.705 100.937 171.587 102.694 171.587C104.451 171.587 105.876 170.705 105.876 169.618C105.876 168.53 104.451 167.649 102.694 167.649C100.937 167.649 99.5129 168.53 99.5129 169.618Z" stroke="black"/>
<path d="M60.6298 169.618C60.6298 170.705 62.0541 171.587 63.8111 171.587C65.5681 171.587 66.9924 170.705 66.9924 169.618C66.9924 168.53 65.5681 167.649 63.8111 167.649C62.0541 167.649 60.6298 168.53 60.6298 169.618Z" stroke="black"/>
<path d="M21.7466 169.618C21.7466 170.705 23.171 171.587 24.928 171.587C26.685 171.587 28.1093 170.705 28.1093 169.618C28.1093 168.53 26.685 167.649 24.928 167.649C23.171 167.649 21.7466 168.53 21.7466 169.618Z" stroke="black"/>
<path d="M429.659 193.683C429.659 194.894 431.245 195.875 433.201 195.875C435.157 195.875 436.743 194.894 436.743 193.683C436.743 192.472 435.157 191.491 433.201 191.491C431.245 191.491 429.659 192.472 429.659 193.683Z" stroke="black"/>
<path d="M390.776 193.683C390.776 194.894 392.361 195.875 394.318 195.875C396.274 195.875 397.86 194.894 397.86 193.683C397.86 192.472 396.274 191.491 394.318 191.491C392.361 191.491 390.776 192.472 390.776 193.683Z" stroke="black"/>
<path d="M351.893 193.683C351.893 194.894 353.478 195.875 355.434 195.875C357.391 195.875 358.976 194.894 358.976 193.683C358.976 192.472 357.391 191.491 355.434 191.491C353.478 191.491 351.893 192.472 351.893 193.683Z" stroke="black"/>
<path d="M313.009 193.683C313.009 194.894 314.595 195.875 316.551 195.875C318.508 195.875 320.093 194.894 320.093 193.683C320.093 192.472 318.508 191.491 316.551 191.491C314.595 191.491 313.009 192.472 313.009 193.683Z" stroke="black"/>
<path d="M274.126 193.683C274.126 194.894 275.712 195.875 277.668 195.875C279.624 195.875 281.21 194.894 281.21 193.683C281.21 192.472 279.624 191.491 277.668 191.491C275.712 191.491 274.126 192.472 274.126 193.683Z" stroke="black"/>
<path d="M235.243 193.683C235.243 194.894 236.829 195.875 238.785 195.875C240.741 195.875 242.327 194.894 242.327 193.683C242.327 192.472 240.741 191.491 238.785 191.491C236.829 191.491 235.243 192.472 235.243 193.683Z" stroke="black"/>
<path d="M196.36 193.683C196.36 194.894 197.946 195.875 199.902 195.875C201.858 195.875 203.444 194.894 203.444 193.683C203.444 192.472 201.858 191.491 199.902 191.491C197.946 191.491 196.36 192.472 196.36 193.683Z" stroke="black"/>
<path d="M157.477 193.683C157.477 194.894 159.063 195.875 161.019 195.875C162.975 195.875 164.561 194.894 164.561 193.683C164.561 192.472 162.975 191.491 161.019 191.491C159.063 191.491 157.477 192.472 157.477 193.683Z" stroke="black"/>
<path d="M118.594 193.683C118.594 194.894 120.18 195.875 122.136 195.875C124.092 195.875 125.678 194.894 125.678 193.683C125.678 192.472 124.092 191.491 122.136 191.491C120.18 191.491 118.594 192.472 118.594 193.683Z" stroke="black"/>
<path d="M79.7108 193.683C79.7108 194.894 81.2965 195.875 83.2527 195.875C85.2088 195.875 86.7946 194.894 86.7946 193.683C86.7946 192.472 85.2088 191.491 83.2527 191.491C81.2965 191.491 79.7108 192.472 79.7108 193.683Z" stroke="black"/>
<path d="M40.8277 193.683C40.8277 194.894 42.4134 195.875 44.3696 195.875C46.3257 195.875 47.9115 194.894 47.9115 193.683C47.9115 192.472 46.3257 191.491 44.3696 191.491C42.4134 191.491 40.8277 192.472 40.8277 193.683Z" stroke="black"/>
<path d="M1.94453 193.683C1.94453 194.894 3.53029 195.875 5.48642 195.875C7.44256 195.875 9.02832 194.894 9.02832 193.683C9.02832 192.472 7.44256 191.491 5.48642 191.491C3.53029 191.491 1.94453 192.472 1.94453 193.683Z" stroke="black"/>
<path d="M448.761 217.748C448.761 219.075 450.499 220.15 452.642 220.15C454.786 220.15 456.524 219.075 456.524 217.748C456.524 216.422 454.786 215.346 452.642 215.346C450.499 215.346 448.761 216.422 448.761 217.748Z" stroke="black"/>
<path d="M409.878 217.748C409.878 219.075 411.616 220.15 413.759 220.15C415.903 220.15 417.64 219.075 417.64 217.748C417.64 216.422 415.903 215.346 413.759 215.346C411.616 215.346 409.878 216.422 409.878 217.748Z" stroke="black"/>
<path d="M370.995 217.748C370.995 219.075 372.732 220.15 374.876 220.15C377.02 220.15 378.757 219.075 378.757 217.748C378.757 216.422 377.02 215.346 374.876 215.346C372.732 215.346 370.995 216.422 370.995 217.748Z" stroke="black"/>
<path d="M332.112 217.748C332.112 219.075 333.849 220.15 335.993 220.15C338.136 220.15 339.874 219.075 339.874 217.748C339.874 216.422 338.136 215.346 335.993 215.346C333.849 215.346 332.112 216.422 332.112 217.748Z" stroke="black"/>
<path d="M293.229 217.748C293.229 219.075 294.966 220.15 297.11 220.15C299.253 220.15 300.991 219.075 300.991 217.748C300.991 216.422 299.253 215.346 297.11 215.346C294.966 215.346 293.229 216.422 293.229 217.748Z" stroke="black"/>
<path d="M254.345 217.748C254.345 219.075 256.083 220.15 258.227 220.15C260.37 220.15 262.108 219.075 262.108 217.748C262.108 216.422 260.37 215.346 258.227 215.346C256.083 215.346 254.345 216.422 254.345 217.748Z" stroke="black"/>
<path d="M215.462 217.748C215.462 219.075 217.2 220.15 219.344 220.15C221.487 220.15 223.225 219.075 223.225 217.748C223.225 216.422 221.487 215.346 219.344 215.346C217.2 215.346 215.462 216.422 215.462 217.748Z" stroke="black"/>
<path d="M176.579 217.748C176.579 219.075 178.317 220.15 180.46 220.15C182.604 220.15 184.342 219.075 184.342 217.748C184.342 216.422 182.604 215.346 180.46 215.346C178.317 215.346 176.579 216.422 176.579 217.748Z" stroke="black"/>
<path d="M137.696 217.748C137.696 219.075 139.434 220.15 141.577 220.15C143.721 220.15 145.459 219.075 145.459 217.748C145.459 216.422 143.721 215.346 141.577 215.346C139.434 215.346 137.696 216.422 137.696 217.748Z" stroke="black"/>
<path d="M98.813 217.748C98.813 219.075 100.551 220.15 102.694 220.15C104.838 220.15 106.575 219.075 106.575 217.748C106.575 216.422 104.838 215.346 102.694 215.346C100.551 215.346 98.813 216.422 98.813 217.748Z" stroke="black"/>
<path d="M59.9299 217.748C59.9299 219.075 61.6675 220.15 63.8111 220.15C65.9546 220.15 67.6923 219.075 67.6923 217.748C67.6923 216.422 65.9546 215.346 63.8111 215.346C61.6675 215.346 59.9299 216.422 59.9299 217.748Z" stroke="black"/>
<path d="M21.0467 217.748C21.0467 219.075 22.7844 220.15 24.928 220.15C27.0715 220.15 28.8092 219.075 28.8092 217.748C28.8092 216.422 27.0715 215.346 24.928 215.346C22.7844 215.346 21.0467 216.422 21.0467 217.748Z" stroke="black"/>
<path d="M428.959 241.814C428.959 243.263 430.858 244.439 433.201 244.439C435.543 244.439 437.443 243.263 437.443 241.814C437.443 240.364 435.543 239.188 433.201 239.188C430.858 239.188 428.959 240.364 428.959 241.814Z" stroke="black"/>
<path d="M390.076 241.814C390.076 243.263 391.975 244.439 394.318 244.439C396.66 244.439 398.559 243.263 398.559 241.814C398.559 240.364 396.66 239.188 394.318 239.188C391.975 239.188 390.076 240.364 390.076 241.814Z" stroke="black"/>
<path d="M351.193 241.814C351.193 243.263 353.092 244.439 355.434 244.439C357.777 244.439 359.676 243.263 359.676 241.814C359.676 240.364 357.777 239.188 355.434 239.188C353.092 239.188 351.193 240.364 351.193 241.814Z" stroke="black"/>
<path d="M312.31 241.814C312.31 243.263 314.209 244.439 316.551 244.439C318.894 244.439 320.793 243.263 320.793 241.814C320.793 240.364 318.894 239.188 316.551 239.188C314.209 239.188 312.31 240.364 312.31 241.814Z" stroke="black"/>
<path d="M273.426 241.814C273.426 243.263 275.326 244.439 277.668 244.439C280.011 244.439 281.91 243.263 281.91 241.814C281.91 240.364 280.011 239.188 277.668 239.188C275.326 239.188 273.426 240.364 273.426 241.814Z" stroke="black"/>
<path d="M234.543 241.814C234.543 243.263 236.442 244.439 238.785 244.439C241.128 244.439 243.027 243.263 243.027 241.814C243.027 240.364 241.128 239.188 238.785 239.188C236.442 239.188 234.543 240.364 234.543 241.814Z" stroke="black"/>
<path d="M195.66 241.814C195.66 243.263 197.559 244.439 199.902 244.439C202.245 244.439 204.144 243.263 204.144 241.814C204.144 240.364 202.245 239.188 199.902 239.188C197.559 239.188 195.66 240.364 195.66 241.814Z" stroke="black"/>
<path d="M156.777 241.814C156.777 243.263 158.676 244.439 161.019 244.439C163.362 244.439 165.261 243.263 165.261 241.814C165.261 240.364 163.362 239.188 161.019 239.188C158.676 239.188 156.777 240.364 156.777 241.814Z" stroke="black"/>
<path d="M117.894 241.814C117.894 243.263 119.793 244.439 122.136 244.439C124.478 244.439 126.378 243.263 126.378 241.814C126.378 240.364 124.478 239.188 122.136 239.188C119.793 239.188 117.894 240.364 117.894 241.814Z" stroke="black"/>
<path d="M79.0109 241.814C79.0109 243.263 80.91 244.439 83.2527 244.439C85.5953 244.439 87.4945 243.263 87.4945 241.814C87.4945 240.364 85.5953 239.188 83.2527 239.188C80.91 239.188 79.0109 240.364 79.0109 241.814Z" stroke="black"/>
<path d="M40.1278 241.814C40.1278 243.263 42.0269 244.439 44.3696 244.439C46.7122 244.439 48.6114 243.263 48.6114 241.814C48.6114 240.364 46.7122 239.188 44.3696 239.188C42.0269 239.188 40.1278 240.364 40.1278 241.814Z" stroke="black"/>
<path d="M1.24463 241.814C1.24463 243.263 3.14375 244.439 5.48642 244.439C7.8291 244.439 9.72822 243.263 9.72822 241.814C9.72822 240.364 7.8291 239.188 5.48642 239.188C3.14375 239.188 1.24463 240.364 1.24463 241.814Z" stroke="black"/>
<path d="M448.04 265.879C448.04 267.452 450.1 268.727 452.642 268.727C455.184 268.727 457.245 267.452 457.245 265.879C457.245 264.306 455.184 263.03 452.642 263.03C450.1 263.03 448.04 264.306 448.04 265.879Z" stroke="black"/>
<path d="M409.157 265.879C409.157 267.452 411.217 268.727 413.759 268.727C416.301 268.727 418.362 267.452 418.362 265.879C418.362 264.306 416.301 263.03 413.759 263.03C411.217 263.03 409.157 264.306 409.157 265.879Z" stroke="black"/>
<path d="M370.274 265.879C370.274 267.452 372.334 268.727 374.876 268.727C377.418 268.727 379.478 267.452 379.478 265.879C379.478 264.306 377.418 263.03 374.876 263.03C372.334 263.03 370.274 264.306 370.274 265.879Z" stroke="black"/>
<path d="M331.391 265.879C331.391 267.452 333.451 268.727 335.993 268.727C338.535 268.727 340.595 267.452 340.595 265.879C340.595 264.306 338.535 263.03 335.993 263.03C333.451 263.03 331.391 264.306 331.391 265.879Z" stroke="black"/>
<path d="M292.507 265.879C292.507 267.452 294.568 268.727 297.11 268.727C299.652 268.727 301.712 267.452 301.712 265.879C301.712 264.306 299.652 263.03 297.11 263.03C294.568 263.03 292.507 264.306 292.507 265.879Z" stroke="black"/>
<path d="M253.624 265.879C253.624 267.452 255.685 268.727 258.227 268.727C260.769 268.727 262.829 267.452 262.829 265.879C262.829 264.306 260.769 263.03 258.227 263.03C255.685 263.03 253.624 264.306 253.624 265.879Z" stroke="black"/>
<path d="M214.741 265.879C214.741 267.452 216.802 268.727 219.344 268.727C221.885 268.727 223.946 267.452 223.946 265.879C223.946 264.306 221.885 263.03 219.344 263.03C216.802 263.03 214.741 264.306 214.741 265.879Z" stroke="black"/>
<path d="M175.858 265.879C175.858 267.452 177.919 268.727 180.46 268.727C183.002 268.727 185.063 267.452 185.063 265.879C185.063 264.306 183.002 263.03 180.46 263.03C177.919 263.03 175.858 264.306 175.858 265.879Z" stroke="black"/>
<path d="M136.975 265.879C136.975 267.452 139.036 268.727 141.577 268.727C144.119 268.727 146.18 267.452 146.18 265.879C146.18 264.306 144.119 263.03 141.577 263.03C139.036 263.03 136.975 264.306 136.975 265.879Z" stroke="black"/>
<path d="M98.0919 265.879C98.0919 267.452 100.152 268.727 102.694 268.727C105.236 268.727 107.297 267.452 107.297 265.879C107.297 264.306 105.236 263.03 102.694 263.03C100.152 263.03 98.0919 264.306 98.0919 265.879Z" stroke="black"/>
<path d="M59.2088 265.879C59.2088 267.452 61.2693 268.727 63.8111 268.727C66.3529 268.727 68.4134 267.452 68.4134 265.879C68.4134 264.306 66.3529 263.03 63.8111 263.03C61.2693 263.03 59.2088 264.306 59.2088 265.879Z" stroke="black"/>
<path d="M20.3256 265.879C20.3256 267.452 22.3862 268.727 24.928 268.727C27.4698 268.727 29.5303 267.452 29.5303 265.879C29.5303 264.306 27.4698 263.03 24.928 263.03C22.3862 263.03 20.3256 264.306 20.3256 265.879Z" stroke="black"/>
</svg>
