<svg width="456" height="268" viewBox="0 0 456 268" fill="none" xmlns="http://www.w3.org/2000/svg">
<path d="M431.256 0.433175C431.256 0.672412 431.57 0.866351 431.956 0.866351C432.343 0.866351 432.656 0.672412 432.656 0.433175C432.656 0.193939 432.343 0 431.956 0C431.57 0 431.256 0.193939 431.256 0.433175Z" fill="black"/>
<path d="M392.373 0.433175C392.373 0.672412 392.686 0.866351 393.073 0.866351C393.46 0.866351 393.773 0.672412 393.773 0.433175C393.773 0.193939 393.46 0 393.073 0C392.686 0 392.373 0.193939 392.373 0.433175Z" fill="black"/>
<path d="M353.49 0.433175C353.49 0.672412 353.803 0.866351 354.19 0.866351C354.576 0.866351 354.89 0.672412 354.89 0.433175C354.89 0.193939 354.576 0 354.19 0C353.803 0 353.49 0.193939 353.49 0.433175Z" fill="black"/>
<path d="M314.607 0.433175C314.607 0.672412 314.92 0.866351 315.307 0.866351C315.693 0.866351 316.007 0.672412 316.007 0.433175C316.007 0.193939 315.693 0 315.307 0C314.92 0 314.607 0.193939 314.607 0.433175Z" fill="black"/>
<path d="M275.724 0.433175C275.724 0.672412 276.037 0.866351 276.424 0.866351C276.81 0.866351 277.124 0.672412 277.124 0.433175C277.124 0.193939 276.81 0 276.424 0C276.037 0 275.724 0.193939 275.724 0.433175Z" fill="black"/>
<path d="M236.841 0.433175C236.841 0.672412 237.154 0.866351 237.541 0.866351C237.927 0.866351 238.24 0.672412 238.24 0.433175C238.24 0.193939 237.927 0 237.541 0C237.154 0 236.841 0.193939 236.841 0.433175Z" fill="black"/>
<path d="M197.958 0.433175C197.958 0.672412 198.271 0.866351 198.657 0.866351C199.044 0.866351 199.357 0.672412 199.357 0.433175C199.357 0.193939 199.044 0 198.657 0C198.271 0 197.958 0.193939 197.958 0.433175Z" fill="black"/>
<path d="M159.074 0.433175C159.074 0.672412 159.388 0.866351 159.774 0.866351C160.161 0.866351 160.474 0.672412 160.474 0.433175C160.474 0.193939 160.161 0 159.774 0C159.388 0 159.074 0.193939 159.074 0.433175Z" fill="black"/>
<path d="M120.191 0.433175C120.191 0.672412 120.505 0.866351 120.891 0.866351C121.278 0.866351 121.591 0.672412 121.591 0.433175C121.591 0.193939 121.278 0 120.891 0C120.505 0 120.191 0.193939 120.191 0.433175Z" fill="black"/>
<path d="M81.3082 0.433175C81.3082 0.672412 81.6216 0.866351 82.0081 0.866351C82.3946 0.866351 82.708 0.672412 82.708 0.433175C82.708 0.193939 82.3946 0 82.0081 0C81.6216 0 81.3082 0.193939 81.3082 0.433175Z" fill="black"/>
<path d="M42.4251 0.433175C42.4251 0.672412 42.7385 0.866351 43.125 0.866351C43.5115 0.866351 43.8249 0.672412 43.8249 0.433175C43.8249 0.193939 43.5115 0 43.125 0C42.7385 0 42.4251 0.193939 42.4251 0.433175Z" fill="black"/>
<path d="M3.54196 0.433175C3.54196 0.672412 3.85531 0.866351 4.24186 0.866351C4.6284 0.866351 4.94176 0.672412 4.94176 0.433175C4.94176 0.193939 4.6284 0 4.24186 0C3.85531 0 3.54196 0.193939 3.54196 0.433175Z" fill="black"/>
<path d="M450.337 24.4985C450.337 24.861 450.812 25.1548 451.398 25.1548C451.983 25.1548 452.458 24.861 452.458 24.4985C452.458 24.136 451.983 23.8422 451.398 23.8422C450.812 23.8422 450.337 24.136 450.337 24.4985Z" fill="black"/>
<path d="M411.454 24.4985C411.454 24.861 411.929 25.1548 412.515 25.1548C413.1 25.1548 413.575 24.861 413.575 24.4985C413.575 24.136 413.1 23.8422 412.515 23.8422C411.929 23.8422 411.454 24.136 411.454 24.4985Z" fill="black"/>
<path d="M372.571 24.4985C372.571 24.861 373.046 25.1548 373.631 25.1548C374.217 25.1548 374.692 24.861 374.692 24.4985C374.692 24.136 374.217 23.8422 373.631 23.8422C373.046 23.8422 372.571 24.136 372.571 24.4985Z" fill="black"/>
<path d="M333.688 24.4985C333.688 24.861 334.163 25.1548 334.748 25.1548C335.334 25.1548 335.809 24.861 335.809 24.4985C335.809 24.136 335.334 23.8422 334.748 23.8422C334.163 23.8422 333.688 24.136 333.688 24.4985Z" fill="black"/>
<path d="M294.805 24.4985C294.805 24.861 295.28 25.1548 295.865 25.1548C296.451 25.1548 296.926 24.861 296.926 24.4985C296.926 24.136 296.451 23.8422 295.865 23.8422C295.28 23.8422 294.805 24.136 294.805 24.4985Z" fill="black"/>
<path d="M255.922 24.4985C255.922 24.861 256.396 25.1548 256.982 25.1548C257.568 25.1548 258.043 24.861 258.043 24.4985C258.043 24.136 257.568 23.8422 256.982 23.8422C256.396 23.8422 255.922 24.136 255.922 24.4985Z" fill="black"/>
<path d="M217.039 24.4985C217.039 24.861 217.513 25.1548 218.099 25.1548C218.685 25.1548 219.159 24.861 219.159 24.4985C219.159 24.136 218.685 23.8422 218.099 23.8422C217.513 23.8422 217.039 24.136 217.039 24.4985Z" fill="black"/>
<path d="M178.155 24.4985C178.155 24.861 178.63 25.1548 179.216 25.1548C179.802 25.1548 180.276 24.861 180.276 24.4985C180.276 24.136 179.802 23.8422 179.216 23.8422C178.63 23.8422 178.155 24.136 178.155 24.4985Z" fill="black"/>
<path d="M139.272 24.4985C139.272 24.861 139.747 25.1548 140.333 25.1548C140.918 25.1548 141.393 24.861 141.393 24.4985C141.393 24.136 140.918 23.8422 140.333 23.8422C139.747 23.8422 139.272 24.136 139.272 24.4985Z" fill="black"/>
<path d="M100.389 24.4985C100.389 24.861 100.864 25.1548 101.45 25.1548C102.035 25.1548 102.51 24.861 102.51 24.4985C102.51 24.136 102.035 23.8422 101.45 23.8422C100.864 23.8422 100.389 24.136 100.389 24.4985Z" fill="black"/>
<path d="M61.5061 24.4985C61.5061 24.861 61.9809 25.1548 62.5665 25.1548C63.1522 25.1548 63.627 24.861 63.627 24.4985C63.627 24.136 63.1522 23.8422 62.5665 23.8422C61.9809 23.8422 61.5061 24.136 61.5061 24.4985Z" fill="black"/>
<path d="M22.623 24.4985C22.623 24.861 23.0978 25.1548 23.6834 25.1548C24.2691 25.1548 24.7439 24.861 24.7439 24.4985C24.7439 24.136 24.2691 23.8422 23.6834 23.8422C23.0978 23.8422 22.623 24.136 22.623 24.4985Z" fill="black"/>
<path d="M430.535 48.5638C430.535 49.0495 431.171 49.4433 431.956 49.4433C432.741 49.4433 433.377 49.0495 433.377 48.5638C433.377 48.0781 432.741 47.6843 431.956 47.6843C431.171 47.6843 430.535 48.0781 430.535 48.5638Z" fill="black"/>
<path d="M391.652 48.5638C391.652 49.0495 392.288 49.4433 393.073 49.4433C393.858 49.4433 394.494 49.0495 394.494 48.5638C394.494 48.0781 393.858 47.6843 393.073 47.6843C392.288 47.6843 391.652 48.0781 391.652 48.5638Z" fill="black"/>
<path d="M352.769 48.5638C352.769 49.0495 353.405 49.4433 354.19 49.4433C354.975 49.4433 355.611 49.0495 355.611 48.5638C355.611 48.0781 354.975 47.6843 354.19 47.6843C353.405 47.6843 352.769 48.0781 352.769 48.5638Z" fill="black"/>
<path d="M313.886 48.5638C313.886 49.0495 314.522 49.4433 315.307 49.4433C316.092 49.4433 316.728 49.0495 316.728 48.5638C316.728 48.0781 316.092 47.6843 315.307 47.6843C314.522 47.6843 313.886 48.0781 313.886 48.5638Z" fill="black"/>
<path d="M275.003 48.5638C275.003 49.0495 275.639 49.4433 276.424 49.4433C277.208 49.4433 277.845 49.0495 277.845 48.5638C277.845 48.0781 277.208 47.6843 276.424 47.6843C275.639 47.6843 275.003 48.0781 275.003 48.5638Z" fill="black"/>
<path d="M236.12 48.5638C236.12 49.0495 236.756 49.4433 237.541 49.4433C238.325 49.4433 238.962 49.0495 238.962 48.5638C238.962 48.0781 238.325 47.6843 237.541 47.6843C236.756 47.6843 236.12 48.0781 236.12 48.5638Z" fill="black"/>
<path d="M197.236 48.5638C197.236 49.0495 197.873 49.4433 198.657 49.4433C199.442 49.4433 200.078 49.0495 200.078 48.5638C200.078 48.0781 199.442 47.6843 198.657 47.6843C197.873 47.6843 197.236 48.0781 197.236 48.5638Z" fill="black"/>
<path d="M158.353 48.5638C158.353 49.0495 158.99 49.4433 159.774 49.4433C160.559 49.4433 161.195 49.0495 161.195 48.5638C161.195 48.0781 160.559 47.6843 159.774 47.6843C158.99 47.6843 158.353 48.0781 158.353 48.5638Z" fill="black"/>
<path d="M119.47 48.5638C119.47 49.0495 120.106 49.4433 120.891 49.4433C121.676 49.4433 122.312 49.0495 122.312 48.5638C122.312 48.0781 121.676 47.6843 120.891 47.6843C120.106 47.6843 119.47 48.0781 119.47 48.5638Z" fill="black"/>
<path d="M80.5871 48.5638C80.5871 49.0495 81.2233 49.4433 82.0081 49.4433C82.7929 49.4433 83.4291 49.0495 83.4291 48.5638C83.4291 48.0781 82.7929 47.6843 82.0081 47.6843C81.2233 47.6843 80.5871 48.0781 80.5871 48.5638Z" fill="black"/>
<path d="M41.704 48.5638C41.704 49.0495 42.3402 49.4433 43.125 49.4433C43.9098 49.4433 44.546 49.0495 44.546 48.5638C44.546 48.0781 43.9098 47.6843 43.125 47.6843C42.3402 47.6843 41.704 48.0781 41.704 48.5638Z" fill="black"/>
<path d="M2.82086 48.5638C2.82086 49.0495 3.45706 49.4433 4.24186 49.4433C5.02665 49.4433 5.66285 49.0495 5.66285 48.5638C5.66285 48.0781 5.02665 47.6843 4.24186 47.6843C3.45706 47.6843 2.82086 48.0781 2.82086 48.5638Z" fill="black"/>
<path d="M449.637 72.6291C449.637 73.2308 450.426 73.7186 451.398 73.7186C452.37 73.7186 453.158 73.2308 453.158 72.6291C453.158 72.0274 452.37 71.5396 451.398 71.5396C450.426 71.5396 449.637 72.0274 449.637 72.6291Z" fill="black"/>
<path d="M410.754 72.6291C410.754 73.2308 411.542 73.7186 412.515 73.7186C413.487 73.7186 414.275 73.2308 414.275 72.6291C414.275 72.0274 413.487 71.5396 412.515 71.5396C411.542 71.5396 410.754 72.0274 410.754 72.6291Z" fill="black"/>
<path d="M371.871 72.6291C371.871 73.2308 372.659 73.7186 373.631 73.7186C374.604 73.7186 375.392 73.2308 375.392 72.6291C375.392 72.0274 374.604 71.5396 373.631 71.5396C372.659 71.5396 371.871 72.0274 371.871 72.6291Z" fill="black"/>
<path d="M332.988 72.6291C332.988 73.2308 333.776 73.7186 334.748 73.7186C335.721 73.7186 336.509 73.2308 336.509 72.6291C336.509 72.0274 335.721 71.5396 334.748 71.5396C333.776 71.5396 332.988 72.0274 332.988 72.6291Z" fill="black"/>
<path d="M294.105 72.6291C294.105 73.2308 294.893 73.7186 295.865 73.7186C296.837 73.7186 297.626 73.2308 297.626 72.6291C297.626 72.0274 296.837 71.5396 295.865 71.5396C294.893 71.5396 294.105 72.0274 294.105 72.6291Z" fill="black"/>
<path d="M255.222 72.6291C255.222 73.2308 256.01 73.7186 256.982 73.7186C257.954 73.7186 258.742 73.2308 258.742 72.6291C258.742 72.0274 257.954 71.5396 256.982 71.5396C256.01 71.5396 255.222 72.0274 255.222 72.6291Z" fill="black"/>
<path d="M216.339 72.6291C216.339 73.2308 217.127 73.7186 218.099 73.7186C219.071 73.7186 219.859 73.2308 219.859 72.6291C219.859 72.0274 219.071 71.5396 218.099 71.5396C217.127 71.5396 216.339 72.0274 216.339 72.6291Z" fill="black"/>
<path d="M177.456 72.6291C177.456 73.2308 178.244 73.7186 179.216 73.7186C180.188 73.7186 180.976 73.2308 180.976 72.6291C180.976 72.0274 180.188 71.5396 179.216 71.5396C178.244 71.5396 177.456 72.0274 177.456 72.6291Z" fill="black"/>
<path d="M138.572 72.6291C138.572 73.2308 139.361 73.7186 140.333 73.7186C141.305 73.7186 142.093 73.2308 142.093 72.6291C142.093 72.0274 141.305 71.5396 140.333 71.5396C139.361 71.5396 138.572 72.0274 138.572 72.6291Z" fill="black"/>
<path d="M99.6893 72.6291C99.6893 73.2308 100.477 73.7186 101.45 73.7186C102.422 73.7186 103.21 73.2308 103.21 72.6291C103.21 72.0274 102.422 71.5396 101.45 71.5396C100.477 71.5396 99.6893 72.0274 99.6893 72.6291Z" fill="black"/>
<path d="M60.8062 72.6291C60.8062 73.2308 61.5943 73.7186 62.5665 73.7186C63.5387 73.7186 64.3269 73.2308 64.3269 72.6291C64.3269 72.0274 63.5387 71.5396 62.5665 71.5396C61.5943 71.5396 60.8062 72.0274 60.8062 72.6291Z" fill="black"/>
<path d="M21.9231 72.6291C21.9231 73.2308 22.7112 73.7186 23.6834 73.7186C24.6556 73.7186 25.4438 73.2308 25.4438 72.6291C25.4438 72.0274 24.6556 71.5396 23.6834 71.5396C22.7112 71.5396 21.9231 72.0274 21.9231 72.6291Z" fill="black"/>
<path d="M429.835 96.6944C429.835 97.4194 430.785 98.0071 431.956 98.0071C433.128 98.0071 434.077 97.4194 434.077 96.6944C434.077 95.9694 433.128 95.3818 431.956 95.3818C430.785 95.3818 429.835 95.9694 429.835 96.6944Z" fill="black"/>
<path d="M390.952 96.6944C390.952 97.4194 391.902 98.0071 393.073 98.0071C394.244 98.0071 395.194 97.4194 395.194 96.6944C395.194 95.9694 394.244 95.3818 393.073 95.3818C391.902 95.3818 390.952 95.9694 390.952 96.6944Z" fill="black"/>
<path d="M352.069 96.6944C352.069 97.4194 353.019 98.0071 354.19 98.0071C355.361 98.0071 356.311 97.4194 356.311 96.6944C356.311 95.9694 355.361 95.3818 354.19 95.3818C353.019 95.3818 352.069 95.9694 352.069 96.6944Z" fill="black"/>
<path d="M313.186 96.6944C313.186 97.4194 314.135 98.0071 315.307 98.0071C316.478 98.0071 317.428 97.4194 317.428 96.6944C317.428 95.9694 316.478 95.3818 315.307 95.3818C314.135 95.3818 313.186 95.9694 313.186 96.6944Z" fill="black"/>
<path d="M274.303 96.6944C274.303 97.4194 275.252 98.0071 276.424 98.0071C277.595 98.0071 278.545 97.4194 278.545 96.6944C278.545 95.9694 277.595 95.3818 276.424 95.3818C275.252 95.3818 274.303 95.9694 274.303 96.6944Z" fill="black"/>
<path d="M235.42 96.6944C235.42 97.4194 236.369 98.0071 237.541 98.0071C238.712 98.0071 239.661 97.4194 239.661 96.6944C239.661 95.9694 238.712 95.3818 237.541 95.3818C236.369 95.3818 235.42 95.9694 235.42 96.6944Z" fill="black"/>
<path d="M196.537 96.6944C196.537 97.4194 197.486 98.0071 198.657 98.0071C199.829 98.0071 200.778 97.4194 200.778 96.6944C200.778 95.9694 199.829 95.3818 198.657 95.3818C197.486 95.3818 196.537 95.9694 196.537 96.6944Z" fill="black"/>
<path d="M157.653 96.6944C157.653 97.4194 158.603 98.0071 159.774 98.0071C160.946 98.0071 161.895 97.4194 161.895 96.6944C161.895 95.9694 160.946 95.3818 159.774 95.3818C158.603 95.3818 157.653 95.9694 157.653 96.6944Z" fill="black"/>
<path d="M118.77 96.6944C118.77 97.4194 119.72 98.0071 120.891 98.0071C122.063 98.0071 123.012 97.4194 123.012 96.6944C123.012 95.9694 122.063 95.3818 120.891 95.3818C119.72 95.3818 118.77 95.9694 118.77 96.6944Z" fill="black"/>
<path d="M79.8872 96.6944C79.8872 97.4194 80.8368 98.0071 82.0081 98.0071C83.1794 98.0071 84.129 97.4194 84.129 96.6944C84.129 95.9694 83.1794 95.3818 82.0081 95.3818C80.8368 95.3818 79.8872 95.9694 79.8872 96.6944Z" fill="black"/>
<path d="M41.0041 96.6944C41.0041 97.4194 41.9537 98.0071 43.125 98.0071C44.2963 98.0071 45.2459 97.4194 45.2459 96.6944C45.2459 95.9694 44.2963 95.3818 43.125 95.3818C41.9537 95.3818 41.0041 95.9694 41.0041 96.6944Z" fill="black"/>
<path d="M2.12096 96.6944C2.12096 97.4194 3.07052 98.0071 4.24186 98.0071C5.4132 98.0071 6.36275 97.4194 6.36275 96.6944C6.36275 95.9694 5.4132 95.3818 4.24186 95.3818C3.07052 95.3818 2.12096 95.9694 2.12096 96.6944Z" fill="black"/>
<path d="M448.916 120.76C448.916 121.608 450.027 122.296 451.398 122.296C452.768 122.296 453.879 121.608 453.879 120.76C453.879 119.912 452.768 119.224 451.398 119.224C450.027 119.224 448.916 119.912 448.916 120.76Z" fill="black"/>
<path d="M410.033 120.76C410.033 121.608 411.144 122.296 412.515 122.296C413.885 122.296 414.996 121.608 414.996 120.76C414.996 119.912 413.885 119.224 412.515 119.224C411.144 119.224 410.033 119.912 410.033 120.76Z" fill="black"/>
<path d="M371.15 120.76C371.15 121.608 372.261 122.296 373.631 122.296C375.002 122.296 376.113 121.608 376.113 120.76C376.113 119.912 375.002 119.224 373.631 119.224C372.261 119.224 371.15 119.912 371.15 120.76Z" fill="black"/>
<path d="M332.267 120.76C332.267 121.608 333.378 122.296 334.748 122.296C336.119 122.296 337.23 121.608 337.23 120.76C337.23 119.912 336.119 119.224 334.748 119.224C333.378 119.224 332.267 119.912 332.267 120.76Z" fill="black"/>
<path d="M293.384 120.76C293.384 121.608 294.495 122.296 295.865 122.296C297.236 122.296 298.347 121.608 298.347 120.76C298.347 119.912 297.236 119.224 295.865 119.224C294.495 119.224 293.384 119.912 293.384 120.76Z" fill="black"/>
<path d="M254.501 120.76C254.501 121.608 255.612 122.296 256.982 122.296C258.353 122.296 259.464 121.608 259.464 120.76C259.464 119.912 258.353 119.224 256.982 119.224C255.612 119.224 254.501 119.912 254.501 120.76Z" fill="black"/>
<path d="M215.618 120.76C215.618 121.608 216.729 122.296 218.099 122.296C219.469 122.296 220.58 121.608 220.58 120.76C220.58 119.912 219.469 119.224 218.099 119.224C216.729 119.224 215.618 119.912 215.618 120.76Z" fill="black"/>
<path d="M176.734 120.76C176.734 121.608 177.845 122.296 179.216 122.296C180.586 122.296 181.697 121.608 181.697 120.76C181.697 119.912 180.586 119.224 179.216 119.224C177.845 119.224 176.734 119.912 176.734 120.76Z" fill="black"/>
<path d="M137.851 120.76C137.851 121.608 138.962 122.296 140.333 122.296C141.703 122.296 142.814 121.608 142.814 120.76C142.814 119.912 141.703 119.224 140.333 119.224C138.962 119.224 137.851 119.912 137.851 120.76Z" fill="black"/>
<path d="M98.9682 120.76C98.9682 121.608 100.079 122.296 101.45 122.296C102.82 122.296 103.931 121.608 103.931 120.76C103.931 119.912 102.82 119.224 101.45 119.224C100.079 119.224 98.9682 119.912 98.9682 120.76Z" fill="black"/>
<path d="M60.0851 120.76C60.0851 121.608 61.1961 122.296 62.5665 122.296C63.937 122.296 65.048 121.608 65.048 120.76C65.048 119.912 63.937 119.224 62.5665 119.224C61.1961 119.224 60.0851 119.912 60.0851 120.76Z" fill="black"/>
<path d="M21.202 120.76C21.202 121.608 22.313 122.296 23.6834 122.296C25.0539 122.296 26.1649 121.608 26.1649 120.76C26.1649 119.912 25.0539 119.224 23.6834 119.224C22.313 119.224 21.202 119.912 21.202 120.76Z" fill="black"/>
<path d="M429.135 144.825C429.135 145.789 430.398 146.571 431.956 146.571C433.514 146.571 434.777 145.789 434.777 144.825C434.777 143.861 433.514 143.079 431.956 143.079C430.398 143.079 429.135 143.861 429.135 144.825Z" fill="black"/>
<path d="M390.252 144.825C390.252 145.789 391.515 146.571 393.073 146.571C394.631 146.571 395.894 145.789 395.894 144.825C395.894 143.861 394.631 143.079 393.073 143.079C391.515 143.079 390.252 143.861 390.252 144.825Z" fill="black"/>
<path d="M351.369 144.825C351.369 145.789 352.632 146.571 354.19 146.571C355.748 146.571 357.011 145.789 357.011 144.825C357.011 143.861 355.748 143.079 354.19 143.079C352.632 143.079 351.369 143.861 351.369 144.825Z" fill="black"/>
<path d="M312.486 144.825C312.486 145.789 313.749 146.571 315.307 146.571C316.865 146.571 318.128 145.789 318.128 144.825C318.128 143.861 316.865 143.079 315.307 143.079C313.749 143.079 312.486 143.861 312.486 144.825Z" fill="black"/>
<path d="M273.603 144.825C273.603 145.789 274.866 146.571 276.424 146.571C277.982 146.571 279.244 145.789 279.244 144.825C279.244 143.861 277.982 143.079 276.424 143.079C274.866 143.079 273.603 143.861 273.603 144.825Z" fill="black"/>
<path d="M234.72 144.825C234.72 145.789 235.983 146.571 237.541 146.571C239.098 146.571 240.361 145.789 240.361 144.825C240.361 143.861 239.098 143.079 237.541 143.079C235.983 143.079 234.72 143.861 234.72 144.825Z" fill="black"/>
<path d="M195.837 144.825C195.837 145.789 197.1 146.571 198.657 146.571C200.215 146.571 201.478 145.789 201.478 144.825C201.478 143.861 200.215 143.079 198.657 143.079C197.1 143.079 195.837 143.861 195.837 144.825Z" fill="black"/>
<path d="M156.954 144.825C156.954 145.789 158.216 146.571 159.774 146.571C161.332 146.571 162.595 145.789 162.595 144.825C162.595 143.861 161.332 143.079 159.774 143.079C158.216 143.079 156.954 143.861 156.954 144.825Z" fill="black"/>
<path d="M118.07 144.825C118.07 145.789 119.333 146.571 120.891 146.571C122.449 146.571 123.712 145.789 123.712 144.825C123.712 143.861 122.449 143.079 120.891 143.079C119.333 143.079 118.07 143.861 118.07 144.825Z" fill="black"/>
<path d="M79.1873 144.825C79.1873 145.789 80.4502 146.571 82.0081 146.571C83.566 146.571 84.8289 145.789 84.8289 144.825C84.8289 143.861 83.566 143.079 82.0081 143.079C80.4502 143.079 79.1873 143.861 79.1873 144.825Z" fill="black"/>
<path d="M40.3042 144.825C40.3042 145.789 41.5671 146.571 43.125 146.571C44.6829 146.571 45.9458 145.789 45.9458 144.825C45.9458 143.861 44.6829 143.079 43.125 143.079C41.5671 143.079 40.3042 143.861 40.3042 144.825Z" fill="black"/>
<path d="M1.42106 144.825C1.42106 145.789 2.68397 146.571 4.24186 146.571C5.79974 146.571 7.06265 145.789 7.06265 144.825C7.06265 143.861 5.79974 143.079 4.24186 143.079C2.68397 143.079 1.42106 143.861 1.42106 144.825Z" fill="black"/>
<path d="M448.216 168.89C448.216 169.978 449.641 170.859 451.398 170.859C453.155 170.859 454.579 169.978 454.579 168.89C454.579 167.803 453.155 166.921 451.398 166.921C449.641 166.921 448.216 167.803 448.216 168.89Z" fill="black"/>
<path d="M409.333 168.89C409.333 169.978 410.758 170.859 412.515 170.859C414.272 170.859 415.696 169.978 415.696 168.89C415.696 167.803 414.272 166.921 412.515 166.921C410.758 166.921 409.333 167.803 409.333 168.89Z" fill="black"/>
<path d="M370.45 168.89C370.45 169.978 371.874 170.859 373.631 170.859C375.388 170.859 376.813 169.978 376.813 168.89C376.813 167.803 375.388 166.921 373.631 166.921C371.874 166.921 370.45 167.803 370.45 168.89Z" fill="black"/>
<path d="M331.567 168.89C331.567 169.978 332.991 170.859 334.748 170.859C336.505 170.859 337.93 169.978 337.93 168.89C337.93 167.803 336.505 166.921 334.748 166.921C332.991 166.921 331.567 167.803 331.567 168.89Z" fill="black"/>
<path d="M292.684 168.89C292.684 169.978 294.108 170.859 295.865 170.859C297.622 170.859 299.047 169.978 299.047 168.89C299.047 167.803 297.622 166.921 295.865 166.921C294.108 166.921 292.684 167.803 292.684 168.89Z" fill="black"/>
<path d="M253.801 168.89C253.801 169.978 255.225 170.859 256.982 170.859C258.739 170.859 260.163 169.978 260.163 168.89C260.163 167.803 258.739 166.921 256.982 166.921C255.225 166.921 253.801 167.803 253.801 168.89Z" fill="black"/>
<path d="M214.918 168.89C214.918 169.978 216.342 170.859 218.099 170.859C219.856 170.859 221.28 169.978 221.28 168.89C221.28 167.803 219.856 166.921 218.099 166.921C216.342 166.921 214.918 167.803 214.918 168.89Z" fill="black"/>
<path d="M176.035 168.89C176.035 169.978 177.459 170.859 179.216 170.859C180.973 170.859 182.397 169.978 182.397 168.89C182.397 167.803 180.973 166.921 179.216 166.921C177.459 166.921 176.035 167.803 176.035 168.89Z" fill="black"/>
<path d="M137.151 168.89C137.151 169.978 138.576 170.859 140.333 170.859C142.09 170.859 143.514 169.978 143.514 168.89C143.514 167.803 142.09 166.921 140.333 166.921C138.576 166.921 137.151 167.803 137.151 168.89Z" fill="black"/>
<path d="M98.2683 168.89C98.2683 169.978 99.6927 170.859 101.45 170.859C103.207 170.859 104.631 169.978 104.631 168.89C104.631 167.803 103.207 166.921 101.45 166.921C99.6927 166.921 98.2683 167.803 98.2683 168.89Z" fill="black"/>
<path d="M59.3852 168.89C59.3852 169.978 60.8095 170.859 62.5665 170.859C64.3235 170.859 65.7479 169.978 65.7479 168.89C65.7479 167.803 64.3235 166.921 62.5665 166.921C60.8095 166.921 59.3852 167.803 59.3852 168.89Z" fill="black"/>
<path d="M20.5021 168.89C20.5021 169.978 21.9264 170.859 23.6834 170.859C25.4404 170.859 26.8648 169.978 26.8648 168.89C26.8648 167.803 25.4404 166.921 23.6834 166.921C21.9264 166.921 20.5021 167.803 20.5021 168.89Z" fill="black"/>
<path d="M428.414 192.956C428.414 194.166 430 195.148 431.956 195.148C433.912 195.148 435.498 194.166 435.498 192.956C435.498 191.745 433.912 190.764 431.956 190.764C430 190.764 428.414 191.745 428.414 192.956Z" fill="black"/>
<path d="M389.531 192.956C389.531 194.166 391.117 195.148 393.073 195.148C395.029 195.148 396.615 194.166 396.615 192.956C396.615 191.745 395.029 190.764 393.073 190.764C391.117 190.764 389.531 191.745 389.531 192.956Z" fill="black"/>
<path d="M350.648 192.956C350.648 194.166 352.234 195.148 354.19 195.148C356.146 195.148 357.732 194.166 357.732 192.956C357.732 191.745 356.146 190.764 354.19 190.764C352.234 190.764 350.648 191.745 350.648 192.956Z" fill="black"/>
<path d="M311.765 192.956C311.765 194.166 313.351 195.148 315.307 195.148C317.263 195.148 318.849 194.166 318.849 192.956C318.849 191.745 317.263 190.764 315.307 190.764C313.351 190.764 311.765 191.745 311.765 192.956Z" fill="black"/>
<path d="M272.882 192.956C272.882 194.166 274.468 195.148 276.424 195.148C278.38 195.148 279.966 194.166 279.966 192.956C279.966 191.745 278.38 190.764 276.424 190.764C274.468 190.764 272.882 191.745 272.882 192.956Z" fill="black"/>
<path d="M233.999 192.956C233.999 194.166 235.584 195.148 237.541 195.148C239.497 195.148 241.082 194.166 241.082 192.956C241.082 191.745 239.497 190.764 237.541 190.764C235.584 190.764 233.999 191.745 233.999 192.956Z" fill="black"/>
<path d="M195.116 192.956C195.116 194.166 196.701 195.148 198.657 195.148C200.614 195.148 202.199 194.166 202.199 192.956C202.199 191.745 200.614 190.764 198.657 190.764C196.701 190.764 195.116 191.745 195.116 192.956Z" fill="black"/>
<path d="M156.232 192.956C156.232 194.166 157.818 195.148 159.774 195.148C161.73 195.148 163.316 194.166 163.316 192.956C163.316 191.745 161.73 190.764 159.774 190.764C157.818 190.764 156.232 191.745 156.232 192.956Z" fill="black"/>
<path d="M117.349 192.956C117.349 194.166 118.935 195.148 120.891 195.148C122.847 195.148 124.433 194.166 124.433 192.956C124.433 191.745 122.847 190.764 120.891 190.764C118.935 190.764 117.349 191.745 117.349 192.956Z" fill="black"/>
<path d="M78.4662 192.956C78.4662 194.166 80.052 195.148 82.0081 195.148C83.9642 195.148 85.55 194.166 85.55 192.956C85.55 191.745 83.9642 190.764 82.0081 190.764C80.052 190.764 78.4662 191.745 78.4662 192.956Z" fill="black"/>
<path d="M39.5831 192.956C39.5831 194.166 41.1689 195.148 43.125 195.148C45.0811 195.148 46.6669 194.166 46.6669 192.956C46.6669 191.745 45.0811 190.764 43.125 190.764C41.1689 190.764 39.5831 191.745 39.5831 192.956Z" fill="black"/>
<path d="M0.699961 192.956C0.699961 194.166 2.28572 195.148 4.24186 195.148C6.19799 195.148 7.78375 194.166 7.78375 192.956C7.78375 191.745 6.19799 190.764 4.24186 190.764C2.28572 190.764 0.699961 191.745 0.699961 192.956Z" fill="black"/>
<path d="M447.516 217.021C447.516 218.348 449.254 219.423 451.398 219.423C453.541 219.423 455.279 218.348 455.279 217.021C455.279 215.694 453.541 214.619 451.398 214.619C449.254 214.619 447.516 215.694 447.516 217.021Z" fill="black"/>
<path d="M408.633 217.021C408.633 218.348 410.371 219.423 412.515 219.423C414.658 219.423 416.396 218.348 416.396 217.021C416.396 215.694 414.658 214.619 412.515 214.619C410.371 214.619 408.633 215.694 408.633 217.021Z" fill="black"/>
<path d="M369.75 217.021C369.75 218.348 371.488 219.423 373.631 219.423C375.775 219.423 377.513 218.348 377.513 217.021C377.513 215.694 375.775 214.619 373.631 214.619C371.488 214.619 369.75 215.694 369.75 217.021Z" fill="black"/>
<path d="M330.867 217.021C330.867 218.348 332.605 219.423 334.748 219.423C336.892 219.423 338.63 218.348 338.63 217.021C338.63 215.694 336.892 214.619 334.748 214.619C332.605 214.619 330.867 215.694 330.867 217.021Z" fill="black"/>
<path d="M291.984 217.021C291.984 218.348 293.722 219.423 295.865 219.423C298.009 219.423 299.746 218.348 299.746 217.021C299.746 215.694 298.009 214.619 295.865 214.619C293.722 214.619 291.984 215.694 291.984 217.021Z" fill="black"/>
<path d="M253.101 217.021C253.101 218.348 254.839 219.423 256.982 219.423C259.126 219.423 260.863 218.348 260.863 217.021C260.863 215.694 259.126 214.619 256.982 214.619C254.839 214.619 253.101 215.694 253.101 217.021Z" fill="black"/>
<path d="M214.218 217.021C214.218 218.348 215.955 219.423 218.099 219.423C220.243 219.423 221.98 218.348 221.98 217.021C221.98 215.694 220.243 214.619 218.099 214.619C215.955 214.619 214.218 215.694 214.218 217.021Z" fill="black"/>
<path d="M175.335 217.021C175.335 218.348 177.072 219.423 179.216 219.423C181.359 219.423 183.097 218.348 183.097 217.021C183.097 215.694 181.359 214.619 179.216 214.619C177.072 214.619 175.335 215.694 175.335 217.021Z" fill="black"/>
<path d="M136.452 217.021C136.452 218.348 138.189 219.423 140.333 219.423C142.476 219.423 144.214 218.348 144.214 217.021C144.214 215.694 142.476 214.619 140.333 214.619C138.189 214.619 136.452 215.694 136.452 217.021Z" fill="black"/>
<path d="M97.5684 217.021C97.5684 218.348 99.3061 219.423 101.45 219.423C103.593 219.423 105.331 218.348 105.331 217.021C105.331 215.694 103.593 214.619 101.45 214.619C99.3061 214.619 97.5684 215.694 97.5684 217.021Z" fill="black"/>
<path d="M58.6853 217.021C58.6853 218.348 60.423 219.423 62.5665 219.423C64.7101 219.423 66.4478 218.348 66.4478 217.021C66.4478 215.694 64.7101 214.619 62.5665 214.619C60.423 214.619 58.6853 215.694 58.6853 217.021Z" fill="black"/>
<path d="M19.8022 217.021C19.8022 218.348 21.5399 219.423 23.6834 219.423C25.827 219.423 27.5647 218.348 27.5647 217.021C27.5647 215.694 25.827 214.619 23.6834 214.619C21.5399 214.619 19.8022 215.694 19.8022 217.021Z" fill="black"/>
<path d="M427.714 241.086C427.714 242.536 429.613 243.712 431.956 243.712C434.299 243.712 436.198 242.536 436.198 241.086C436.198 239.636 434.299 238.461 431.956 238.461C429.613 238.461 427.714 239.636 427.714 241.086Z" fill="black"/>
<path d="M388.831 241.086C388.831 242.536 390.73 243.712 393.073 243.712C395.416 243.712 397.315 242.536 397.315 241.086C397.315 239.636 395.416 238.461 393.073 238.461C390.73 238.461 388.831 239.636 388.831 241.086Z" fill="black"/>
<path d="M349.948 241.086C349.948 242.536 351.847 243.712 354.19 243.712C356.533 243.712 358.432 242.536 358.432 241.086C358.432 239.636 356.533 238.461 354.19 238.461C351.847 238.461 349.948 239.636 349.948 241.086Z" fill="black"/>
<path d="M311.065 241.086C311.065 242.536 312.964 243.712 315.307 243.712C317.649 243.712 319.549 242.536 319.549 241.086C319.549 239.636 317.649 238.461 315.307 238.461C312.964 238.461 311.065 239.636 311.065 241.086Z" fill="black"/>
<path d="M272.182 241.086C272.182 242.536 274.081 243.712 276.424 243.712C278.766 243.712 280.665 242.536 280.665 241.086C280.665 239.636 278.766 238.461 276.424 238.461C274.081 238.461 272.182 239.636 272.182 241.086Z" fill="black"/>
<path d="M233.299 241.086C233.299 242.536 235.198 243.712 237.541 243.712C239.883 243.712 241.782 242.536 241.782 241.086C241.782 239.636 239.883 238.461 237.541 238.461C235.198 238.461 233.299 239.636 233.299 241.086Z" fill="black"/>
<path d="M194.416 241.086C194.416 242.536 196.315 243.712 198.657 243.712C201 243.712 202.899 242.536 202.899 241.086C202.899 239.636 201 238.461 198.657 238.461C196.315 238.461 194.416 239.636 194.416 241.086Z" fill="black"/>
<path d="M155.533 241.086C155.533 242.536 157.432 243.712 159.774 243.712C162.117 243.712 164.016 242.536 164.016 241.086C164.016 239.636 162.117 238.461 159.774 238.461C157.432 238.461 155.533 239.636 155.533 241.086Z" fill="black"/>
<path d="M116.649 241.086C116.649 242.536 118.549 243.712 120.891 243.712C123.234 243.712 125.133 242.536 125.133 241.086C125.133 239.636 123.234 238.461 120.891 238.461C118.549 238.461 116.649 239.636 116.649 241.086Z" fill="black"/>
<path d="M77.7663 241.086C77.7663 242.536 79.6654 243.712 82.0081 243.712C84.3508 243.712 86.2499 242.536 86.2499 241.086C86.2499 239.636 84.3508 238.461 82.0081 238.461C79.6654 238.461 77.7663 239.636 77.7663 241.086Z" fill="black"/>
<path d="M38.8832 241.086C38.8832 242.536 40.7823 243.712 43.125 243.712C45.4677 243.712 47.3668 242.536 47.3668 241.086C47.3668 239.636 45.4677 238.461 43.125 238.461C40.7823 238.461 38.8832 239.636 38.8832 241.086Z" fill="black"/>
<path d="M6.10352e-05 241.086C6.10352e-05 242.536 1.89918 243.712 4.24186 243.712C6.58453 243.712 8.48365 242.536 8.48365 241.086C8.48365 239.636 6.58453 238.461 4.24186 238.461C1.89918 238.461 6.10352e-05 239.636 6.10352e-05 241.086Z" fill="black"/>
<path d="M446.795 265.152C446.795 266.725 448.856 268 451.398 268C453.94 268 456 266.725 456 265.152C456 263.578 453.94 262.303 451.398 262.303C448.856 262.303 446.795 263.578 446.795 265.152Z" fill="black"/>
<path d="M407.912 265.152C407.912 266.725 409.973 268 412.515 268C415.056 268 417.117 266.725 417.117 265.152C417.117 263.578 415.056 262.303 412.515 262.303C409.973 262.303 407.912 263.578 407.912 265.152Z" fill="black"/>
<path d="M369.029 265.152C369.029 266.725 371.09 268 373.631 268C376.173 268 378.234 266.725 378.234 265.152C378.234 263.578 376.173 262.303 373.631 262.303C371.09 262.303 369.029 263.578 369.029 265.152Z" fill="black"/>
<path d="M330.146 265.152C330.146 266.725 332.207 268 334.748 268C337.29 268 339.351 266.725 339.351 265.152C339.351 263.578 337.29 262.303 334.748 262.303C332.207 262.303 330.146 263.578 330.146 265.152Z" fill="black"/>
<path d="M291.263 265.152C291.263 266.725 293.323 268 295.865 268C298.407 268 300.468 266.725 300.468 265.152C300.468 263.578 298.407 262.303 295.865 262.303C293.323 262.303 291.263 263.578 291.263 265.152Z" fill="black"/>
<path d="M252.38 265.152C252.38 266.725 254.44 268 256.982 268C259.524 268 261.584 266.725 261.584 265.152C261.584 263.578 259.524 262.303 256.982 262.303C254.44 262.303 252.38 263.578 252.38 265.152Z" fill="black"/>
<path d="M213.497 265.152C213.497 266.725 215.557 268 218.099 268C220.641 268 222.701 266.725 222.701 265.152C222.701 263.578 220.641 262.303 218.099 262.303C215.557 262.303 213.497 263.578 213.497 265.152Z" fill="black"/>
<path d="M174.614 265.152C174.614 266.725 176.674 268 179.216 268C181.758 268 183.818 266.725 183.818 265.152C183.818 263.578 181.758 262.303 179.216 262.303C176.674 262.303 174.614 263.578 174.614 265.152Z" fill="black"/>
<path d="M135.73 265.152C135.73 266.725 137.791 268 140.333 268C142.875 268 144.935 266.725 144.935 265.152C144.935 263.578 142.875 262.303 140.333 262.303C137.791 262.303 135.73 263.578 135.73 265.152Z" fill="black"/>
<path d="M96.8473 265.152C96.8473 266.725 98.9079 268 101.45 268C103.991 268 106.052 266.725 106.052 265.152C106.052 263.578 103.991 262.303 101.45 262.303C98.9079 262.303 96.8473 263.578 96.8473 265.152Z" fill="black"/>
<path d="M57.9642 265.152C57.9642 266.725 60.0247 268 62.5665 268C65.1083 268 67.1689 266.725 67.1689 265.152C67.1689 263.578 65.1083 262.303 62.5665 262.303C60.0247 262.303 57.9642 263.578 57.9642 265.152Z" fill="black"/>
<path d="M19.0811 265.152C19.0811 266.725 21.1416 268 23.6834 268C26.2252 268 28.2858 266.725 28.2858 265.152C28.2858 263.578 26.2252 262.303 23.6834 262.303C21.1416 262.303 19.0811 263.578 19.0811 265.152Z" fill="black"/>
</svg>
