<svg width="354" height="180" viewBox="0 0 354 180" fill="none" xmlns="http://www.w3.org/2000/svg">
<path d="M-2.20341 255.883C-1.88724 255.603 -1.88723 255.149 -2.20341 254.869C-2.51958 254.589 -3.03219 254.589 -3.34836 254.869C-3.66453 255.149 -3.66453 255.603 -3.34836 255.883C-3.03219 256.163 -2.51958 256.163 -2.20341 255.883Z" fill="black"/>
<path d="M11.4862 268.008C11.8024 267.728 11.8024 267.274 11.4863 266.994C11.1701 266.714 10.6575 266.714 10.3413 266.994C10.0251 267.274 10.0251 267.728 10.3413 268.008C10.6575 268.288 11.1701 268.288 11.4862 268.008Z" fill="black"/>
<path d="M25.1884 280.144C25.5114 279.858 25.5114 279.394 25.1884 279.108C24.8653 278.822 24.3415 278.822 24.0185 279.108C23.6955 279.394 23.6955 279.858 24.0185 280.144C24.3416 280.43 24.8653 280.43 25.1884 280.144Z" fill="black"/>
<path d="M38.878 292.269C39.2011 291.983 39.2011 291.519 38.878 291.233C38.555 290.947 38.0312 290.947 37.7082 291.233C37.3851 291.519 37.3851 291.983 37.7082 292.269C38.0312 292.555 38.555 292.555 38.878 292.269Z" fill="black"/>
<path d="M52.5552 304.383C52.8714 304.103 52.8714 303.649 52.5552 303.369C52.2391 303.089 51.7264 303.089 51.4103 303.369C51.0941 303.649 51.0941 304.103 51.4103 304.383C51.7264 304.663 52.2391 304.663 52.5552 304.383Z" fill="black"/>
<path d="M66.2449 316.509C66.5611 316.229 66.5611 315.774 66.2449 315.494C65.9287 315.214 65.4161 315.214 65.0999 315.494C64.7837 315.774 64.7838 316.229 65.0999 316.509C65.4161 316.789 65.9287 316.789 66.2449 316.509Z" fill="black"/>
<path d="M-15.8682 219.53C-15.5383 219.237 -15.5383 218.764 -15.8682 218.471C-16.1981 218.179 -16.733 218.179 -17.0629 218.471C-17.3928 218.764 -17.3928 219.237 -17.0629 219.53C-16.733 219.822 -16.1981 219.822 -15.8682 219.53Z" fill="black"/>
<path d="M-2.15362 231.677C-1.80996 231.372 -1.80996 230.879 -2.15362 230.574C-2.49729 230.27 -3.05448 230.27 -3.39814 230.574C-3.7418 230.879 -3.7418 231.372 -3.39814 231.677C-3.05448 231.981 -2.49729 231.981 -2.15362 231.677Z" fill="black"/>
<path d="M11.5485 243.813C11.899 243.502 11.899 242.999 11.5485 242.689C11.1979 242.378 10.6296 242.378 10.2791 242.689C9.92853 242.999 9.92854 243.502 10.2791 243.813C10.6296 244.123 11.1979 244.123 11.5485 243.813Z" fill="black"/>
<path d="M25.263 255.96C25.6273 255.637 25.6273 255.114 25.263 254.792C24.8987 254.469 24.3081 254.469 23.9438 254.792C23.5796 255.114 23.5796 255.637 23.9438 255.96C24.3081 256.283 24.8987 256.283 25.263 255.96Z" fill="black"/>
<path d="M38.9651 268.096C39.3363 267.767 39.3363 267.234 38.9651 266.906C38.594 266.577 37.9922 266.577 37.621 266.906C37.2499 267.234 37.2499 267.767 37.621 268.096C37.9922 268.425 38.594 268.425 38.9651 268.096Z" fill="black"/>
<path d="M52.6548 280.221C53.0259 279.893 53.0259 279.36 52.6548 279.031C52.2836 278.702 51.6819 278.702 51.3107 279.031C50.9396 279.36 50.9396 279.893 51.3107 280.221C51.6819 280.55 52.2836 280.55 52.6548 280.221Z" fill="black"/>
<path d="M66.332 292.335C66.6963 292.013 66.6963 291.49 66.332 291.167C65.9677 290.844 65.3771 290.844 65.0128 291.167C64.6485 291.49 64.6485 292.013 65.0128 292.335C65.3771 292.658 65.9677 292.658 66.332 292.335Z" fill="black"/>
<path d="M79.9967 304.439C80.3473 304.128 80.3473 303.625 79.9968 303.314C79.6462 303.004 79.0779 303.004 78.7274 303.314C78.3768 303.625 78.3768 304.128 78.7274 304.439C79.0779 304.749 79.6462 304.749 79.9967 304.439Z" fill="black"/>
<path d="M93.674 316.553C94.0176 316.248 94.0176 315.755 93.674 315.45C93.3303 315.146 92.7731 315.146 92.4295 315.45C92.0858 315.755 92.0858 316.248 92.4295 316.553C92.7731 316.857 93.3303 316.857 93.674 316.553Z" fill="black"/>
<path d="M107.339 328.656C107.669 328.363 107.669 327.89 107.339 327.598C107.009 327.305 106.474 327.305 106.144 327.598C105.814 327.89 105.814 328.363 106.144 328.656C106.474 328.948 107.009 328.948 107.339 328.656Z" fill="black"/>
<path d="M-29.5578 183.154C-29.2279 182.862 -29.2279 182.388 -29.5578 182.096C-29.8877 181.804 -30.4226 181.804 -30.7526 182.096C-31.0825 182.388 -31.0825 182.862 -30.7526 183.154C-30.4226 183.446 -29.8877 183.446 -29.5578 183.154Z" fill="black"/>
<path d="M-15.8308 195.312C-15.4803 195.002 -15.4803 194.499 -15.8308 194.188C-16.1814 193.878 -16.7497 193.878 -17.1002 194.188C-17.4508 194.499 -17.4508 195.002 -17.1002 195.312C-16.7497 195.623 -16.1814 195.623 -15.8308 195.312Z" fill="black"/>
<path d="M-2.11629 207.46C-1.75201 207.137 -1.75201 206.614 -2.11629 206.291C-2.48057 205.969 -3.07119 205.969 -3.43547 206.291C-3.79976 206.614 -3.79976 207.137 -3.43548 207.46C-3.07119 207.782 -2.48058 207.782 -2.11629 207.46Z" fill="black"/>
<path d="M11.5983 219.607C11.9763 219.272 11.9763 218.729 11.5983 218.394C11.2202 218.059 10.6073 218.059 10.2293 218.394C9.85126 218.729 9.85126 219.272 10.2293 219.607C10.6073 219.942 11.2202 219.942 11.5983 219.607Z" fill="black"/>
<path d="M25.3128 231.754C25.7046 231.407 25.7046 230.844 25.3128 230.497C24.921 230.15 24.2858 230.15 23.8941 230.497C23.5023 230.844 23.5023 231.407 23.8941 231.754C24.2858 232.101 24.921 232.101 25.3128 231.754Z" fill="black"/>
<path d="M39.0274 243.901C39.4329 243.542 39.4329 242.96 39.0274 242.6C38.6218 242.241 37.9644 242.241 37.5588 242.6C37.1533 242.96 37.1533 243.542 37.5588 243.901C37.9643 244.26 38.6218 244.26 39.0274 243.901Z" fill="black"/>
<path d="M52.7419 256.048C53.1612 255.677 53.1612 255.075 52.7419 254.703C52.3226 254.332 51.6429 254.332 51.2236 254.703C50.8043 255.075 50.8043 255.677 51.2236 256.048C51.6429 256.42 52.3226 256.42 52.7419 256.048Z" fill="black"/>
<path d="M66.4316 268.173C66.8508 267.802 66.8508 267.2 66.4316 266.829C66.0123 266.457 65.3325 266.457 64.9132 266.829C64.494 267.2 64.494 267.802 64.9132 268.173C65.3325 268.545 66.0123 268.545 66.4316 268.173Z" fill="black"/>
<path d="M80.0963 280.276C80.5018 279.917 80.5018 279.335 80.0963 278.976C79.6908 278.617 79.0333 278.617 78.6278 278.976C78.2223 279.335 78.2223 279.917 78.6278 280.276C79.0333 280.636 79.6908 280.636 80.0963 280.276Z" fill="black"/>
<path d="M93.7611 292.38C94.1529 292.033 94.1529 291.47 93.7611 291.123C93.3693 290.776 92.7341 290.776 92.3423 291.123C91.9506 291.47 91.9506 292.033 92.3423 292.38C92.7341 292.727 93.3693 292.727 93.7611 292.38Z" fill="black"/>
<path d="M107.426 304.483C107.804 304.148 107.804 303.605 107.426 303.27C107.048 302.935 106.435 302.935 106.057 303.27C105.679 303.605 105.679 304.148 106.057 304.483C106.435 304.817 107.048 304.817 107.426 304.483Z" fill="black"/>
<path d="M121.091 316.586C121.455 316.263 121.455 315.74 121.091 315.417C120.726 315.095 120.136 315.095 119.771 315.417C119.407 315.74 119.407 316.263 119.771 316.586C120.136 316.908 120.726 316.908 121.091 316.586Z" fill="black"/>
<path d="M134.755 328.689C135.106 328.378 135.106 327.875 134.755 327.564C134.405 327.254 133.837 327.254 133.486 327.564C133.135 327.875 133.135 328.378 133.486 328.689C133.837 328.999 134.405 328.999 134.755 328.689Z" fill="black"/>
<path d="M148.408 340.781C148.738 340.489 148.738 340.015 148.408 339.723C148.078 339.43 147.543 339.43 147.213 339.723C146.883 340.015 146.883 340.489 147.213 340.781C147.543 341.073 148.078 341.073 148.408 340.781Z" fill="black"/>
<path d="M-29.5578 158.904C-29.2279 158.612 -29.2279 158.138 -29.5578 157.846C-29.8877 157.554 -30.4226 157.554 -30.7526 157.846C-31.0825 158.138 -31.0825 158.612 -30.7526 158.904C-30.4226 159.196 -29.8877 159.196 -29.5578 158.904Z" fill="black"/>
<path d="M-15.8308 171.062C-15.4803 170.752 -15.4803 170.248 -15.8308 169.938C-16.1814 169.627 -16.7497 169.627 -17.1002 169.938C-17.4508 170.248 -17.4508 170.752 -17.1002 171.062C-16.7497 171.373 -16.1814 171.373 -15.8308 171.062Z" fill="black"/>
<path d="M-2.10384 183.22C-1.73269 182.892 -1.73269 182.359 -2.10384 182.03C-2.475 181.701 -3.07676 181.701 -3.44792 182.03C-3.81907 182.359 -3.81907 182.892 -3.44792 183.22C-3.07676 183.549 -2.475 183.549 -2.10384 183.22Z" fill="black"/>
<path d="M11.6231 195.379C12.0149 195.032 12.0149 194.469 11.6231 194.122C11.2314 193.775 10.5962 193.775 10.2044 194.122C9.81263 194.469 9.81263 195.032 10.2044 195.379C10.5962 195.726 11.2314 195.726 11.6231 195.379Z" fill="black"/>
<path d="M25.3501 207.537C25.7625 207.171 25.7625 206.579 25.3501 206.214C24.9377 205.849 24.2691 205.849 23.8567 206.214C23.4443 206.579 23.4443 207.171 23.8567 207.537C24.2691 207.902 24.9377 207.902 25.3501 207.537Z" fill="black"/>
<path d="M39.0647 219.684C39.4908 219.306 39.4908 218.695 39.0647 218.317C38.6385 217.94 37.9476 217.94 37.5215 218.317C37.0953 218.695 37.0954 219.306 37.5215 219.684C37.9476 220.061 38.6385 220.061 39.0647 219.684Z" fill="black"/>
<path d="M52.7917 231.842C53.2384 231.446 53.2384 230.805 52.7917 230.409C52.3449 230.013 51.6206 230.013 51.1738 230.409C50.727 230.805 50.727 231.446 51.1738 231.842C51.6206 232.238 52.3449 232.238 52.7917 231.842Z" fill="black"/>
<path d="M66.5187 244C66.9861 243.586 66.9861 242.915 66.5187 242.501C66.0513 242.087 65.2935 242.087 64.8261 242.501C64.3588 242.915 64.3588 243.586 64.8261 244C65.2935 244.414 66.0513 244.414 66.5187 244Z" fill="black"/>
<path d="M80.2083 256.125C80.6757 255.711 80.6757 255.04 80.2083 254.626C79.7409 254.212 78.9832 254.212 78.5158 254.626C78.0484 255.04 78.0484 255.711 78.5158 256.125C78.9832 256.539 79.7409 256.539 80.2083 256.125Z" fill="black"/>
<path d="M93.8607 268.217C94.3074 267.822 94.3074 267.18 93.8607 266.785C93.4139 266.389 92.6895 266.389 92.2428 266.785C91.796 267.18 91.796 267.822 92.2428 268.217C92.6895 268.613 93.4139 268.613 93.8607 268.217Z" fill="black"/>
<path d="M107.513 280.31C107.939 279.932 107.939 279.32 107.513 278.943C107.087 278.565 106.396 278.565 105.97 278.943C105.544 279.32 105.544 279.932 105.97 280.31C106.396 280.687 107.087 280.687 107.513 280.31Z" fill="black"/>
<path d="M121.178 292.413C121.59 292.047 121.59 291.455 121.178 291.09C120.765 290.725 120.097 290.725 119.684 291.09C119.272 291.455 119.272 292.047 119.684 292.413C120.097 292.778 120.765 292.778 121.178 292.413Z" fill="black"/>
<path d="M134.83 304.505C135.222 304.158 135.222 303.595 134.83 303.248C134.438 302.901 133.803 302.901 133.411 303.248C133.02 303.595 133.02 304.158 133.411 304.505C133.803 304.852 134.438 304.852 134.83 304.505Z" fill="black"/>
<path d="M148.482 316.597C148.854 316.268 148.854 315.735 148.482 315.406C148.111 315.078 147.509 315.078 147.138 315.406C146.767 315.735 146.767 316.268 147.138 316.597C147.509 316.925 148.111 316.925 148.482 316.597Z" fill="black"/>
<path d="M162.135 328.689C162.485 328.378 162.485 327.875 162.135 327.564C161.784 327.254 161.216 327.254 160.865 327.564C160.515 327.875 160.515 328.378 160.865 328.689C161.216 328.999 161.784 328.999 162.135 328.689Z" fill="black"/>
<path d="M175.787 340.781C176.117 340.489 176.117 340.015 175.787 339.723C175.457 339.43 174.922 339.43 174.592 339.723C174.262 340.015 174.262 340.489 174.592 340.781C174.922 341.073 175.457 341.073 175.787 340.781Z" fill="black"/>
<path d="M-15.8308 146.812C-15.4803 146.501 -15.4803 145.998 -15.8308 145.688C-16.1814 145.377 -16.7497 145.377 -17.1002 145.688C-17.4508 145.998 -17.4508 146.501 -17.1002 146.812C-16.7497 147.122 -16.1814 147.122 -15.8308 146.812Z" fill="black"/>
<path d="M-2.10384 158.97C-1.73269 158.641 -1.73269 158.108 -2.10384 157.78C-2.475 157.451 -3.07676 157.451 -3.44792 157.78C-3.81907 158.108 -3.81907 158.641 -3.44792 158.97C-3.07676 159.299 -2.475 159.299 -2.10384 158.97Z" fill="black"/>
<path d="M11.6231 171.128C12.0149 170.781 12.0149 170.219 11.6231 169.872C11.2314 169.525 10.5962 169.525 10.2044 169.872C9.81263 170.219 9.81263 170.781 10.2044 171.128C10.5962 171.475 11.2314 171.475 11.6231 171.128Z" fill="black"/>
<path d="M25.3626 183.298C25.7819 182.926 25.7819 182.324 25.3626 181.953C24.9433 181.581 24.2635 181.581 23.8443 181.953C23.425 182.324 23.425 182.926 23.8443 183.298C24.2635 183.669 24.9433 183.669 25.3626 183.298Z" fill="black"/>
<path d="M39.102 195.467C39.5488 195.071 39.5488 194.429 39.102 194.034C38.6553 193.638 37.9309 193.638 37.4842 194.034C37.0374 194.429 37.0374 195.071 37.4842 195.467C37.9309 195.862 38.6553 195.862 39.102 195.467Z" fill="black"/>
<path d="M52.829 207.625C53.2964 207.211 53.2964 206.54 52.829 206.126C52.3616 205.712 51.6039 205.712 51.1365 206.126C50.6691 206.54 50.6691 207.211 51.1365 207.625C51.6039 208.039 52.3616 208.039 52.829 207.625Z" fill="black"/>
<path d="M66.5685 219.794C67.0633 219.356 67.0633 218.645 66.5685 218.207C66.0736 217.769 65.2712 217.769 64.7764 218.207C64.2815 218.645 64.2815 219.356 64.7764 219.794C65.2712 220.232 66.0736 220.232 66.5685 219.794Z" fill="black"/>
<path d="M80.2954 231.952C80.8109 231.496 80.8109 230.755 80.2954 230.299C79.78 229.842 78.9442 229.842 78.4287 230.299C77.9132 230.755 77.9132 231.496 78.4287 231.952C78.9442 232.409 79.78 232.409 80.2954 231.952Z" fill="black"/>
<path d="M93.9851 244.077C94.5006 243.621 94.5006 242.881 93.9851 242.424C93.4696 241.967 92.6338 241.967 92.1183 242.424C91.6028 242.881 91.6028 243.621 92.1183 244.077C92.6338 244.534 93.4696 244.534 93.9851 244.077Z" fill="black"/>
<path d="M107.637 256.17C108.132 255.731 108.132 255.021 107.637 254.582C107.143 254.144 106.34 254.144 105.845 254.582C105.35 255.021 105.35 255.731 105.845 256.17C106.34 256.608 107.143 256.608 107.637 256.17Z" fill="black"/>
<path d="M121.277 268.251C121.745 267.837 121.745 267.165 121.277 266.751C120.81 266.337 120.052 266.337 119.585 266.751C119.117 267.165 119.117 267.837 119.585 268.251C120.052 268.665 120.81 268.664 121.277 268.251Z" fill="black"/>
<path d="M134.93 280.343C135.376 279.947 135.376 279.305 134.93 278.91C134.483 278.514 133.759 278.514 133.312 278.91C132.865 279.305 132.865 279.947 133.312 280.343C133.759 280.738 134.483 280.738 134.93 280.343Z" fill="black"/>
<path d="M148.569 292.424C148.989 292.052 148.989 291.45 148.569 291.079C148.15 290.707 147.47 290.707 147.051 291.079C146.632 291.45 146.632 292.052 147.051 292.424C147.47 292.795 148.15 292.795 148.569 292.424Z" fill="black"/>
<path d="M162.209 304.505C162.601 304.158 162.601 303.595 162.209 303.248C161.818 302.901 161.182 302.901 160.791 303.248C160.399 303.595 160.399 304.158 160.791 304.505C161.182 304.852 161.818 304.852 162.209 304.505Z" fill="black"/>
<path d="M175.862 316.597C176.233 316.268 176.233 315.735 175.862 315.406C175.491 315.078 174.889 315.078 174.518 315.406C174.146 315.735 174.146 316.268 174.518 316.597C174.889 316.925 175.491 316.925 175.862 316.597Z" fill="black"/>
<path d="M189.514 328.689C189.865 328.378 189.865 327.875 189.514 327.564C189.163 327.254 188.595 327.254 188.245 327.564C187.894 327.875 187.894 328.378 188.245 328.689C188.595 328.999 189.163 328.999 189.514 328.689Z" fill="black"/>
<path d="M-15.8682 122.529C-15.5383 122.236 -15.5383 121.763 -15.8682 121.47C-16.1981 121.178 -16.733 121.178 -17.0629 121.47C-17.3928 121.763 -17.3928 122.236 -17.0629 122.529C-16.733 122.821 -16.1981 122.821 -15.8682 122.529Z" fill="black"/>
<path d="M-2.11629 134.709C-1.75201 134.386 -1.75201 133.863 -2.11629 133.54C-2.48058 133.218 -3.07119 133.218 -3.43548 133.54C-3.79976 133.863 -3.79976 134.386 -3.43547 134.709C-3.07119 135.031 -2.48057 135.031 -2.11629 134.709Z" fill="black"/>
<path d="M11.6231 146.878C12.0149 146.531 12.0149 145.968 11.6231 145.621C11.2314 145.274 10.5962 145.274 10.2044 145.621C9.81263 145.968 9.81263 146.531 10.2044 146.878C10.5962 147.225 11.2314 147.225 11.6231 146.878Z" fill="black"/>
<path d="M25.3626 159.047C25.7819 158.676 25.7819 158.074 25.3626 157.702C24.9433 157.331 24.2635 157.331 23.8443 157.702C23.425 158.074 23.425 158.676 23.8443 159.047C24.2635 159.419 24.9433 159.419 25.3626 159.047Z" fill="black"/>
<path d="M39.102 171.216C39.5488 170.821 39.5488 170.179 39.102 169.784C38.6553 169.388 37.9309 169.388 37.4842 169.784C37.0374 170.179 37.0374 170.821 37.4842 171.216C37.9309 171.612 38.6553 171.612 39.102 171.216Z" fill="black"/>
<path d="M52.8415 183.386C53.3157 182.966 53.3157 182.285 52.8415 181.865C52.3672 181.445 51.5983 181.444 51.124 181.865C50.6498 182.285 50.6498 182.966 51.124 183.386C51.5983 183.806 52.3672 183.806 52.8415 183.386Z" fill="black"/>
<path d="M66.5933 195.566C67.102 195.115 67.102 194.385 66.5933 193.935C66.0847 193.484 65.2601 193.484 64.7515 193.935C64.2428 194.385 64.2428 195.115 64.7515 195.566C65.2601 196.016 66.0847 196.016 66.5933 195.566Z" fill="black"/>
<path d="M80.3328 207.735C80.8689 207.26 80.8689 206.49 80.3328 206.016C79.7967 205.541 78.9275 205.541 78.3913 206.016C77.8552 206.49 77.8552 207.26 78.3913 207.735C78.9275 208.21 79.7967 208.21 80.3328 207.735Z" fill="black"/>
<path d="M94.0722 219.904C94.6358 219.405 94.6358 218.596 94.0722 218.097C93.5086 217.597 92.5948 217.597 92.0312 218.097C91.4676 218.596 91.4676 219.405 92.0312 219.904C92.5948 220.404 93.5086 220.404 94.0722 219.904Z" fill="black"/>
<path d="M107.762 232.029C108.325 231.53 108.325 230.721 107.762 230.222C107.198 229.723 106.284 229.723 105.721 230.222C105.157 230.721 105.157 231.53 105.721 232.029C106.284 232.529 107.198 232.529 107.762 232.029Z" fill="black"/>
<path d="M121.402 244.111C121.938 243.636 121.938 242.866 121.402 242.391C120.866 241.916 119.996 241.916 119.46 242.391C118.924 242.866 118.924 243.636 119.46 244.111C119.996 244.585 120.866 244.585 121.402 244.111Z" fill="black"/>
<path d="M135.042 256.192C135.55 255.741 135.55 255.011 135.042 254.56C134.533 254.11 133.708 254.11 133.2 254.56C132.691 255.011 132.691 255.741 133.2 256.192C133.708 256.642 134.533 256.642 135.042 256.192Z" fill="black"/>
<path d="M148.669 268.262C149.143 267.842 149.143 267.16 148.669 266.74C148.195 266.32 147.426 266.32 146.952 266.74C146.477 267.16 146.477 267.842 146.952 268.262C147.426 268.682 148.195 268.682 148.669 268.262Z" fill="black"/>
<path d="M162.309 280.343C162.756 279.947 162.756 279.305 162.309 278.91C161.862 278.514 161.138 278.514 160.691 278.91C160.244 279.305 160.244 279.947 160.691 280.343C161.138 280.738 161.862 280.738 162.309 280.343Z" fill="black"/>
<path d="M175.949 292.424C176.368 292.052 176.368 291.45 175.949 291.079C175.53 290.707 174.85 290.707 174.43 291.079C174.011 291.45 174.011 292.052 174.43 292.424C174.85 292.795 175.53 292.795 175.949 292.424Z" fill="black"/>
<path d="M189.589 304.505C189.98 304.158 189.98 303.595 189.589 303.248C189.197 302.901 188.562 302.901 188.17 303.248C187.778 303.595 187.778 304.158 188.17 304.505C188.562 304.852 189.197 304.852 189.589 304.505Z" fill="black"/>
<path d="M203.229 316.586C203.593 316.263 203.593 315.74 203.229 315.417C202.864 315.095 202.274 315.095 201.909 315.417C201.545 315.74 201.545 316.263 201.909 316.586C202.274 316.908 202.864 316.908 203.229 316.586Z" fill="black"/>
<path d="M216.856 328.656C217.186 328.363 217.186 327.89 216.856 327.598C216.526 327.305 215.991 327.305 215.661 327.598C215.331 327.89 215.331 328.363 215.661 328.656C215.991 328.948 216.526 328.948 216.856 328.656Z" fill="black"/>
<path d="M-2.15362 110.426C-1.80996 110.121 -1.80996 109.628 -2.15362 109.323C-2.49729 109.019 -3.05448 109.019 -3.39814 109.323C-3.7418 109.628 -3.7418 110.121 -3.39814 110.426C-3.05448 110.73 -2.49729 110.73 -2.15362 110.426Z" fill="black"/>
<path d="M11.5983 122.606C11.9763 122.271 11.9763 121.728 11.5983 121.393C11.2202 121.058 10.6073 121.058 10.2293 121.393C9.85126 121.728 9.85126 122.271 10.2293 122.606C10.6073 122.941 11.2202 122.941 11.5983 122.606Z" fill="black"/>
<path d="M25.3501 134.786C25.7625 134.421 25.7625 133.829 25.3501 133.463C24.9377 133.098 24.2691 133.098 23.8567 133.463C23.4443 133.829 23.4443 134.421 23.8567 134.786C24.2691 135.151 24.9377 135.151 25.3501 134.786Z" fill="black"/>
<path d="M39.0896 146.955C39.5295 146.566 39.5295 145.934 39.0896 145.544C38.6497 145.155 37.9365 145.155 37.4966 145.544C37.0567 145.934 37.0567 146.566 37.4966 146.955C37.9365 147.345 38.6497 147.345 39.0896 146.955Z" fill="black"/>
<path d="M52.8415 159.135C53.3157 158.715 53.3157 158.034 52.8415 157.614C52.3672 157.194 51.5983 157.194 51.124 157.614C50.6498 158.034 50.6498 158.715 51.124 159.135C51.5983 159.556 52.3672 159.556 52.8415 159.135Z" fill="black"/>
<path d="M66.5933 171.316C67.102 170.865 67.102 170.135 66.5933 169.684C66.0847 169.234 65.2601 169.234 64.7515 169.684C64.2428 170.135 64.2428 170.865 64.7515 171.316C65.2601 171.766 66.0847 171.766 66.5933 171.316Z" fill="black"/>
<path d="M80.3452 183.496C80.8882 183.015 80.8882 182.235 80.3452 181.754C79.8022 181.273 78.9219 181.273 78.3789 181.754C77.8359 182.235 77.8359 183.015 78.3789 183.496C78.9219 183.977 79.8022 183.977 80.3452 183.496Z" fill="black"/>
<path d="M94.0971 195.676C94.6745 195.165 94.6745 194.336 94.0971 193.824C93.5198 193.313 92.5837 193.313 92.0063 193.824C91.429 194.336 91.429 195.165 92.0063 195.676C92.5837 196.188 93.5198 196.188 94.0971 195.676Z" fill="black"/>
<path d="M107.849 207.856C108.461 207.315 108.461 206.436 107.849 205.894C107.237 205.353 106.245 205.353 105.634 205.894C105.022 206.436 105.022 207.315 105.634 207.856C106.245 208.398 107.237 208.398 107.849 207.856Z" fill="black"/>
<path d="M121.539 219.982C122.15 219.44 122.15 218.561 121.539 218.019C120.927 217.478 119.935 217.478 119.323 218.019C118.712 218.561 118.712 219.44 119.323 219.982C119.935 220.523 120.927 220.523 121.539 219.982Z" fill="black"/>
<path d="M135.166 232.052C135.743 231.54 135.743 230.711 135.166 230.2C134.589 229.688 133.653 229.688 133.075 230.2C132.498 230.711 132.498 231.54 133.075 232.052C133.653 232.563 134.589 232.563 135.166 232.052Z" fill="black"/>
<path d="M148.794 244.122C149.336 243.641 149.337 242.861 148.794 242.38C148.251 241.899 147.37 241.899 146.827 242.38C146.284 242.861 146.284 243.641 146.827 244.122C147.37 244.602 148.251 244.602 148.794 244.122Z" fill="black"/>
<path d="M162.421 256.192C162.93 255.741 162.93 255.011 162.421 254.56C161.912 254.11 161.088 254.11 160.579 254.56C160.07 255.011 160.07 255.741 160.579 256.192C161.088 256.642 161.912 256.642 162.421 256.192Z" fill="black"/>
<path d="M176.048 268.262C176.523 267.842 176.523 267.16 176.048 266.74C175.574 266.32 174.805 266.32 174.331 266.74C173.857 267.16 173.857 267.842 174.331 268.262C174.805 268.682 175.574 268.682 176.048 268.262Z" fill="black"/>
<path d="M189.676 280.332C190.116 279.942 190.116 279.31 189.676 278.921C189.236 278.531 188.523 278.531 188.083 278.921C187.643 279.31 187.643 279.942 188.083 280.332C188.523 280.721 189.236 280.721 189.676 280.332Z" fill="black"/>
<path d="M203.316 292.413C203.728 292.047 203.728 291.455 203.316 291.09C202.903 290.725 202.235 290.725 201.822 291.09C201.41 291.455 201.41 292.047 201.822 292.413C202.235 292.778 202.903 292.778 203.316 292.413Z" fill="black"/>
<path d="M216.943 304.483C217.321 304.148 217.321 303.605 216.943 303.27C216.565 302.935 215.952 302.935 215.574 303.27C215.196 303.605 215.196 304.148 215.574 304.483C215.952 304.817 216.565 304.817 216.943 304.483Z" fill="black"/>
<path d="M230.571 316.553C230.914 316.248 230.914 315.755 230.571 315.45C230.227 315.146 229.67 315.146 229.326 315.45C228.982 315.755 228.982 316.248 229.326 316.553C229.67 316.857 230.227 316.857 230.571 316.553Z" fill="black"/>
<path d="M-2.20341 86.1312C-1.88723 85.8511 -1.88724 85.3971 -2.20341 85.1171C-2.51958 84.837 -3.03219 84.837 -3.34836 85.1171C-3.66453 85.3971 -3.66453 85.8511 -3.34836 86.1312C-3.03219 86.4112 -2.51958 86.4112 -2.20341 86.1312Z" fill="black"/>
<path d="M11.5485 98.3114C11.899 98.0009 11.899 97.4976 11.5485 97.1871C11.1979 96.8766 10.6296 96.8766 10.2791 97.1871C9.92854 97.4976 9.92853 98.0009 10.2791 98.3114C10.6296 98.6219 11.1979 98.6219 11.5485 98.3114Z" fill="black"/>
<path d="M25.3128 110.503C25.7046 110.156 25.7046 109.593 25.3128 109.246C24.921 108.899 24.2858 108.899 23.8941 109.246C23.5023 109.593 23.5023 110.156 23.8941 110.503C24.2858 110.85 24.921 110.85 25.3128 110.503Z" fill="black"/>
<path d="M39.0647 122.683C39.4908 122.305 39.4908 121.694 39.0647 121.316C38.6385 120.939 37.9476 120.939 37.5215 121.316C37.0954 121.694 37.0953 122.305 37.5215 122.683C37.9476 123.06 38.6385 123.06 39.0647 122.683Z" fill="black"/>
<path d="M52.829 134.874C53.2964 134.46 53.2964 133.789 52.829 133.375C52.3616 132.961 51.6039 132.961 51.1365 133.375C50.6691 133.789 50.6691 134.46 51.1365 134.874C51.6039 135.288 52.3616 135.288 52.829 134.874Z" fill="black"/>
<path d="M66.5933 147.065C67.102 146.615 67.102 145.885 66.5933 145.434C66.0847 144.984 65.2601 144.984 64.7515 145.434C64.2428 145.885 64.2428 146.615 64.7515 147.065C65.2601 147.516 66.0847 147.516 66.5933 147.065Z" fill="black"/>
<path d="M80.3452 159.246C80.8882 158.765 80.8882 157.985 80.3452 157.504C79.8022 157.023 78.9219 157.023 78.3789 157.504C77.8359 157.985 77.8359 158.765 78.3789 159.246C78.9219 159.727 79.8022 159.727 80.3452 159.246Z" fill="black"/>
<path d="M94.1096 171.437C94.6938 170.919 94.6938 170.081 94.1096 169.563C93.5253 169.046 92.5781 169.046 91.9939 169.563C91.4097 170.081 91.4097 170.919 91.9939 171.437C92.5781 171.954 93.5253 171.954 94.1096 171.437Z" fill="black"/>
<path d="M107.861 183.617C108.48 183.069 108.48 182.181 107.861 181.633C107.243 181.085 106.24 181.085 105.621 181.633C105.003 182.181 105.003 183.069 105.621 183.617C106.24 184.165 107.243 184.165 107.861 183.617Z" fill="black"/>
<path d="M121.626 195.808C122.286 195.224 122.286 194.276 121.626 193.692C120.966 193.108 119.896 193.108 119.236 193.692C118.576 194.276 118.576 195.224 119.236 195.808C119.896 196.393 120.966 196.393 121.626 195.808Z" fill="black"/>
<path d="M135.315 207.934C135.975 207.349 135.975 206.402 135.315 205.817C134.656 205.233 133.586 205.233 132.926 205.817C132.266 206.402 132.266 207.349 132.926 207.934C133.586 208.518 134.656 208.518 135.315 207.934Z" fill="black"/>
<path d="M148.93 219.993C149.549 219.445 149.549 218.556 148.93 218.008C148.312 217.461 147.309 217.461 146.69 218.008C146.072 218.556 146.072 219.445 146.69 219.993C147.309 220.54 148.312 220.54 148.93 219.993Z" fill="black"/>
<path d="M162.558 232.063C163.142 231.545 163.142 230.706 162.558 230.189C161.974 229.671 161.026 229.671 160.442 230.189C159.858 230.706 159.858 231.545 160.442 232.063C161.026 232.58 161.974 232.58 162.558 232.063Z" fill="black"/>
<path d="M176.173 244.122C176.716 243.641 176.716 242.861 176.173 242.38C175.63 241.899 174.749 241.899 174.206 242.38C173.664 242.861 173.663 243.641 174.206 244.122C174.749 244.602 175.63 244.602 176.173 244.122Z" fill="black"/>
<path d="M189.8 256.192C190.309 255.741 190.309 255.011 189.8 254.56C189.292 254.11 188.467 254.11 187.958 254.56C187.45 255.011 187.45 255.741 187.958 256.192C188.467 256.642 189.292 256.642 189.8 256.192Z" fill="black"/>
<path d="M203.415 268.251C203.883 267.837 203.883 267.165 203.415 266.751C202.948 266.337 202.19 266.337 201.723 266.751C201.255 267.165 201.255 267.837 201.723 268.251C202.19 268.665 202.948 268.664 203.415 268.251Z" fill="black"/>
<path d="M217.03 280.31C217.456 279.932 217.456 279.32 217.03 278.943C216.604 278.565 215.913 278.565 215.487 278.943C215.061 279.32 215.061 279.932 215.487 280.31C215.913 280.687 216.604 280.687 217.03 280.31Z" fill="black"/>
<path d="M230.658 292.38C231.049 292.033 231.049 291.47 230.658 291.123C230.266 290.776 229.631 290.776 229.239 291.123C228.847 291.47 228.847 292.033 229.239 292.38C229.631 292.727 230.266 292.727 230.658 292.38Z" fill="black"/>
<path d="M244.273 304.439C244.623 304.128 244.623 303.625 244.273 303.314C243.922 303.004 243.354 303.004 243.003 303.314C242.653 303.625 242.653 304.128 243.003 304.439C243.354 304.749 243.922 304.749 244.273 304.439Z" fill="black"/>
<path d="M257.9 316.509C258.216 316.229 258.216 315.774 257.9 315.494C257.584 315.214 257.071 315.214 256.755 315.494C256.439 315.774 256.439 316.229 256.755 316.509C257.071 316.789 257.584 316.789 257.9 316.509Z" fill="black"/>
<path d="M11.4863 74.0061C11.8024 73.726 11.8024 73.272 11.4862 72.992C11.1701 72.7119 10.6575 72.7119 10.3413 72.992C10.0251 73.272 10.0251 73.726 10.3413 74.0061C10.6575 74.2861 11.1701 74.2861 11.4863 74.0061Z" fill="black"/>
<path d="M25.263 86.2083C25.6273 85.8857 25.6273 85.3626 25.263 85.0399C24.8987 84.7173 24.3081 84.7173 23.9438 85.0399C23.5796 85.3626 23.5796 85.8857 23.9438 86.2083C24.3081 86.531 24.8987 86.531 25.263 86.2083Z" fill="black"/>
<path d="M39.0274 98.3996C39.4329 98.0404 39.4329 97.4581 39.0274 97.0989C38.6218 96.7397 37.9643 96.7397 37.5588 97.0989C37.1533 97.4581 37.1533 98.0404 37.5588 98.3996C37.9644 98.7588 38.6218 98.7588 39.0274 98.3996Z" fill="black"/>
<path d="M52.7917 110.591C53.2384 110.195 53.2384 109.554 52.7917 109.158C52.3449 108.762 51.6206 108.762 51.1738 109.158C50.727 109.554 50.727 110.195 51.1738 110.591C51.6206 110.987 52.3449 110.987 52.7917 110.591Z" fill="black"/>
<path d="M66.5685 122.793C67.0633 122.355 67.0633 121.644 66.5685 121.206C66.0736 120.768 65.2712 120.768 64.7764 121.206C64.2815 121.644 64.2815 122.355 64.7764 122.793C65.2712 123.231 66.0736 123.231 66.5685 122.793Z" fill="black"/>
<path d="M80.3328 134.984C80.8689 134.51 80.8689 133.74 80.3328 133.265C79.7967 132.79 78.9275 132.79 78.3913 133.265C77.8552 133.74 77.8552 134.51 78.3913 134.984C78.9275 135.459 79.7967 135.459 80.3328 134.984Z" fill="black"/>
<path d="M94.0971 147.176C94.6745 146.664 94.6745 145.835 94.0971 145.324C93.5198 144.812 92.5837 144.812 92.0063 145.324C91.429 145.835 91.429 146.664 92.0063 147.176C92.5837 147.687 93.5198 147.687 94.0971 147.176Z" fill="black"/>
<path d="M107.861 159.367C108.48 158.819 108.48 157.931 107.861 157.383C107.243 156.835 106.24 156.835 105.621 157.383C105.003 157.931 105.003 158.819 105.621 159.367C106.24 159.915 107.243 159.915 107.861 159.367Z" fill="black"/>
<path d="M121.638 171.569C122.305 170.979 122.305 170.021 121.638 169.431C120.972 168.84 119.891 168.84 119.224 169.431C118.557 170.021 118.557 170.979 119.224 171.569C119.891 172.16 120.972 172.16 121.638 171.569Z" fill="black"/>
<path d="M135.403 183.76C136.11 183.133 136.11 182.117 135.403 181.49C134.695 180.863 133.547 180.863 132.839 181.49C132.131 182.117 132.131 183.133 132.839 183.76C133.547 184.388 134.695 184.388 135.403 183.76Z" fill="black"/>
<path d="M149.092 195.886C149.8 195.259 149.8 194.242 149.092 193.615C148.384 192.988 147.236 192.988 146.528 193.615C145.821 194.242 145.821 195.259 146.528 195.886C147.236 196.513 148.384 196.513 149.092 195.886Z" fill="black"/>
<path d="M162.707 207.945C163.374 207.354 163.374 206.397 162.707 205.806C162.04 205.216 160.96 205.216 160.293 205.806C159.626 206.397 159.626 207.354 160.293 207.945C160.96 208.535 162.04 208.535 162.707 207.945Z" fill="black"/>
<path d="M176.31 219.993C176.928 219.445 176.928 218.556 176.31 218.008C175.691 217.461 174.688 217.461 174.07 218.008C173.451 218.556 173.451 219.445 174.07 219.993C174.688 220.54 175.691 220.54 176.31 219.993Z" fill="black"/>
<path d="M189.925 232.052C190.502 231.54 190.502 230.711 189.925 230.2C189.347 229.688 188.411 229.688 187.834 230.2C187.257 230.711 187.257 231.54 187.834 232.052C188.411 232.563 189.347 232.563 189.925 232.052Z" fill="black"/>
<path d="M203.54 244.111C204.076 243.636 204.076 242.866 203.54 242.391C203.004 241.916 202.134 241.916 201.598 242.391C201.062 242.866 201.062 243.636 201.598 244.111C202.134 244.585 203.004 244.585 203.54 244.111Z" fill="black"/>
<path d="M217.155 256.17C217.65 255.731 217.65 255.021 217.155 254.582C216.66 254.144 215.857 254.144 215.363 254.582C214.868 255.021 214.868 255.731 215.363 256.17C215.857 256.608 216.66 256.608 217.155 256.17Z" fill="black"/>
<path d="M230.757 268.217C231.204 267.822 231.204 267.18 230.757 266.785C230.31 266.389 229.586 266.389 229.139 266.785C228.693 267.18 228.693 267.822 229.139 268.217C229.586 268.613 230.31 268.613 230.757 268.217Z" fill="black"/>
<path d="M244.372 280.276C244.778 279.917 244.778 279.335 244.372 278.976C243.967 278.617 243.309 278.617 242.904 278.976C242.498 279.335 242.498 279.917 242.904 280.276C243.309 280.636 243.967 280.636 244.372 280.276Z" fill="black"/>
<path d="M257.987 292.335C258.351 292.013 258.351 291.49 257.987 291.167C257.623 290.844 257.032 290.844 256.668 291.167C256.304 291.49 256.304 292.013 256.668 292.335C257.032 292.658 257.623 292.658 257.987 292.335Z" fill="black"/>
<path d="M271.59 304.383C271.906 304.103 271.906 303.649 271.59 303.369C271.274 303.089 270.761 303.089 270.445 303.369C270.129 303.649 270.129 304.103 270.445 304.383C270.761 304.663 271.274 304.663 271.59 304.383Z" fill="black"/>
<path d="M25.1884 61.8919C25.5114 61.6058 25.5114 61.1419 25.1884 60.8558C24.8653 60.5697 24.3416 60.5697 24.0185 60.8558C23.6955 61.1419 23.6955 61.6058 24.0185 61.892C24.3415 62.1781 24.8653 62.1781 25.1884 61.8919Z" fill="black"/>
<path d="M38.9651 74.0942C39.3363 73.7655 39.3363 73.2325 38.9651 72.9038C38.594 72.575 37.9922 72.575 37.621 72.9038C37.2499 73.2325 37.2499 73.7655 37.621 74.0942C37.9922 74.423 38.594 74.423 38.9651 74.0942Z" fill="black"/>
<path d="M52.7419 86.2965C53.1612 85.9252 53.1612 85.3231 52.7419 84.9517C52.3226 84.5804 51.6429 84.5804 51.2236 84.9517C50.8043 85.3231 50.8043 85.9252 51.2236 86.2965C51.6429 86.6679 52.3226 86.6679 52.7419 86.2965Z" fill="black"/>
<path d="M66.5187 98.4988C66.9861 98.0848 66.9861 97.4137 66.5187 96.9997C66.0513 96.5857 65.2935 96.5857 64.8261 96.9997C64.3588 97.4137 64.3588 98.0848 64.8261 98.4988C65.2935 98.9128 66.0513 98.9128 66.5187 98.4988Z" fill="black"/>
<path d="M80.2954 110.701C80.8109 110.245 80.8109 109.504 80.2954 109.048C79.78 108.591 78.9442 108.591 78.4287 109.048C77.9132 109.504 77.9132 110.245 78.4287 110.701C78.9442 111.158 79.78 111.158 80.2954 110.701Z" fill="black"/>
<path d="M94.0722 122.903C94.6358 122.404 94.6358 121.595 94.0722 121.096C93.5086 120.596 92.5948 120.596 92.0312 121.096C91.4676 121.595 91.4676 122.404 92.0312 122.903C92.5948 123.403 93.5086 123.403 94.0722 122.903Z" fill="black"/>
<path d="M107.849 135.106C108.461 134.564 108.461 133.685 107.849 133.144C107.237 132.602 106.245 132.602 105.634 133.144C105.022 133.685 105.022 134.564 105.634 135.106C106.245 135.647 107.237 135.647 107.849 135.106Z" fill="black"/>
<path d="M121.626 147.308C122.286 146.724 122.286 145.776 121.626 145.192C120.966 144.607 119.896 144.607 119.236 145.192C118.576 145.776 118.576 146.724 119.236 147.308C119.896 147.892 120.966 147.892 121.626 147.308Z" fill="black"/>
<path d="M135.403 159.51C136.11 158.883 136.11 157.867 135.403 157.24C134.695 156.612 133.547 156.612 132.839 157.24C132.131 157.867 132.131 158.883 132.839 159.51C133.547 160.137 134.695 160.137 135.403 159.51Z" fill="black"/>
<path d="M149.179 171.713C149.935 171.043 149.935 169.957 149.179 169.287C148.423 168.618 147.197 168.618 146.441 169.287C145.685 169.957 145.685 171.043 146.441 171.713C147.197 172.382 148.423 172.382 149.179 171.713Z" fill="black"/>
<path d="M162.869 183.838C163.625 183.168 163.625 182.082 162.869 181.413C162.113 180.743 160.887 180.743 160.131 181.413C159.375 182.082 159.375 183.168 160.131 183.838C160.887 184.507 162.113 184.507 162.869 183.838Z" fill="black"/>
<path d="M176.471 195.886C177.179 195.259 177.179 194.242 176.471 193.615C175.764 192.988 174.616 192.988 173.908 193.615C173.2 194.242 173.2 195.259 173.908 195.886C174.616 196.513 175.764 196.513 176.471 195.886Z" fill="black"/>
<path d="M190.074 207.934C190.734 207.349 190.734 206.402 190.074 205.817C189.414 205.233 188.344 205.233 187.685 205.817C187.025 206.402 187.025 207.349 187.685 207.934C188.344 208.518 189.414 208.518 190.074 207.934Z" fill="black"/>
<path d="M203.677 219.982C204.288 219.44 204.288 218.561 203.677 218.019C203.065 217.478 202.073 217.478 201.461 218.019C200.85 218.561 200.85 219.44 201.461 219.982C202.073 220.523 203.065 220.523 203.677 219.982Z" fill="black"/>
<path d="M217.279 232.029C217.843 231.53 217.843 230.721 217.279 230.222C216.716 229.723 215.802 229.723 215.238 230.222C214.674 230.721 214.675 231.53 215.238 232.029C215.802 232.529 216.716 232.529 217.279 232.029Z" fill="black"/>
<path d="M230.882 244.077C231.397 243.621 231.397 242.881 230.882 242.424C230.366 241.967 229.53 241.967 229.015 242.424C228.499 242.881 228.499 243.621 229.015 244.077C229.53 244.534 230.366 244.534 230.882 244.077Z" fill="black"/>
<path d="M244.484 256.125C244.952 255.711 244.952 255.04 244.484 254.626C244.017 254.212 243.259 254.212 242.792 254.626C242.324 255.04 242.324 255.711 242.792 256.125C243.259 256.539 244.017 256.539 244.484 256.125Z" fill="black"/>
<path d="M258.087 268.173C258.506 267.802 258.506 267.2 258.087 266.829C257.668 266.457 256.988 266.457 256.568 266.829C256.149 267.2 256.149 267.802 256.568 268.173C256.988 268.545 257.668 268.545 258.087 268.173Z" fill="black"/>
<path d="M271.689 280.221C272.06 279.893 272.06 279.36 271.689 279.031C271.318 278.702 270.716 278.702 270.345 279.031C269.974 279.36 269.974 279.893 270.345 280.221C270.716 280.55 271.318 280.55 271.689 280.221Z" fill="black"/>
<path d="M285.292 292.269C285.615 291.983 285.615 291.519 285.292 291.233C284.969 290.947 284.445 290.947 284.122 291.233C283.799 291.519 283.799 291.983 284.122 292.269C284.445 292.555 284.969 292.555 285.292 292.269Z" fill="black"/>
<path d="M38.878 49.7668C39.2011 49.4807 39.2011 49.0168 38.878 48.7307C38.555 48.4446 38.0312 48.4446 37.7082 48.7307C37.3851 49.0168 37.3851 49.4807 37.7082 49.7668C38.0312 50.0529 38.555 50.0529 38.878 49.7668Z" fill="black"/>
<path d="M52.6548 61.9691C53.0259 61.6404 53.0259 61.1074 52.6548 60.7786C52.2836 60.4499 51.6819 60.4499 51.3107 60.7786C50.9396 61.1074 50.9396 61.6404 51.3107 61.9691C51.6819 62.2978 52.2836 62.2978 52.6548 61.9691Z" fill="black"/>
<path d="M66.4316 74.1714C66.8508 73.8 66.8508 73.198 66.4316 72.8266C66.0123 72.4553 65.3325 72.4553 64.9132 72.8266C64.494 73.198 64.494 73.8 64.9132 74.1714C65.3325 74.5427 66.0123 74.5427 66.4316 74.1714Z" fill="black"/>
<path d="M80.2083 86.3737C80.6757 85.9597 80.6757 85.2885 80.2083 84.8746C79.7409 84.4606 78.9832 84.4606 78.5158 84.8746C78.0484 85.2885 78.0484 85.9597 78.5158 86.3737C78.9832 86.7876 79.7409 86.7876 80.2083 86.3737Z" fill="black"/>
<path d="M93.9851 98.576C94.5006 98.1194 94.5006 97.3791 93.9851 96.9225C93.4696 96.466 92.6338 96.466 92.1183 96.9225C91.6028 97.3791 91.6028 98.1194 92.1183 98.576C92.6338 99.0325 93.4696 99.0325 93.9851 98.576Z" fill="black"/>
<path d="M107.762 110.778C108.325 110.279 108.325 109.47 107.762 108.971C107.198 108.471 106.284 108.471 105.721 108.971C105.157 109.47 105.157 110.279 105.721 110.778C106.284 111.277 107.198 111.277 107.762 110.778Z" fill="black"/>
<path d="M121.539 122.981C122.15 122.439 122.15 121.56 121.539 121.018C120.927 120.477 119.935 120.477 119.323 121.018C118.712 121.56 118.712 122.439 119.323 122.981C119.935 123.522 120.927 123.522 121.539 122.981Z" fill="black"/>
<path d="M135.315 135.183C135.975 134.598 135.975 133.651 135.315 133.066C134.656 132.482 133.586 132.482 132.926 133.066C132.266 133.651 132.266 134.598 132.926 135.183C133.586 135.767 134.656 135.767 135.315 135.183Z" fill="black"/>
<path d="M149.092 147.385C149.8 146.758 149.8 145.741 149.092 145.114C148.384 144.487 147.236 144.487 146.528 145.114C145.821 145.741 145.821 146.758 146.528 147.385C147.236 148.012 148.384 148.012 149.092 147.385Z" fill="black"/>
<path d="M162.869 159.587C163.625 158.918 163.625 157.832 162.869 157.162C162.113 156.493 160.887 156.493 160.131 157.162C159.375 157.832 159.375 158.918 160.131 159.587C160.887 160.257 162.113 160.257 162.869 159.587Z" fill="black"/>
<path d="M176.559 171.713C177.315 171.043 177.315 169.957 176.559 169.287C175.803 168.618 174.577 168.618 173.821 169.287C173.065 169.957 173.065 171.043 173.821 171.713C174.577 172.382 175.803 172.382 176.559 171.713Z" fill="black"/>
<path d="M190.161 183.76C190.869 183.133 190.869 182.117 190.161 181.49C189.453 180.863 188.305 180.863 187.597 181.49C186.89 182.117 186.89 183.133 187.597 183.76C188.305 184.388 189.453 184.388 190.161 183.76Z" fill="black"/>
<path d="M203.764 195.808C204.424 195.224 204.424 194.276 203.764 193.692C203.104 193.108 202.034 193.108 201.374 193.692C200.714 194.276 200.714 195.224 201.374 195.808C202.034 196.393 203.104 196.393 203.764 195.808Z" fill="black"/>
<path d="M217.366 207.856C217.978 207.315 217.978 206.436 217.366 205.894C216.755 205.353 215.763 205.353 215.151 205.894C214.539 206.436 214.539 207.315 215.151 207.856C215.763 208.398 216.755 208.398 217.366 207.856Z" fill="black"/>
<path d="M230.969 219.904C231.532 219.405 231.532 218.596 230.969 218.097C230.405 217.597 229.491 217.597 228.928 218.097C228.364 218.596 228.364 219.405 228.928 219.904C229.491 220.404 230.405 220.404 230.969 219.904Z" fill="black"/>
<path d="M244.571 231.952C245.087 231.496 245.087 230.755 244.571 230.299C244.056 229.842 243.22 229.842 242.705 230.299C242.189 230.755 242.189 231.496 242.705 231.952C243.22 232.409 244.056 232.409 244.571 231.952Z" fill="black"/>
<path d="M258.174 244C258.641 243.586 258.641 242.915 258.174 242.501C257.706 242.087 256.949 242.087 256.481 242.501C256.014 242.915 256.014 243.586 256.481 244C256.949 244.414 257.706 244.414 258.174 244Z" fill="black"/>
<path d="M271.776 256.048C272.196 255.677 272.196 255.075 271.776 254.703C271.357 254.332 270.677 254.332 270.258 254.703C269.839 255.075 269.839 255.677 270.258 256.048C270.677 256.42 271.357 256.42 271.776 256.048Z" fill="black"/>
<path d="M285.379 268.096C285.75 267.767 285.75 267.234 285.379 266.906C285.008 266.577 284.406 266.577 284.035 266.906C283.664 267.234 283.664 267.767 284.035 268.096C284.406 268.425 285.008 268.425 285.379 268.096Z" fill="black"/>
<path d="M298.981 280.144C299.305 279.858 299.305 279.394 298.981 279.108C298.658 278.822 298.135 278.822 297.812 279.108C297.489 279.394 297.489 279.858 297.812 280.144C298.135 280.43 298.658 280.43 298.981 280.144Z" fill="black"/>
<path d="M52.5552 37.6307C52.8714 37.3506 52.8714 36.8966 52.5552 36.6166C52.2391 36.3365 51.7264 36.3365 51.4103 36.6166C51.0941 36.8966 51.0941 37.3506 51.4103 37.6307C51.7264 37.9107 52.2391 37.9107 52.5552 37.6307Z" fill="black"/>
<path d="M66.332 49.833C66.6963 49.5103 66.6963 48.9872 66.332 48.6645C65.9677 48.3419 65.3771 48.3419 65.0128 48.6645C64.6485 48.9872 64.6485 49.5103 65.0128 49.833C65.3771 50.1556 65.9677 50.1556 66.332 49.833Z" fill="black"/>
<path d="M80.0963 62.0242C80.5018 61.665 80.5018 61.0827 80.0963 60.7235C79.6908 60.3644 79.0333 60.3644 78.6278 60.7235C78.2223 61.0827 78.2223 61.665 78.6278 62.0242C79.0333 62.3834 79.6908 62.3834 80.0963 62.0242Z" fill="black"/>
<path d="M93.8607 74.2155C94.3074 73.8198 94.3074 73.1782 93.8607 72.7825C93.4139 72.3868 92.6895 72.3868 92.2428 72.7825C91.796 73.1782 91.796 73.8198 92.2428 74.2155C92.6895 74.6112 93.4139 74.6112 93.8607 74.2155Z" fill="black"/>
<path d="M107.637 86.4178C108.132 85.9795 108.132 85.2688 107.637 84.8305C107.143 84.3922 106.34 84.3922 105.845 84.8305C105.35 85.2688 105.35 85.9795 105.845 86.4178C106.34 86.8561 107.143 86.8561 107.637 86.4178Z" fill="black"/>
<path d="M121.402 98.609C121.938 98.1342 121.938 97.3643 121.402 96.8895C120.866 96.4146 119.996 96.4146 119.46 96.8895C118.924 97.3643 118.924 98.1342 119.46 98.609C119.996 99.0839 120.866 99.0839 121.402 98.609Z" fill="black"/>
<path d="M135.166 110.8C135.743 110.289 135.743 109.46 135.166 108.948C134.589 108.437 133.653 108.437 133.075 108.948C132.498 109.46 132.498 110.289 133.075 110.8C133.653 111.312 134.589 111.312 135.166 110.8Z" fill="black"/>
<path d="M148.93 122.992C149.549 122.444 149.549 121.555 148.93 121.007C148.312 120.46 147.309 120.46 146.69 121.007C146.072 121.555 146.072 122.444 146.69 122.992C147.309 123.539 148.312 123.539 148.93 122.992Z" fill="black"/>
<path d="M162.707 135.194C163.374 134.603 163.374 133.646 162.707 133.055C162.04 132.465 160.96 132.465 160.293 133.055C159.626 133.646 159.626 134.603 160.293 135.194C160.96 135.784 162.04 135.784 162.707 135.194Z" fill="black"/>
<path d="M176.471 147.385C177.179 146.758 177.179 145.741 176.471 145.114C175.764 144.487 174.616 144.487 173.908 145.114C173.2 145.741 173.2 146.758 173.908 147.385C174.616 148.012 175.764 148.012 176.471 147.385Z" fill="black"/>
<path d="M190.161 159.51C190.869 158.883 190.869 157.867 190.161 157.24C189.453 156.612 188.305 156.612 187.597 157.24C186.89 157.867 186.89 158.883 187.597 159.51C188.305 160.137 189.453 160.137 190.161 159.51Z" fill="black"/>
<path d="M203.776 171.569C204.443 170.979 204.443 170.021 203.776 169.431C203.109 168.84 202.029 168.84 201.362 169.431C200.695 170.021 200.695 170.979 201.362 171.569C202.029 172.16 203.109 172.16 203.776 171.569Z" fill="black"/>
<path d="M217.379 183.617C217.997 183.069 217.997 182.181 217.379 181.633C216.76 181.085 215.757 181.085 215.139 181.633C214.52 182.181 214.52 183.069 215.139 183.617C215.757 184.165 216.76 184.165 217.379 183.617Z" fill="black"/>
<path d="M230.994 195.676C231.571 195.165 231.571 194.336 230.994 193.824C230.416 193.313 229.48 193.313 228.903 193.824C228.326 194.336 228.326 195.165 228.903 195.676C229.48 196.188 230.416 196.188 230.994 195.676Z" fill="black"/>
<path d="M244.609 207.735C245.145 207.26 245.145 206.49 244.609 206.016C244.073 205.541 243.203 205.541 242.667 206.016C242.131 206.49 242.131 207.26 242.667 207.735C243.203 208.21 244.073 208.21 244.609 207.735Z" fill="black"/>
<path d="M258.224 219.794C258.719 219.356 258.719 218.645 258.224 218.207C257.729 217.769 256.926 217.769 256.432 218.207C255.937 218.645 255.937 219.356 256.432 219.794C256.926 220.232 257.729 220.232 258.224 219.794Z" fill="black"/>
<path d="M271.826 231.842C272.273 231.446 272.273 230.805 271.826 230.409C271.379 230.013 270.655 230.013 270.208 230.409C269.762 230.805 269.762 231.446 270.208 231.842C270.655 232.238 271.379 232.238 271.826 231.842Z" fill="black"/>
<path d="M285.441 243.901C285.847 243.542 285.847 242.96 285.441 242.6C285.036 242.241 284.378 242.241 283.973 242.6C283.567 242.96 283.567 243.542 283.973 243.901C284.378 244.26 285.036 244.26 285.441 243.901Z" fill="black"/>
<path d="M299.056 255.96C299.42 255.637 299.42 255.114 299.056 254.792C298.692 254.469 298.101 254.469 297.737 254.792C297.373 255.114 297.373 255.637 297.737 255.96C298.101 256.283 298.692 256.283 299.056 255.96Z" fill="black"/>
<path d="M312.659 268.008C312.975 267.728 312.975 267.274 312.659 266.994C312.343 266.714 311.83 266.714 311.514 266.994C311.198 267.274 311.198 267.728 311.514 268.008C311.83 268.288 312.343 268.288 312.659 268.008Z" fill="black"/>
<path d="M66.2449 25.5056C66.5611 25.2255 66.5611 24.7715 66.2449 24.4914C65.9287 24.2114 65.4161 24.2114 65.0999 24.4915C64.7838 24.7715 64.7837 25.2255 65.0999 25.5056C65.4161 25.7856 65.9287 25.7856 66.2449 25.5056Z" fill="black"/>
<path d="M79.9968 37.6858C80.3473 37.3753 80.3473 36.8719 79.9967 36.5615C79.6462 36.251 79.0779 36.251 78.7274 36.5615C78.3768 36.8719 78.3768 37.3753 78.7274 37.6858C79.0779 37.9963 79.6462 37.9963 79.9968 37.6858Z" fill="black"/>
<path d="M93.7611 49.8771C94.1529 49.5301 94.1529 48.9674 93.7611 48.6204C93.3693 48.2734 92.7341 48.2734 92.3423 48.6204C91.9506 48.9674 91.9506 49.5301 92.3423 49.8771C92.7341 50.2241 93.3693 50.2241 93.7611 49.8771Z" fill="black"/>
<path d="M107.513 62.0573C107.939 61.6799 107.939 61.0679 107.513 60.6905C107.087 60.313 106.396 60.313 105.97 60.6905C105.544 61.0679 105.544 61.6798 105.97 62.0573C106.396 62.4347 107.087 62.4347 107.513 62.0573Z" fill="black"/>
<path d="M121.277 74.2486C121.745 73.8346 121.745 73.1634 121.277 72.7495C120.81 72.3355 120.052 72.3355 119.585 72.7495C119.117 73.1634 119.117 73.8346 119.585 74.2486C120.052 74.6625 120.81 74.6625 121.277 74.2486Z" fill="black"/>
<path d="M135.042 86.4398C135.55 85.9893 135.55 85.2589 135.042 84.8084C134.533 84.3579 133.708 84.3579 133.2 84.8084C132.691 85.2589 132.691 85.9893 133.2 86.4398C133.708 86.8903 134.533 86.8903 135.042 86.4398Z" fill="black"/>
<path d="M148.794 98.6201C149.337 98.1391 149.336 97.3594 148.794 96.8784C148.251 96.3975 147.37 96.3975 146.827 96.8784C146.284 97.3594 146.284 98.1391 146.827 98.62C147.37 99.101 148.251 99.101 148.794 98.6201Z" fill="black"/>
<path d="M162.558 110.811C163.142 110.294 163.142 109.455 162.558 108.937C161.974 108.42 161.026 108.42 160.442 108.937C159.858 109.455 159.858 110.294 160.442 110.811C161.026 111.329 161.974 111.329 162.558 110.811Z" fill="black"/>
<path d="M176.31 122.992C176.928 122.444 176.928 121.555 176.31 121.007C175.691 120.46 174.688 120.46 174.07 121.007C173.451 121.555 173.451 122.444 174.07 122.992C174.688 123.539 175.691 123.539 176.31 122.992Z" fill="black"/>
<path d="M190.074 135.183C190.734 134.598 190.734 133.651 190.074 133.066C189.414 132.482 188.344 132.482 187.685 133.066C187.025 133.651 187.025 134.598 187.685 135.183C188.344 135.767 189.414 135.767 190.074 135.183Z" fill="black"/>
<path d="M203.764 147.308C204.424 146.724 204.424 145.776 203.764 145.192C203.104 144.607 202.034 144.607 201.374 145.192C200.714 145.776 200.714 146.724 201.374 147.308C202.034 147.892 203.104 147.892 203.764 147.308Z" fill="black"/>
<path d="M217.379 159.367C217.997 158.819 217.997 157.931 217.379 157.383C216.76 156.835 215.757 156.835 215.139 157.383C214.52 157.931 214.52 158.819 215.139 159.367C215.757 159.915 216.76 159.915 217.379 159.367Z" fill="black"/>
<path d="M231.006 171.437C231.59 170.919 231.59 170.081 231.006 169.563C230.422 169.046 229.475 169.046 228.89 169.563C228.306 170.081 228.306 170.919 228.89 171.437C229.475 171.954 230.422 171.954 231.006 171.437Z" fill="black"/>
<path d="M244.621 183.496C245.164 183.015 245.164 182.235 244.621 181.754C244.078 181.273 243.198 181.273 242.655 181.754C242.112 182.235 242.112 183.015 242.655 183.496C243.198 183.977 244.078 183.977 244.621 183.496Z" fill="black"/>
<path d="M258.249 195.566C258.757 195.115 258.757 194.385 258.249 193.935C257.74 193.484 256.915 193.484 256.407 193.935C255.898 194.385 255.898 195.115 256.407 195.566C256.915 196.016 257.74 196.016 258.249 195.566Z" fill="black"/>
<path d="M271.864 207.625C272.331 207.211 272.331 206.54 271.864 206.126C271.396 205.712 270.638 205.712 270.171 206.126C269.704 206.54 269.704 207.211 270.171 207.625C270.638 208.039 271.396 208.039 271.864 207.625Z" fill="black"/>
<path d="M285.479 219.684C285.905 219.306 285.905 218.695 285.479 218.317C285.052 217.94 284.361 217.94 283.935 218.317C283.509 218.695 283.509 219.306 283.935 219.684C284.361 220.061 285.052 220.061 285.479 219.684Z" fill="black"/>
<path d="M299.106 231.754C299.498 231.407 299.498 230.844 299.106 230.497C298.714 230.15 298.079 230.15 297.687 230.497C297.295 230.844 297.295 231.407 297.687 231.754C298.079 232.101 298.714 232.101 299.106 231.754Z" fill="black"/>
<path d="M312.721 243.813C313.071 243.502 313.071 242.999 312.721 242.689C312.37 242.378 311.802 242.378 311.452 242.689C311.101 242.999 311.101 243.502 311.452 243.813C311.802 244.123 312.37 244.123 312.721 243.813Z" fill="black"/>
<path d="M326.348 255.883C326.665 255.603 326.665 255.149 326.348 254.869C326.032 254.589 325.52 254.589 325.203 254.869C324.887 255.149 324.887 255.603 325.203 255.883C325.52 256.163 326.032 256.163 326.348 255.883Z" fill="black"/>
<path d="M93.674 25.5496C94.0176 25.2453 94.0176 24.7517 93.674 24.4474C93.3303 24.143 92.7731 24.143 92.4295 24.4474C92.0858 24.7517 92.0858 25.2453 92.4295 25.5496C92.7731 25.854 93.3303 25.854 93.674 25.5496Z" fill="black"/>
<path d="M107.426 37.7299C107.804 37.3951 107.804 36.8522 107.426 36.5174C107.048 36.1825 106.435 36.1825 106.057 36.5174C105.679 36.8522 105.679 37.3951 106.057 37.7299C106.435 38.0647 107.048 38.0647 107.426 37.7299Z" fill="black"/>
<path d="M121.178 49.9101C121.59 49.5449 121.59 48.9526 121.178 48.5874C120.765 48.2221 120.097 48.2221 119.684 48.5874C119.272 48.9527 119.272 49.5449 119.684 49.9101C120.097 50.2754 120.765 50.2754 121.178 49.9101Z" fill="black"/>
<path d="M134.917 62.0793C135.357 61.6897 135.357 61.058 134.917 60.6684C134.477 60.2788 133.764 60.2788 133.324 60.6684C132.884 61.058 132.884 61.6897 133.324 62.0793C133.764 62.469 134.477 62.469 134.917 62.0793Z" fill="black"/>
<path d="M148.669 74.2596C149.143 73.8395 149.143 73.1585 148.669 72.7384C148.195 72.3184 147.426 72.3184 146.952 72.7384C146.477 73.1585 146.477 73.8395 146.952 74.2596C147.426 74.6796 148.195 74.6796 148.669 74.2596Z" fill="black"/>
<path d="M162.421 86.4398C162.93 85.9893 162.93 85.2589 162.421 84.8084C161.912 84.3579 161.088 84.3579 160.579 84.8084C160.07 85.2589 160.07 85.9893 160.579 86.4398C161.088 86.8903 161.912 86.8903 162.421 86.4398Z" fill="black"/>
<path d="M176.173 98.6201C176.716 98.1391 176.716 97.3594 176.173 96.8784C175.63 96.3975 174.749 96.3975 174.206 96.8784C173.663 97.3594 173.664 98.1391 174.206 98.62C174.749 99.101 175.63 99.101 176.173 98.6201Z" fill="black"/>
<path d="M189.925 110.8C190.502 110.289 190.502 109.46 189.925 108.948C189.347 108.437 188.411 108.437 187.834 108.948C187.257 109.46 187.257 110.289 187.834 110.8C188.411 111.312 189.347 111.312 189.925 110.8Z" fill="black"/>
<path d="M203.677 122.981C204.288 122.439 204.288 121.56 203.677 121.018C203.065 120.477 202.073 120.477 201.461 121.018C200.85 121.56 200.85 122.439 201.461 122.981C202.073 123.522 203.065 123.522 203.677 122.981Z" fill="black"/>
<path d="M217.366 135.106C217.978 134.564 217.978 133.685 217.366 133.144C216.755 132.602 215.763 132.602 215.151 133.144C214.539 133.685 214.539 134.564 215.151 135.106C215.763 135.647 216.755 135.647 217.366 135.106Z" fill="black"/>
<path d="M230.994 147.176C231.571 146.664 231.571 145.835 230.994 145.324C230.416 144.812 229.48 144.812 228.903 145.324C228.326 145.835 228.326 146.664 228.903 147.176C229.48 147.687 230.416 147.687 230.994 147.176Z" fill="black"/>
<path d="M244.621 159.246C245.164 158.765 245.164 157.985 244.621 157.504C244.078 157.023 243.198 157.023 242.655 157.504C242.112 157.985 242.112 158.765 242.655 159.246C243.198 159.727 244.078 159.727 244.621 159.246Z" fill="black"/>
<path d="M258.249 171.316C258.757 170.865 258.757 170.135 258.249 169.684C257.74 169.234 256.915 169.234 256.407 169.684C255.898 170.135 255.898 170.865 256.407 171.316C256.915 171.766 257.74 171.766 258.249 171.316Z" fill="black"/>
<path d="M271.876 183.386C272.35 182.966 272.35 182.285 271.876 181.865C271.402 181.444 270.633 181.444 270.159 181.865C269.684 182.285 269.684 182.966 270.159 183.386C270.633 183.806 271.402 183.806 271.876 183.386Z" fill="black"/>
<path d="M285.503 195.456C285.943 195.066 285.943 194.434 285.503 194.045C285.064 193.655 284.35 193.655 283.91 194.045C283.471 194.434 283.471 195.066 283.91 195.456C284.35 195.845 285.064 195.845 285.503 195.456Z" fill="black"/>
<path d="M299.143 207.537C299.556 207.171 299.556 206.579 299.143 206.214C298.731 205.849 298.062 205.849 297.65 206.214C297.237 206.579 297.237 207.171 297.65 207.537C298.062 207.902 298.731 207.902 299.143 207.537Z" fill="black"/>
<path d="M312.771 219.607C313.149 219.272 313.149 218.729 312.771 218.394C312.393 218.059 311.78 218.059 311.402 218.394C311.024 218.729 311.024 219.272 311.402 219.607C311.78 219.942 312.393 219.942 312.771 219.607Z" fill="black"/>
<path d="M326.398 231.677C326.742 231.372 326.742 230.879 326.398 230.574C326.054 230.27 325.497 230.27 325.154 230.574C324.81 230.879 324.81 231.372 325.154 231.677C325.497 231.981 326.054 231.981 326.398 231.677Z" fill="black"/>
<path d="M107.339 13.4025C107.669 13.1103 107.669 12.6365 107.339 12.3443C107.009 12.0521 106.474 12.0521 106.144 12.3443C105.814 12.6365 105.814 13.1103 106.144 13.4025C106.474 13.6947 107.009 13.6947 107.339 13.4025Z" fill="black"/>
<path d="M121.091 25.5827C121.455 25.2601 121.455 24.7369 121.091 24.4143C120.726 24.0916 120.136 24.0916 119.771 24.4143C119.407 24.7369 119.407 25.2601 119.771 25.5827C120.136 25.9054 120.726 25.9054 121.091 25.5827Z" fill="black"/>
<path d="M134.83 37.7519C135.222 37.4049 135.222 36.8423 134.83 36.4953C134.438 36.1483 133.803 36.1483 133.411 36.4953C133.02 36.8423 133.02 37.4049 133.411 37.7519C133.803 38.0989 134.438 38.0989 134.83 37.7519Z" fill="black"/>
<path d="M148.569 49.9211C148.989 49.5498 148.989 48.9477 148.569 48.5764C148.15 48.205 147.47 48.205 147.051 48.5764C146.632 48.9477 146.632 49.5498 147.051 49.9211C147.47 50.2925 148.15 50.2925 148.569 49.9211Z" fill="black"/>
<path d="M162.309 62.0904C162.756 61.6947 162.756 61.0531 162.309 60.6574C161.862 60.2617 161.138 60.2617 160.691 60.6574C160.244 61.0531 160.244 61.6947 160.691 62.0904C161.138 62.4861 161.862 62.4861 162.309 62.0904Z" fill="black"/>
<path d="M176.048 74.2596C176.523 73.8395 176.523 73.1585 176.048 72.7384C175.574 72.3184 174.805 72.3184 174.331 72.7384C173.857 73.1585 173.857 73.8395 174.331 74.2596C174.805 74.6796 175.574 74.6796 176.048 74.2596Z" fill="black"/>
<path d="M189.8 86.4398C190.309 85.9893 190.309 85.2589 189.8 84.8084C189.292 84.3579 188.467 84.3579 187.958 84.8084C187.45 85.2589 187.45 85.9893 187.958 86.4398C188.467 86.8903 189.292 86.8903 189.8 86.4398Z" fill="black"/>
<path d="M203.54 98.609C204.076 98.1342 204.076 97.3643 203.54 96.8895C203.004 96.4146 202.134 96.4146 201.598 96.8895C201.062 97.3643 201.062 98.1342 201.598 98.609C202.134 99.0839 203.004 99.0839 203.54 98.609Z" fill="black"/>
<path d="M217.279 110.778C217.843 110.279 217.843 109.47 217.279 108.97C216.716 108.471 215.802 108.471 215.238 108.971C214.675 109.47 214.674 110.279 215.238 110.778C215.802 111.277 216.716 111.277 217.279 110.778Z" fill="black"/>
<path d="M230.969 122.903C231.532 122.404 231.532 121.595 230.969 121.096C230.405 120.596 229.491 120.596 228.928 121.096C228.364 121.595 228.364 122.404 228.928 122.903C229.491 123.403 230.405 123.403 230.969 122.903Z" fill="black"/>
<path d="M244.609 134.984C245.145 134.51 245.145 133.74 244.609 133.265C244.073 132.79 243.203 132.79 242.667 133.265C242.131 133.74 242.131 134.51 242.667 134.984C243.203 135.459 244.073 135.459 244.609 134.984Z" fill="black"/>
<path d="M258.249 147.065C258.757 146.615 258.757 145.885 258.249 145.434C257.74 144.984 256.915 144.984 256.407 145.434C255.898 145.885 255.898 146.615 256.407 147.065C256.915 147.516 257.74 147.516 258.249 147.065Z" fill="black"/>
<path d="M271.876 159.135C272.35 158.715 272.35 158.034 271.876 157.614C271.402 157.194 270.633 157.194 270.159 157.614C269.684 158.034 269.684 158.715 270.159 159.135C270.633 159.556 271.402 159.556 271.876 159.135Z" fill="black"/>
<path d="M285.516 171.216C285.963 170.821 285.963 170.179 285.516 169.784C285.069 169.388 284.345 169.388 283.898 169.784C283.451 170.179 283.451 170.821 283.898 171.216C284.345 171.612 285.069 171.612 285.516 171.216Z" fill="black"/>
<path d="M299.156 183.298C299.575 182.926 299.575 182.324 299.156 181.953C298.736 181.581 298.057 181.581 297.637 181.953C297.218 182.324 297.218 182.926 297.637 183.298C298.057 183.669 298.736 183.669 299.156 183.298Z" fill="black"/>
<path d="M312.796 195.379C313.187 195.032 313.187 194.469 312.796 194.122C312.404 193.775 311.769 193.775 311.377 194.122C310.985 194.469 310.985 195.032 311.377 195.379C311.769 195.726 312.404 195.726 312.796 195.379Z" fill="black"/>
<path d="M326.435 207.46C326.8 207.137 326.8 206.614 326.435 206.291C326.071 205.969 325.481 205.969 325.116 206.291C324.752 206.614 324.752 207.137 325.116 207.46C325.481 207.782 326.071 207.782 326.435 207.46Z" fill="black"/>
<path d="M340.063 219.53C340.393 219.237 340.393 218.764 340.063 218.471C339.733 218.179 339.198 218.179 338.868 218.471C338.538 218.764 338.538 219.237 338.868 219.53C339.198 219.822 339.733 219.822 340.063 219.53Z" fill="black"/>
<path d="M134.755 13.4355C135.106 13.1251 135.106 12.6217 134.755 12.3112C134.405 12.0007 133.837 12.0007 133.486 12.3112C133.135 12.6217 133.135 13.1251 133.486 13.4355C133.837 13.746 134.405 13.746 134.755 13.4355Z" fill="black"/>
<path d="M148.482 25.5937C148.854 25.265 148.854 24.732 148.482 24.4033C148.111 24.0745 147.509 24.0745 147.138 24.4033C146.767 24.732 146.767 25.265 147.138 25.5937C147.509 25.9225 148.111 25.9225 148.482 25.5937Z" fill="black"/>
<path d="M162.209 37.7519C162.601 37.4049 162.601 36.8423 162.209 36.4953C161.818 36.1483 161.182 36.1483 160.791 36.4953C160.399 36.8423 160.399 37.4049 160.791 37.7519C161.182 38.0989 161.818 38.0989 162.209 37.7519Z" fill="black"/>
<path d="M175.949 49.9211C176.368 49.5498 176.368 48.9477 175.949 48.5764C175.53 48.205 174.85 48.205 174.43 48.5764C174.011 48.9477 174.011 49.5498 174.43 49.9211C174.85 50.2925 175.53 50.2925 175.949 49.9211Z" fill="black"/>
<path d="M189.688 62.0904C190.135 61.6947 190.135 61.0531 189.688 60.6574C189.241 60.2617 188.517 60.2617 188.07 60.6574C187.624 61.0531 187.624 61.6947 188.07 62.0904C188.517 62.4861 189.242 62.4861 189.688 62.0904Z" fill="black"/>
<path d="M203.415 74.2486C203.883 73.8346 203.883 73.1634 203.415 72.7495C202.948 72.3355 202.19 72.3355 201.723 72.7495C201.255 73.1634 201.255 73.8346 201.723 74.2486C202.19 74.6625 202.948 74.6625 203.415 74.2486Z" fill="black"/>
<path d="M217.155 86.4178C217.65 85.9795 217.65 85.2688 217.155 84.8305C216.66 84.3922 215.857 84.3922 215.363 84.8305C214.868 85.2688 214.868 85.9795 215.363 86.4178C215.857 86.8561 216.66 86.8561 217.155 86.4178Z" fill="black"/>
<path d="M230.882 98.576C231.397 98.1194 231.397 97.3791 230.882 96.9225C230.366 96.466 229.53 96.466 229.015 96.9225C228.499 97.3791 228.499 98.1194 229.015 98.576C229.53 99.0325 230.366 99.0325 230.882 98.576Z" fill="black"/>
<path d="M244.571 110.701C245.087 110.245 245.087 109.504 244.571 109.048C244.056 108.591 243.22 108.591 242.705 109.048C242.189 109.504 242.189 110.245 242.705 110.701C243.22 111.158 244.056 111.158 244.571 110.701Z" fill="black"/>
<path d="M258.224 122.793C258.719 122.355 258.719 121.644 258.224 121.206C257.729 120.768 256.926 120.768 256.432 121.206C255.937 121.644 255.937 122.355 256.432 122.793C256.926 123.231 257.729 123.231 258.224 122.793Z" fill="black"/>
<path d="M271.864 134.874C272.331 134.46 272.331 133.789 271.864 133.375C271.396 132.961 270.638 132.961 270.171 133.375C269.704 133.789 269.704 134.46 270.171 134.874C270.638 135.288 271.396 135.288 271.864 134.874Z" fill="black"/>
<path d="M285.516 146.966C285.963 146.571 285.963 145.929 285.516 145.533C285.069 145.138 284.345 145.138 283.898 145.533C283.451 145.929 283.451 146.571 283.898 146.966C284.345 147.362 285.069 147.362 285.516 146.966Z" fill="black"/>
<path d="M299.156 159.047C299.575 158.676 299.575 158.074 299.156 157.702C298.736 157.331 298.057 157.331 297.637 157.702C297.218 158.074 297.218 158.676 297.637 159.047C298.057 159.419 298.736 159.419 299.156 159.047Z" fill="black"/>
<path d="M312.796 171.128C313.187 170.781 313.187 170.219 312.796 169.872C312.404 169.525 311.769 169.525 311.377 169.872C310.985 170.219 310.985 170.781 311.377 171.128C311.769 171.475 312.404 171.475 312.796 171.128Z" fill="black"/>
<path d="M326.448 183.22C326.819 182.892 326.819 182.359 326.448 182.03C326.077 181.701 325.475 181.701 325.104 182.03C324.733 182.359 324.733 182.892 325.104 183.22C325.475 183.549 326.077 183.549 326.448 183.22Z" fill="black"/>
<path d="M340.1 195.312C340.451 195.002 340.451 194.499 340.1 194.188C339.75 193.878 339.181 193.878 338.831 194.188C338.48 194.499 338.48 195.002 338.831 195.312C339.181 195.623 339.75 195.623 340.1 195.312Z" fill="black"/>
<path d="M148.408 1.27735C148.738 0.985137 148.738 0.511373 148.408 0.219161C148.078 -0.0730509 147.543 -0.073055 147.213 0.219157C146.883 0.511369 146.883 0.985132 147.213 1.27734C147.543 1.56956 148.078 1.56956 148.408 1.27735Z" fill="black"/>
<path d="M162.135 13.4355C162.485 13.1251 162.485 12.6217 162.135 12.3112C161.784 12.0007 161.216 12.0007 160.865 12.3112C160.515 12.6217 160.515 13.1251 160.865 13.4355C161.216 13.746 161.784 13.746 162.135 13.4355Z" fill="black"/>
<path d="M175.862 25.5937C176.233 25.265 176.233 24.732 175.862 24.4033C175.491 24.0745 174.889 24.0745 174.518 24.4033C174.146 24.732 174.146 25.265 174.518 25.5937C174.889 25.9225 175.491 25.9225 175.862 25.5937Z" fill="black"/>
<path d="M189.589 37.7519C189.98 37.4049 189.98 36.8423 189.589 36.4953C189.197 36.1483 188.562 36.1483 188.17 36.4953C187.778 36.8423 187.778 37.4049 188.17 37.7519C188.562 38.0989 189.197 38.0989 189.589 37.7519Z" fill="black"/>
<path d="M203.316 49.9101C203.728 49.5449 203.728 48.9526 203.316 48.5874C202.903 48.2221 202.235 48.2221 201.822 48.5874C201.41 48.9527 201.41 49.5449 201.822 49.9101C202.235 50.2754 202.903 50.2754 203.316 49.9101Z" fill="black"/>
<path d="M217.03 62.0573C217.456 61.6799 217.456 61.0679 217.03 60.6905C216.604 60.313 215.913 60.313 215.487 60.6905C215.061 61.0679 215.061 61.6798 215.487 62.0573C215.913 62.4347 216.604 62.4347 217.03 62.0573Z" fill="black"/>
<path d="M230.757 74.2155C231.204 73.8198 231.204 73.1782 230.757 72.7825C230.31 72.3868 229.586 72.3868 229.139 72.7825C228.693 73.1782 228.693 73.8198 229.139 74.2155C229.586 74.6112 230.31 74.6112 230.757 74.2155Z" fill="black"/>
<path d="M244.484 86.3737C244.952 85.9597 244.952 85.2886 244.484 84.8746C244.017 84.4606 243.259 84.4606 242.792 84.8746C242.324 85.2885 242.324 85.9597 242.792 86.3737C243.259 86.7876 244.017 86.7876 244.484 86.3737Z" fill="black"/>
<path d="M258.174 98.4988C258.641 98.0848 258.641 97.4137 258.174 96.9997C257.706 96.5857 256.949 96.5857 256.481 96.9997C256.014 97.4137 256.014 98.0848 256.481 98.4988C256.949 98.9128 257.706 98.9128 258.174 98.4988Z" fill="black"/>
<path d="M271.826 110.591C272.273 110.195 272.273 109.554 271.826 109.158C271.379 108.762 270.655 108.762 270.208 109.158C269.762 109.554 269.762 110.195 270.208 110.591C270.655 110.987 271.379 110.987 271.826 110.591Z" fill="black"/>
<path d="M285.479 122.683C285.905 122.305 285.905 121.694 285.479 121.316C285.052 120.939 284.361 120.939 283.935 121.316C283.509 121.694 283.509 122.305 283.935 122.683C284.361 123.06 285.052 123.06 285.479 122.683Z" fill="black"/>
<path d="M299.143 134.786C299.556 134.421 299.556 133.829 299.143 133.463C298.731 133.098 298.062 133.098 297.65 133.463C297.237 133.829 297.237 134.421 297.65 134.786C298.062 135.151 298.731 135.151 299.143 134.786Z" fill="black"/>
<path d="M312.796 146.878C313.187 146.531 313.187 145.968 312.796 145.621C312.404 145.274 311.769 145.274 311.377 145.621C310.985 145.968 310.985 146.531 311.377 146.878C311.769 147.225 312.404 147.225 312.796 146.878Z" fill="black"/>
<path d="M326.448 158.97C326.819 158.641 326.819 158.108 326.448 157.78C326.077 157.451 325.475 157.451 325.104 157.78C324.733 158.108 324.733 158.641 325.104 158.97C325.475 159.299 326.077 159.299 326.448 158.97Z" fill="black"/>
<path d="M340.1 171.062C340.451 170.752 340.451 170.248 340.1 169.938C339.75 169.627 339.181 169.627 338.831 169.938C338.48 170.248 338.48 170.752 338.831 171.062C339.181 171.373 339.75 171.373 340.1 171.062Z" fill="black"/>
<path d="M353.753 183.154C354.082 182.862 354.082 182.388 353.753 182.096C353.423 181.804 352.888 181.804 352.558 182.096C352.228 182.388 352.228 182.862 352.558 183.154C352.888 183.446 353.423 183.446 353.753 183.154Z" fill="black"/>
<path d="M175.787 1.27735C176.117 0.985139 176.117 0.511375 175.787 0.219163C175.457 -0.0730487 174.922 -0.0730529 174.592 0.219159C174.262 0.511371 174.262 0.985134 174.592 1.27735C174.922 1.56956 175.457 1.56956 175.787 1.27735Z" fill="black"/>
<path d="M189.514 13.4355C189.865 13.1251 189.865 12.6217 189.514 12.3112C189.163 12.0007 188.595 12.0007 188.245 12.3112C187.894 12.6217 187.894 13.1251 188.245 13.4355C188.595 13.746 189.163 13.746 189.514 13.4355Z" fill="black"/>
<path d="M203.229 25.5827C203.593 25.2601 203.593 24.7369 203.229 24.4143C202.864 24.0916 202.274 24.0916 201.909 24.4143C201.545 24.7369 201.545 25.2601 201.909 25.5827C202.274 25.9054 202.864 25.9054 203.229 25.5827Z" fill="black"/>
<path d="M216.943 37.7299C217.321 37.3951 217.321 36.8522 216.943 36.5174C216.565 36.1825 215.952 36.1825 215.574 36.5174C215.196 36.8522 215.196 37.3951 215.574 37.7299C215.952 38.0647 216.565 38.0647 216.943 37.7299Z" fill="black"/>
<path d="M230.658 49.8771C231.049 49.5301 231.049 48.9674 230.658 48.6204C230.266 48.2734 229.631 48.2734 229.239 48.6205C228.847 48.9675 228.847 49.5301 229.239 49.8771C229.631 50.2241 230.266 50.2241 230.658 49.8771Z" fill="black"/>
<path d="M244.372 62.0242C244.778 61.665 244.778 61.0827 244.372 60.7235C243.967 60.3644 243.309 60.3644 242.904 60.7235C242.498 61.0827 242.498 61.665 242.904 62.0242C243.309 62.3834 243.967 62.3834 244.372 62.0242Z" fill="black"/>
<path d="M258.087 74.1714C258.506 73.8 258.506 73.198 258.087 72.8266C257.668 72.4553 256.988 72.4553 256.568 72.8266C256.149 73.198 256.149 73.8 256.568 74.1714C256.988 74.5427 257.668 74.5427 258.087 74.1714Z" fill="black"/>
<path d="M271.776 86.2965C272.196 85.9252 272.196 85.3231 271.776 84.9517C271.357 84.5804 270.677 84.5804 270.258 84.9517C269.839 85.3231 269.839 85.9252 270.258 86.2965C270.677 86.6679 271.357 86.6679 271.776 86.2965Z" fill="black"/>
<path d="M285.441 98.3996C285.847 98.0404 285.847 97.4581 285.441 97.0989C285.036 96.7397 284.378 96.7397 283.973 97.0989C283.567 97.4581 283.567 98.0404 283.973 98.3996C284.378 98.7588 285.036 98.7588 285.441 98.3996Z" fill="black"/>
<path d="M299.106 110.503C299.498 110.156 299.498 109.593 299.106 109.246C298.714 108.899 298.079 108.899 297.687 109.246C297.295 109.593 297.295 110.156 297.687 110.503C298.079 110.85 298.714 110.85 299.106 110.503Z" fill="black"/>
<path d="M312.771 122.606C313.149 122.271 313.149 121.728 312.771 121.393C312.393 121.058 311.78 121.058 311.402 121.393C311.024 121.728 311.024 122.271 311.402 122.606C311.78 122.941 312.393 122.941 312.771 122.606Z" fill="black"/>
<path d="M326.435 134.709C326.8 134.386 326.8 133.863 326.435 133.54C326.071 133.218 325.481 133.218 325.116 133.54C324.752 133.863 324.752 134.386 325.116 134.709C325.481 135.031 326.071 135.031 326.435 134.709Z" fill="black"/>
<path d="M340.1 146.812C340.451 146.501 340.451 145.998 340.1 145.688C339.75 145.377 339.181 145.377 338.831 145.688C338.48 145.998 338.48 146.501 338.831 146.812C339.181 147.122 339.75 147.122 340.1 146.812Z" fill="black"/>
<path d="M353.753 158.904C354.082 158.612 354.082 158.138 353.753 157.846C353.423 157.554 352.888 157.554 352.558 157.846C352.228 158.138 352.228 158.612 352.558 158.904C352.888 159.196 353.423 159.196 353.753 158.904Z" fill="black"/>
<path d="M216.856 13.4025C217.186 13.1103 217.186 12.6365 216.856 12.3443C216.526 12.0521 215.991 12.0521 215.661 12.3443C215.331 12.6365 215.331 13.1103 215.661 13.4025C215.991 13.6947 216.526 13.6947 216.856 13.4025Z" fill="black"/>
<path d="M230.571 25.5496C230.914 25.2453 230.914 24.7517 230.571 24.4474C230.227 24.143 229.67 24.143 229.326 24.4474C228.982 24.7517 228.982 25.2453 229.326 25.5496C229.67 25.854 230.227 25.854 230.571 25.5496Z" fill="black"/>
<path d="M244.273 37.6858C244.623 37.3753 244.623 36.8719 244.273 36.5615C243.922 36.251 243.354 36.251 243.003 36.5615C242.653 36.8719 242.653 37.3753 243.003 37.6858C243.354 37.9963 243.922 37.9963 244.273 37.6858Z" fill="black"/>
<path d="M257.987 49.833C258.351 49.5103 258.351 48.9872 257.987 48.6645C257.623 48.3419 257.032 48.3419 256.668 48.6645C256.304 48.9872 256.304 49.5103 256.668 49.833C257.032 50.1556 257.623 50.1556 257.987 49.833Z" fill="black"/>
<path d="M271.689 61.9691C272.06 61.6404 272.06 61.1074 271.689 60.7787C271.318 60.4499 270.716 60.4499 270.345 60.7786C269.974 61.1074 269.974 61.6404 270.345 61.9691C270.716 62.2978 271.318 62.2978 271.689 61.9691Z" fill="black"/>
<path d="M285.379 74.0942C285.75 73.7655 285.75 73.2325 285.379 72.9038C285.008 72.575 284.406 72.575 284.035 72.9038C283.664 73.2325 283.664 73.7655 284.035 74.0942C284.406 74.423 285.008 74.423 285.379 74.0942Z" fill="black"/>
<path d="M299.056 86.2083C299.42 85.8857 299.42 85.3626 299.056 85.0399C298.692 84.7173 298.101 84.7173 297.737 85.0399C297.373 85.3626 297.373 85.8857 297.737 86.2083C298.101 86.531 298.692 86.531 299.056 86.2083Z" fill="black"/>
<path d="M312.721 98.3114C313.071 98.0009 313.071 97.4976 312.721 97.1871C312.37 96.8766 311.802 96.8766 311.452 97.1871C311.101 97.4976 311.101 98.0009 311.452 98.3114C311.802 98.6219 312.37 98.6219 312.721 98.3114Z" fill="black"/>
<path d="M326.398 110.426C326.742 110.121 326.742 109.628 326.398 109.323C326.054 109.019 325.497 109.019 325.154 109.323C324.81 109.628 324.81 110.121 325.154 110.426C325.497 110.73 326.054 110.73 326.398 110.426Z" fill="black"/>
<path d="M340.063 122.529C340.393 122.236 340.393 121.763 340.063 121.47C339.733 121.178 339.198 121.178 338.868 121.47C338.538 121.763 338.538 122.236 338.868 122.529C339.198 122.821 339.733 122.821 340.063 122.529Z" fill="black"/>
<path d="M257.9 25.5056C258.216 25.2255 258.216 24.7715 257.9 24.4914C257.584 24.2114 257.071 24.2114 256.755 24.4915C256.439 24.7715 256.439 25.2255 256.755 25.5056C257.071 25.7856 257.584 25.7856 257.9 25.5056Z" fill="black"/>
<path d="M271.59 37.6307C271.906 37.3506 271.906 36.8966 271.59 36.6166C271.274 36.3365 270.761 36.3365 270.445 36.6166C270.129 36.8966 270.129 37.3507 270.445 37.6307C270.761 37.9107 271.274 37.9107 271.59 37.6307Z" fill="black"/>
<path d="M285.292 49.7668C285.615 49.4807 285.615 49.0168 285.292 48.7307C284.969 48.4446 284.445 48.4446 284.122 48.7307C283.799 49.0168 283.799 49.4807 284.122 49.7668C284.445 50.053 284.969 50.053 285.292 49.7668Z" fill="black"/>
<path d="M298.981 61.892C299.305 61.6058 299.305 61.1419 298.981 60.8558C298.658 60.5697 298.135 60.5697 297.812 60.8558C297.489 61.1419 297.489 61.6058 297.812 61.892C298.135 62.1781 298.658 62.1781 298.981 61.892Z" fill="black"/>
<path d="M312.659 74.0061C312.975 73.726 312.975 73.272 312.659 72.9919C312.343 72.7119 311.83 72.7119 311.514 72.992C311.198 73.272 311.198 73.726 311.514 74.0061C311.83 74.2861 312.343 74.2861 312.659 74.0061Z" fill="black"/>
<path d="M326.348 86.1312C326.665 85.8512 326.665 85.3971 326.348 85.1171C326.032 84.837 325.52 84.837 325.203 85.1171C324.887 85.3971 324.887 85.8512 325.203 86.1312C325.52 86.4112 326.032 86.4112 326.348 86.1312Z" fill="black"/>
</svg>
