<svg width="345" height="180" viewBox="0 0 345 180" fill="none" xmlns="http://www.w3.org/2000/svg">
<path d="M28.7966 255.883C29.1128 255.603 29.1128 255.149 28.7966 254.869C28.4804 254.589 27.9678 254.589 27.6516 254.869C27.3355 255.149 27.3355 255.603 27.6516 255.883C27.9678 256.163 28.4804 256.163 28.7966 255.883Z" fill="black"/>
<path d="M42.4862 268.008C42.8024 267.728 42.8024 267.274 42.4863 266.994C42.1701 266.714 41.6575 266.714 41.3413 266.994C41.0251 267.274 41.0251 267.728 41.3413 268.008C41.6575 268.288 42.1701 268.288 42.4862 268.008Z" fill="black"/>
<path d="M56.1884 280.144C56.5114 279.858 56.5114 279.394 56.1884 279.108C55.8653 278.822 55.3415 278.822 55.0185 279.108C54.6955 279.394 54.6955 279.858 55.0185 280.144C55.3416 280.43 55.8653 280.43 56.1884 280.144Z" fill="black"/>
<path d="M69.878 292.269C70.2011 291.983 70.2011 291.519 69.878 291.233C69.555 290.947 69.0312 290.947 68.7082 291.233C68.3851 291.519 68.3851 291.983 68.7082 292.269C69.0312 292.555 69.555 292.555 69.878 292.269Z" fill="black"/>
<path d="M83.5552 304.383C83.8714 304.103 83.8714 303.649 83.5552 303.369C83.2391 303.089 82.7264 303.089 82.4103 303.369C82.0941 303.649 82.0941 304.103 82.4103 304.383C82.7264 304.663 83.2391 304.663 83.5552 304.383Z" fill="black"/>
<path d="M97.2449 316.509C97.5611 316.229 97.5611 315.774 97.2449 315.494C96.9287 315.214 96.4161 315.214 96.0999 315.494C95.7837 315.774 95.7838 316.229 96.0999 316.509C96.4161 316.789 96.9287 316.789 97.2449 316.509Z" fill="black"/>
<path d="M15.1318 219.53C15.4617 219.237 15.4617 218.764 15.1318 218.471C14.8019 218.179 14.267 218.179 13.9371 218.471C13.6072 218.764 13.6072 219.237 13.9371 219.53C14.267 219.822 14.8019 219.822 15.1318 219.53Z" fill="black"/>
<path d="M28.8464 231.677C29.19 231.372 29.19 230.879 28.8464 230.574C28.5027 230.27 27.9455 230.27 27.6019 230.574C27.2582 230.879 27.2582 231.372 27.6019 231.677C27.9455 231.981 28.5027 231.981 28.8464 231.677Z" fill="black"/>
<path d="M42.5485 243.813C42.899 243.502 42.899 242.999 42.5485 242.689C42.1979 242.378 41.6296 242.378 41.2791 242.689C40.9285 242.999 40.9285 243.502 41.2791 243.813C41.6296 244.123 42.1979 244.123 42.5485 243.813Z" fill="black"/>
<path d="M56.263 255.96C56.6273 255.637 56.6273 255.114 56.263 254.792C55.8987 254.469 55.3081 254.469 54.9438 254.792C54.5796 255.114 54.5796 255.637 54.9438 255.96C55.3081 256.283 55.8987 256.283 56.263 255.96Z" fill="black"/>
<path d="M69.9651 268.096C70.3363 267.767 70.3363 267.234 69.9651 266.906C69.594 266.577 68.9922 266.577 68.621 266.906C68.2499 267.234 68.2499 267.767 68.621 268.096C68.9922 268.425 69.594 268.425 69.9651 268.096Z" fill="black"/>
<path d="M83.6548 280.221C84.0259 279.893 84.0259 279.36 83.6548 279.031C83.2836 278.702 82.6819 278.702 82.3107 279.031C81.9396 279.36 81.9396 279.893 82.3107 280.221C82.6819 280.55 83.2836 280.55 83.6548 280.221Z" fill="black"/>
<path d="M97.332 292.335C97.6963 292.013 97.6963 291.49 97.332 291.167C96.9677 290.844 96.3771 290.844 96.0128 291.167C95.6485 291.49 95.6485 292.013 96.0128 292.335C96.3771 292.658 96.9677 292.658 97.332 292.335Z" fill="black"/>
<path d="M110.997 304.439C111.347 304.128 111.347 303.625 110.997 303.314C110.646 303.004 110.078 303.004 109.727 303.314C109.377 303.625 109.377 304.128 109.727 304.439C110.078 304.749 110.646 304.749 110.997 304.439Z" fill="black"/>
<path d="M124.674 316.553C125.018 316.248 125.018 315.755 124.674 315.45C124.33 315.146 123.773 315.146 123.429 315.45C123.086 315.755 123.086 316.248 123.429 316.553C123.773 316.857 124.33 316.857 124.674 316.553Z" fill="black"/>
<path d="M138.339 328.656C138.669 328.363 138.669 327.89 138.339 327.598C138.009 327.305 137.474 327.305 137.144 327.598C136.814 327.89 136.814 328.363 137.144 328.656C137.474 328.948 138.009 328.948 138.339 328.656Z" fill="black"/>
<path d="M1.44217 183.154C1.77209 182.862 1.77209 182.388 1.44217 182.096C1.11225 181.804 0.577354 181.804 0.247437 182.096C-0.0824791 182.388 -0.0824791 182.862 0.247437 183.154C0.577354 183.446 1.11225 183.446 1.44217 183.154Z" fill="black"/>
<path d="M15.1692 195.312C15.5197 195.002 15.5197 194.499 15.1692 194.188C14.8186 193.878 14.2503 193.878 13.8998 194.188C13.5492 194.499 13.5492 195.002 13.8998 195.312C14.2503 195.623 14.8186 195.623 15.1692 195.312Z" fill="black"/>
<path d="M28.8837 207.46C29.248 207.137 29.248 206.614 28.8837 206.291C28.5194 205.969 27.9288 205.969 27.5645 206.291C27.2002 206.614 27.2002 207.137 27.5645 207.46C27.9288 207.782 28.5194 207.782 28.8837 207.46Z" fill="black"/>
<path d="M42.5983 219.607C42.9763 219.272 42.9763 218.729 42.5983 218.394C42.2202 218.059 41.6073 218.059 41.2293 218.394C40.8513 218.729 40.8513 219.272 41.2293 219.607C41.6073 219.942 42.2202 219.942 42.5983 219.607Z" fill="black"/>
<path d="M56.3128 231.754C56.7046 231.407 56.7046 230.844 56.3128 230.497C55.921 230.15 55.2858 230.15 54.8941 230.497C54.5023 230.844 54.5023 231.407 54.8941 231.754C55.2858 232.101 55.921 232.101 56.3128 231.754Z" fill="black"/>
<path d="M70.0274 243.901C70.4329 243.542 70.4329 242.96 70.0274 242.6C69.6218 242.241 68.9644 242.241 68.5588 242.6C68.1533 242.96 68.1533 243.542 68.5588 243.901C68.9643 244.26 69.6218 244.26 70.0274 243.901Z" fill="black"/>
<path d="M83.7419 256.048C84.1612 255.677 84.1612 255.075 83.7419 254.703C83.3226 254.332 82.6429 254.332 82.2236 254.703C81.8043 255.075 81.8043 255.677 82.2236 256.048C82.6429 256.42 83.3226 256.42 83.7419 256.048Z" fill="black"/>
<path d="M97.4316 268.173C97.8508 267.802 97.8508 267.2 97.4316 266.829C97.0123 266.457 96.3325 266.457 95.9132 266.829C95.494 267.2 95.494 267.802 95.9132 268.173C96.3325 268.545 97.0123 268.545 97.4316 268.173Z" fill="black"/>
<path d="M111.096 280.276C111.502 279.917 111.502 279.335 111.096 278.976C110.691 278.617 110.033 278.617 109.628 278.976C109.222 279.335 109.222 279.917 109.628 280.276C110.033 280.636 110.691 280.636 111.096 280.276Z" fill="black"/>
<path d="M124.761 292.38C125.153 292.033 125.153 291.47 124.761 291.123C124.369 290.776 123.734 290.776 123.342 291.123C122.951 291.47 122.951 292.033 123.342 292.38C123.734 292.727 124.369 292.727 124.761 292.38Z" fill="black"/>
<path d="M138.426 304.483C138.804 304.148 138.804 303.605 138.426 303.27C138.048 302.935 137.435 302.935 137.057 303.27C136.679 303.605 136.679 304.148 137.057 304.483C137.435 304.817 138.048 304.817 138.426 304.483Z" fill="black"/>
<path d="M152.091 316.586C152.455 316.263 152.455 315.74 152.091 315.417C151.726 315.095 151.136 315.095 150.771 315.417C150.407 315.74 150.407 316.263 150.771 316.586C151.136 316.908 151.726 316.908 152.091 316.586Z" fill="black"/>
<path d="M165.755 328.689C166.106 328.378 166.106 327.875 165.755 327.564C165.405 327.254 164.837 327.254 164.486 327.564C164.135 327.875 164.135 328.378 164.486 328.689C164.837 328.999 165.405 328.999 165.755 328.689Z" fill="black"/>
<path d="M179.408 340.781C179.738 340.489 179.738 340.015 179.408 339.723C179.078 339.43 178.543 339.43 178.213 339.723C177.883 340.015 177.883 340.489 178.213 340.781C178.543 341.073 179.078 341.073 179.408 340.781Z" fill="black"/>
<path d="M1.44217 158.904C1.77209 158.612 1.77209 158.138 1.44217 157.846C1.11225 157.554 0.577354 157.554 0.247437 157.846C-0.0824791 158.138 -0.0824791 158.612 0.247437 158.904C0.577354 159.196 1.11225 159.196 1.44217 158.904Z" fill="black"/>
<path d="M15.1692 171.062C15.5197 170.752 15.5197 170.248 15.1692 169.938C14.8186 169.627 14.2503 169.627 13.8998 169.938C13.5492 170.248 13.5492 170.752 13.8998 171.062C14.2503 171.373 14.8186 171.373 15.1692 171.062Z" fill="black"/>
<path d="M28.8962 183.22C29.2673 182.892 29.2673 182.359 28.8962 182.03C28.525 181.701 27.9232 181.701 27.5521 182.03C27.1809 182.359 27.1809 182.892 27.5521 183.22C27.9232 183.549 28.525 183.549 28.8962 183.22Z" fill="black"/>
<path d="M42.6231 195.379C43.0149 195.032 43.0149 194.469 42.6231 194.122C42.2314 193.775 41.5962 193.775 41.2044 194.122C40.8126 194.469 40.8126 195.032 41.2044 195.379C41.5962 195.726 42.2314 195.726 42.6231 195.379Z" fill="black"/>
<path d="M56.3501 207.537C56.7625 207.171 56.7625 206.579 56.3501 206.214C55.9377 205.849 55.2691 205.849 54.8567 206.214C54.4443 206.579 54.4443 207.171 54.8567 207.537C55.2691 207.902 55.9377 207.902 56.3501 207.537Z" fill="black"/>
<path d="M70.0647 219.684C70.4908 219.306 70.4908 218.695 70.0647 218.317C69.6385 217.94 68.9476 217.94 68.5215 218.317C68.0953 218.695 68.0954 219.306 68.5215 219.684C68.9476 220.061 69.6385 220.061 70.0647 219.684Z" fill="black"/>
<path d="M83.7917 231.842C84.2384 231.446 84.2384 230.805 83.7917 230.409C83.3449 230.013 82.6206 230.013 82.1738 230.409C81.727 230.805 81.727 231.446 82.1738 231.842C82.6206 232.238 83.3449 232.238 83.7917 231.842Z" fill="black"/>
<path d="M97.5187 244C97.9861 243.586 97.9861 242.915 97.5187 242.501C97.0513 242.087 96.2935 242.087 95.8261 242.501C95.3588 242.915 95.3588 243.586 95.8261 244C96.2935 244.414 97.0513 244.414 97.5187 244Z" fill="black"/>
<path d="M111.208 256.125C111.676 255.711 111.676 255.04 111.208 254.626C110.741 254.212 109.983 254.212 109.516 254.626C109.048 255.04 109.048 255.711 109.516 256.125C109.983 256.539 110.741 256.539 111.208 256.125Z" fill="black"/>
<path d="M124.861 268.217C125.307 267.822 125.307 267.18 124.861 266.785C124.414 266.389 123.69 266.389 123.243 266.785C122.796 267.18 122.796 267.822 123.243 268.217C123.69 268.613 124.414 268.613 124.861 268.217Z" fill="black"/>
<path d="M138.513 280.31C138.939 279.932 138.939 279.32 138.513 278.943C138.087 278.565 137.396 278.565 136.97 278.943C136.544 279.32 136.544 279.932 136.97 280.31C137.396 280.687 138.087 280.687 138.513 280.31Z" fill="black"/>
<path d="M152.178 292.413C152.59 292.047 152.59 291.455 152.178 291.09C151.765 290.725 151.097 290.725 150.684 291.09C150.272 291.455 150.272 292.047 150.684 292.413C151.097 292.778 151.765 292.778 152.178 292.413Z" fill="black"/>
<path d="M165.83 304.505C166.222 304.158 166.222 303.595 165.83 303.248C165.438 302.901 164.803 302.901 164.411 303.248C164.02 303.595 164.02 304.158 164.411 304.505C164.803 304.852 165.438 304.852 165.83 304.505Z" fill="black"/>
<path d="M179.482 316.597C179.854 316.268 179.854 315.735 179.482 315.406C179.111 315.078 178.509 315.078 178.138 315.406C177.767 315.735 177.767 316.268 178.138 316.597C178.509 316.925 179.111 316.925 179.482 316.597Z" fill="black"/>
<path d="M193.135 328.689C193.485 328.378 193.485 327.875 193.135 327.564C192.784 327.254 192.216 327.254 191.865 327.564C191.515 327.875 191.515 328.378 191.865 328.689C192.216 328.999 192.784 328.999 193.135 328.689Z" fill="black"/>
<path d="M206.787 340.781C207.117 340.489 207.117 340.015 206.787 339.723C206.457 339.43 205.922 339.43 205.592 339.723C205.262 340.015 205.262 340.489 205.592 340.781C205.922 341.073 206.457 341.073 206.787 340.781Z" fill="black"/>
<path d="M15.1692 146.812C15.5197 146.501 15.5197 145.998 15.1692 145.688C14.8186 145.377 14.2503 145.377 13.8998 145.688C13.5492 145.998 13.5492 146.501 13.8998 146.812C14.2503 147.122 14.8186 147.122 15.1692 146.812Z" fill="black"/>
<path d="M28.8962 158.97C29.2673 158.641 29.2673 158.108 28.8962 157.78C28.525 157.451 27.9232 157.451 27.5521 157.78C27.1809 158.108 27.1809 158.641 27.5521 158.97C27.9232 159.299 28.525 159.299 28.8962 158.97Z" fill="black"/>
<path d="M42.6231 171.128C43.0149 170.781 43.0149 170.219 42.6231 169.872C42.2314 169.525 41.5962 169.525 41.2044 169.872C40.8126 170.219 40.8126 170.781 41.2044 171.128C41.5962 171.475 42.2314 171.475 42.6231 171.128Z" fill="black"/>
<path d="M56.3626 183.298C56.7819 182.926 56.7819 182.324 56.3626 181.953C55.9433 181.581 55.2635 181.581 54.8443 181.953C54.425 182.324 54.425 182.926 54.8443 183.298C55.2635 183.669 55.9433 183.669 56.3626 183.298Z" fill="black"/>
<path d="M70.102 195.467C70.5488 195.071 70.5488 194.429 70.102 194.034C69.6553 193.638 68.9309 193.638 68.4842 194.034C68.0374 194.429 68.0374 195.071 68.4842 195.467C68.9309 195.862 69.6553 195.862 70.102 195.467Z" fill="black"/>
<path d="M83.829 207.625C84.2964 207.211 84.2964 206.54 83.829 206.126C83.3616 205.712 82.6039 205.712 82.1365 206.126C81.6691 206.54 81.6691 207.211 82.1365 207.625C82.6039 208.039 83.3616 208.039 83.829 207.625Z" fill="black"/>
<path d="M97.5685 219.794C98.0633 219.356 98.0633 218.645 97.5685 218.207C97.0736 217.769 96.2712 217.769 95.7764 218.207C95.2815 218.645 95.2815 219.356 95.7764 219.794C96.2712 220.232 97.0736 220.232 97.5685 219.794Z" fill="black"/>
<path d="M111.295 231.952C111.811 231.496 111.811 230.755 111.295 230.299C110.78 229.842 109.944 229.842 109.429 230.299C108.913 230.755 108.913 231.496 109.429 231.952C109.944 232.409 110.78 232.409 111.295 231.952Z" fill="black"/>
<path d="M124.985 244.077C125.501 243.621 125.501 242.881 124.985 242.424C124.47 241.967 123.634 241.967 123.118 242.424C122.603 242.881 122.603 243.621 123.118 244.077C123.634 244.534 124.47 244.534 124.985 244.077Z" fill="black"/>
<path d="M138.637 256.17C139.132 255.731 139.132 255.021 138.637 254.582C138.143 254.144 137.34 254.144 136.845 254.582C136.35 255.021 136.35 255.731 136.845 256.17C137.34 256.608 138.143 256.608 138.637 256.17Z" fill="black"/>
<path d="M152.277 268.251C152.745 267.837 152.745 267.165 152.277 266.751C151.81 266.337 151.052 266.337 150.585 266.751C150.117 267.165 150.117 267.837 150.585 268.251C151.052 268.665 151.81 268.664 152.277 268.251Z" fill="black"/>
<path d="M165.93 280.343C166.376 279.947 166.376 279.305 165.93 278.91C165.483 278.514 164.759 278.514 164.312 278.91C163.865 279.305 163.865 279.947 164.312 280.343C164.759 280.738 165.483 280.738 165.93 280.343Z" fill="black"/>
<path d="M179.569 292.424C179.989 292.052 179.989 291.45 179.569 291.079C179.15 290.707 178.47 290.707 178.051 291.079C177.632 291.45 177.632 292.052 178.051 292.424C178.47 292.795 179.15 292.795 179.569 292.424Z" fill="black"/>
<path d="M193.209 304.505C193.601 304.158 193.601 303.595 193.209 303.248C192.818 302.901 192.182 302.901 191.791 303.248C191.399 303.595 191.399 304.158 191.791 304.505C192.182 304.852 192.818 304.852 193.209 304.505Z" fill="black"/>
<path d="M206.862 316.597C207.233 316.268 207.233 315.735 206.862 315.406C206.491 315.078 205.889 315.078 205.518 315.406C205.146 315.735 205.146 316.268 205.518 316.597C205.889 316.925 206.491 316.925 206.862 316.597Z" fill="black"/>
<path d="M220.514 328.689C220.865 328.378 220.865 327.875 220.514 327.564C220.163 327.254 219.595 327.254 219.245 327.564C218.894 327.875 218.894 328.378 219.245 328.689C219.595 328.999 220.163 328.999 220.514 328.689Z" fill="black"/>
<path d="M15.1318 122.529C15.4617 122.236 15.4617 121.763 15.1318 121.47C14.8019 121.178 14.267 121.178 13.9371 121.47C13.6072 121.763 13.6072 122.236 13.9371 122.529C14.267 122.821 14.8019 122.821 15.1318 122.529Z" fill="black"/>
<path d="M28.8837 134.709C29.248 134.386 29.248 133.863 28.8837 133.54C28.5194 133.218 27.9288 133.218 27.5645 133.54C27.2002 133.863 27.2002 134.386 27.5645 134.709C27.9288 135.031 28.5194 135.031 28.8837 134.709Z" fill="black"/>
<path d="M42.6231 146.878C43.0149 146.531 43.0149 145.968 42.6231 145.621C42.2314 145.274 41.5962 145.274 41.2044 145.621C40.8126 145.968 40.8126 146.531 41.2044 146.878C41.5962 147.225 42.2314 147.225 42.6231 146.878Z" fill="black"/>
<path d="M56.3626 159.047C56.7819 158.676 56.7819 158.074 56.3626 157.702C55.9433 157.331 55.2635 157.331 54.8443 157.702C54.425 158.074 54.425 158.676 54.8443 159.047C55.2635 159.419 55.9433 159.419 56.3626 159.047Z" fill="black"/>
<path d="M70.102 171.216C70.5488 170.821 70.5488 170.179 70.102 169.784C69.6553 169.388 68.9309 169.388 68.4842 169.784C68.0374 170.179 68.0374 170.821 68.4842 171.216C68.9309 171.612 69.6553 171.612 70.102 171.216Z" fill="black"/>
<path d="M83.8415 183.386C84.3157 182.966 84.3157 182.285 83.8415 181.865C83.3672 181.445 82.5983 181.444 82.124 181.865C81.6498 182.285 81.6498 182.966 82.124 183.386C82.5983 183.806 83.3672 183.806 83.8415 183.386Z" fill="black"/>
<path d="M97.5933 195.566C98.102 195.115 98.102 194.385 97.5933 193.935C97.0847 193.484 96.2601 193.484 95.7515 193.935C95.2428 194.385 95.2428 195.115 95.7515 195.566C96.2601 196.016 97.0847 196.016 97.5933 195.566Z" fill="black"/>
<path d="M111.333 207.735C111.869 207.26 111.869 206.49 111.333 206.016C110.797 205.541 109.927 205.541 109.391 206.016C108.855 206.49 108.855 207.26 109.391 207.735C109.927 208.21 110.797 208.21 111.333 207.735Z" fill="black"/>
<path d="M125.072 219.904C125.636 219.405 125.636 218.596 125.072 218.097C124.509 217.597 123.595 217.597 123.031 218.097C122.468 218.596 122.468 219.405 123.031 219.904C123.595 220.404 124.509 220.404 125.072 219.904Z" fill="black"/>
<path d="M138.762 232.029C139.325 231.53 139.325 230.721 138.762 230.222C138.198 229.723 137.284 229.723 136.721 230.222C136.157 230.721 136.157 231.53 136.721 232.029C137.284 232.529 138.198 232.529 138.762 232.029Z" fill="black"/>
<path d="M152.402 244.111C152.938 243.636 152.938 242.866 152.402 242.391C151.866 241.916 150.996 241.916 150.46 242.391C149.924 242.866 149.924 243.636 150.46 244.111C150.996 244.585 151.866 244.585 152.402 244.111Z" fill="black"/>
<path d="M166.042 256.192C166.55 255.741 166.55 255.011 166.042 254.56C165.533 254.11 164.708 254.11 164.2 254.56C163.691 255.011 163.691 255.741 164.2 256.192C164.708 256.642 165.533 256.642 166.042 256.192Z" fill="black"/>
<path d="M179.669 268.262C180.143 267.842 180.143 267.16 179.669 266.74C179.195 266.32 178.426 266.32 177.952 266.74C177.477 267.16 177.477 267.842 177.952 268.262C178.426 268.682 179.195 268.682 179.669 268.262Z" fill="black"/>
<path d="M193.309 280.343C193.756 279.947 193.756 279.305 193.309 278.91C192.862 278.514 192.138 278.514 191.691 278.91C191.244 279.305 191.244 279.947 191.691 280.343C192.138 280.738 192.862 280.738 193.309 280.343Z" fill="black"/>
<path d="M206.949 292.424C207.368 292.052 207.368 291.45 206.949 291.079C206.53 290.707 205.85 290.707 205.43 291.079C205.011 291.45 205.011 292.052 205.43 292.424C205.85 292.795 206.53 292.795 206.949 292.424Z" fill="black"/>
<path d="M220.589 304.505C220.98 304.158 220.98 303.595 220.589 303.248C220.197 302.901 219.562 302.901 219.17 303.248C218.778 303.595 218.778 304.158 219.17 304.505C219.562 304.852 220.197 304.852 220.589 304.505Z" fill="black"/>
<path d="M234.229 316.586C234.593 316.263 234.593 315.74 234.229 315.417C233.864 315.095 233.274 315.095 232.909 315.417C232.545 315.74 232.545 316.263 232.909 316.586C233.274 316.908 233.864 316.908 234.229 316.586Z" fill="black"/>
<path d="M247.856 328.656C248.186 328.363 248.186 327.89 247.856 327.598C247.526 327.305 246.991 327.305 246.661 327.598C246.331 327.89 246.331 328.363 246.661 328.656C246.991 328.948 247.526 328.948 247.856 328.656Z" fill="black"/>
<path d="M28.8464 110.426C29.19 110.121 29.19 109.628 28.8464 109.323C28.5027 109.019 27.9455 109.019 27.6019 109.323C27.2582 109.628 27.2582 110.121 27.6019 110.426C27.9455 110.73 28.5027 110.73 28.8464 110.426Z" fill="black"/>
<path d="M42.5983 122.606C42.9763 122.271 42.9763 121.728 42.5983 121.393C42.2202 121.058 41.6073 121.058 41.2293 121.393C40.8513 121.728 40.8513 122.271 41.2293 122.606C41.6073 122.941 42.2202 122.941 42.5983 122.606Z" fill="black"/>
<path d="M56.3501 134.786C56.7625 134.421 56.7625 133.829 56.3501 133.463C55.9377 133.098 55.2691 133.098 54.8567 133.463C54.4443 133.829 54.4443 134.421 54.8567 134.786C55.2691 135.151 55.9377 135.151 56.3501 134.786Z" fill="black"/>
<path d="M70.0896 146.955C70.5295 146.566 70.5295 145.934 70.0896 145.544C69.6497 145.155 68.9365 145.155 68.4966 145.544C68.0567 145.934 68.0567 146.566 68.4966 146.955C68.9365 147.345 69.6497 147.345 70.0896 146.955Z" fill="black"/>
<path d="M83.8415 159.135C84.3157 158.715 84.3157 158.034 83.8415 157.614C83.3672 157.194 82.5983 157.194 82.124 157.614C81.6498 158.034 81.6498 158.715 82.124 159.135C82.5983 159.556 83.3672 159.556 83.8415 159.135Z" fill="black"/>
<path d="M97.5933 171.316C98.102 170.865 98.102 170.135 97.5933 169.684C97.0847 169.234 96.2601 169.234 95.7515 169.684C95.2428 170.135 95.2428 170.865 95.7515 171.316C96.2601 171.766 97.0847 171.766 97.5933 171.316Z" fill="black"/>
<path d="M111.345 183.496C111.888 183.015 111.888 182.235 111.345 181.754C110.802 181.273 109.922 181.273 109.379 181.754C108.836 182.235 108.836 183.015 109.379 183.496C109.922 183.977 110.802 183.977 111.345 183.496Z" fill="black"/>
<path d="M125.097 195.676C125.674 195.165 125.674 194.336 125.097 193.824C124.52 193.313 123.584 193.313 123.006 193.824C122.429 194.336 122.429 195.165 123.006 195.676C123.584 196.188 124.52 196.188 125.097 195.676Z" fill="black"/>
<path d="M138.849 207.856C139.461 207.315 139.461 206.436 138.849 205.894C138.237 205.353 137.245 205.353 136.634 205.894C136.022 206.436 136.022 207.315 136.634 207.856C137.245 208.398 138.237 208.398 138.849 207.856Z" fill="black"/>
<path d="M152.539 219.982C153.15 219.44 153.15 218.561 152.539 218.019C151.927 217.478 150.935 217.478 150.323 218.019C149.712 218.561 149.712 219.44 150.323 219.982C150.935 220.523 151.927 220.523 152.539 219.982Z" fill="black"/>
<path d="M166.166 232.052C166.743 231.54 166.743 230.711 166.166 230.2C165.589 229.688 164.653 229.688 164.075 230.2C163.498 230.711 163.498 231.54 164.075 232.052C164.653 232.563 165.589 232.563 166.166 232.052Z" fill="black"/>
<path d="M179.794 244.122C180.336 243.641 180.337 242.861 179.794 242.38C179.251 241.899 178.37 241.899 177.827 242.38C177.284 242.861 177.284 243.641 177.827 244.122C178.37 244.602 179.251 244.602 179.794 244.122Z" fill="black"/>
<path d="M193.421 256.192C193.93 255.741 193.93 255.011 193.421 254.56C192.912 254.11 192.088 254.11 191.579 254.56C191.07 255.011 191.07 255.741 191.579 256.192C192.088 256.642 192.912 256.642 193.421 256.192Z" fill="black"/>
<path d="M207.048 268.262C207.523 267.842 207.523 267.16 207.048 266.74C206.574 266.32 205.805 266.32 205.331 266.74C204.857 267.16 204.857 267.842 205.331 268.262C205.805 268.682 206.574 268.682 207.048 268.262Z" fill="black"/>
<path d="M220.676 280.332C221.116 279.942 221.116 279.31 220.676 278.921C220.236 278.531 219.523 278.531 219.083 278.921C218.643 279.31 218.643 279.942 219.083 280.332C219.523 280.721 220.236 280.721 220.676 280.332Z" fill="black"/>
<path d="M234.316 292.413C234.728 292.047 234.728 291.455 234.316 291.09C233.903 290.725 233.235 290.725 232.822 291.09C232.41 291.455 232.41 292.047 232.822 292.413C233.235 292.778 233.903 292.778 234.316 292.413Z" fill="black"/>
<path d="M247.943 304.483C248.321 304.148 248.321 303.605 247.943 303.27C247.565 302.935 246.952 302.935 246.574 303.27C246.196 303.605 246.196 304.148 246.574 304.483C246.952 304.817 247.565 304.817 247.943 304.483Z" fill="black"/>
<path d="M261.571 316.553C261.914 316.248 261.914 315.755 261.571 315.45C261.227 315.146 260.67 315.146 260.326 315.45C259.982 315.755 259.982 316.248 260.326 316.553C260.67 316.857 261.227 316.857 261.571 316.553Z" fill="black"/>
<path d="M28.7966 86.1312C29.1128 85.8511 29.1128 85.3971 28.7966 85.1171C28.4804 84.837 27.9678 84.837 27.6516 85.1171C27.3355 85.3971 27.3355 85.8511 27.6516 86.1312C27.9678 86.4112 28.4804 86.4112 28.7966 86.1312Z" fill="black"/>
<path d="M42.5485 98.3114C42.899 98.0009 42.899 97.4976 42.5485 97.1871C42.1979 96.8766 41.6296 96.8766 41.2791 97.1871C40.9285 97.4976 40.9285 98.0009 41.2791 98.3114C41.6296 98.6219 42.1979 98.6219 42.5485 98.3114Z" fill="black"/>
<path d="M56.3128 110.503C56.7046 110.156 56.7046 109.593 56.3128 109.246C55.921 108.899 55.2858 108.899 54.8941 109.246C54.5023 109.593 54.5023 110.156 54.8941 110.503C55.2858 110.85 55.921 110.85 56.3128 110.503Z" fill="black"/>
<path d="M70.0647 122.683C70.4908 122.305 70.4908 121.694 70.0647 121.316C69.6385 120.939 68.9476 120.939 68.5215 121.316C68.0954 121.694 68.0953 122.305 68.5215 122.683C68.9476 123.06 69.6385 123.06 70.0647 122.683Z" fill="black"/>
<path d="M83.829 134.874C84.2964 134.46 84.2964 133.789 83.829 133.375C83.3616 132.961 82.6039 132.961 82.1365 133.375C81.6691 133.789 81.6691 134.46 82.1365 134.874C82.6039 135.288 83.3616 135.288 83.829 134.874Z" fill="black"/>
<path d="M97.5933 147.065C98.102 146.615 98.102 145.885 97.5933 145.434C97.0847 144.984 96.2601 144.984 95.7515 145.434C95.2428 145.885 95.2428 146.615 95.7515 147.065C96.2601 147.516 97.0847 147.516 97.5933 147.065Z" fill="black"/>
<path d="M111.345 159.246C111.888 158.765 111.888 157.985 111.345 157.504C110.802 157.023 109.922 157.023 109.379 157.504C108.836 157.985 108.836 158.765 109.379 159.246C109.922 159.727 110.802 159.727 111.345 159.246Z" fill="black"/>
<path d="M125.11 171.437C125.694 170.919 125.694 170.081 125.11 169.563C124.525 169.046 123.578 169.046 122.994 169.563C122.41 170.081 122.41 170.919 122.994 171.437C123.578 171.954 124.525 171.954 125.11 171.437Z" fill="black"/>
<path d="M138.861 183.617C139.48 183.069 139.48 182.181 138.861 181.633C138.243 181.085 137.24 181.085 136.621 181.633C136.003 182.181 136.003 183.069 136.621 183.617C137.24 184.165 138.243 184.165 138.861 183.617Z" fill="black"/>
<path d="M152.626 195.808C153.286 195.224 153.286 194.276 152.626 193.692C151.966 193.108 150.896 193.108 150.236 193.692C149.576 194.276 149.576 195.224 150.236 195.808C150.896 196.393 151.966 196.393 152.626 195.808Z" fill="black"/>
<path d="M166.315 207.934C166.975 207.349 166.975 206.402 166.315 205.817C165.656 205.233 164.586 205.233 163.926 205.817C163.266 206.402 163.266 207.349 163.926 207.934C164.586 208.518 165.656 208.518 166.315 207.934Z" fill="black"/>
<path d="M179.93 219.993C180.549 219.445 180.549 218.556 179.93 218.008C179.312 217.461 178.309 217.461 177.69 218.008C177.072 218.556 177.072 219.445 177.69 219.993C178.309 220.54 179.312 220.54 179.93 219.993Z" fill="black"/>
<path d="M193.558 232.063C194.142 231.545 194.142 230.706 193.558 230.189C192.974 229.671 192.026 229.671 191.442 230.189C190.858 230.706 190.858 231.545 191.442 232.063C192.026 232.58 192.974 232.58 193.558 232.063Z" fill="black"/>
<path d="M207.173 244.122C207.716 243.641 207.716 242.861 207.173 242.38C206.63 241.899 205.749 241.899 205.206 242.38C204.664 242.861 204.663 243.641 205.206 244.122C205.749 244.602 206.63 244.602 207.173 244.122Z" fill="black"/>
<path d="M220.8 256.192C221.309 255.741 221.309 255.011 220.8 254.56C220.292 254.11 219.467 254.11 218.958 254.56C218.45 255.011 218.45 255.741 218.958 256.192C219.467 256.642 220.292 256.642 220.8 256.192Z" fill="black"/>
<path d="M234.415 268.251C234.883 267.837 234.883 267.165 234.415 266.751C233.948 266.337 233.19 266.337 232.723 266.751C232.255 267.165 232.255 267.837 232.723 268.251C233.19 268.665 233.948 268.664 234.415 268.251Z" fill="black"/>
<path d="M248.03 280.31C248.456 279.932 248.456 279.32 248.03 278.943C247.604 278.565 246.913 278.565 246.487 278.943C246.061 279.32 246.061 279.932 246.487 280.31C246.913 280.687 247.604 280.687 248.03 280.31Z" fill="black"/>
<path d="M261.658 292.38C262.049 292.033 262.049 291.47 261.658 291.123C261.266 290.776 260.631 290.776 260.239 291.123C259.847 291.47 259.847 292.033 260.239 292.38C260.631 292.727 261.266 292.727 261.658 292.38Z" fill="black"/>
<path d="M275.273 304.439C275.623 304.128 275.623 303.625 275.273 303.314C274.922 303.004 274.354 303.004 274.003 303.314C273.653 303.625 273.653 304.128 274.003 304.439C274.354 304.749 274.922 304.749 275.273 304.439Z" fill="black"/>
<path d="M288.9 316.509C289.216 316.229 289.216 315.774 288.9 315.494C288.584 315.214 288.071 315.214 287.755 315.494C287.439 315.774 287.439 316.229 287.755 316.509C288.071 316.789 288.584 316.789 288.9 316.509Z" fill="black"/>
<path d="M42.4863 74.0061C42.8024 73.726 42.8024 73.272 42.4862 72.992C42.1701 72.7119 41.6575 72.7119 41.3413 72.992C41.0251 73.272 41.0251 73.726 41.3413 74.0061C41.6575 74.2861 42.1701 74.2861 42.4863 74.0061Z" fill="black"/>
<path d="M56.263 86.2083C56.6273 85.8857 56.6273 85.3626 56.263 85.0399C55.8987 84.7173 55.3081 84.7173 54.9438 85.0399C54.5796 85.3626 54.5796 85.8857 54.9438 86.2083C55.3081 86.531 55.8987 86.531 56.263 86.2083Z" fill="black"/>
<path d="M70.0274 98.3996C70.4329 98.0404 70.4329 97.4581 70.0274 97.0989C69.6218 96.7397 68.9643 96.7397 68.5588 97.0989C68.1533 97.4581 68.1533 98.0404 68.5588 98.3996C68.9644 98.7588 69.6218 98.7588 70.0274 98.3996Z" fill="black"/>
<path d="M83.7917 110.591C84.2384 110.195 84.2384 109.554 83.7917 109.158C83.3449 108.762 82.6206 108.762 82.1738 109.158C81.727 109.554 81.727 110.195 82.1738 110.591C82.6206 110.987 83.3449 110.987 83.7917 110.591Z" fill="black"/>
<path d="M97.5685 122.793C98.0633 122.355 98.0633 121.644 97.5685 121.206C97.0736 120.768 96.2712 120.768 95.7764 121.206C95.2815 121.644 95.2815 122.355 95.7764 122.793C96.2712 123.231 97.0736 123.231 97.5685 122.793Z" fill="black"/>
<path d="M111.333 134.984C111.869 134.51 111.869 133.74 111.333 133.265C110.797 132.79 109.927 132.79 109.391 133.265C108.855 133.74 108.855 134.51 109.391 134.984C109.927 135.459 110.797 135.459 111.333 134.984Z" fill="black"/>
<path d="M125.097 147.176C125.674 146.664 125.674 145.835 125.097 145.324C124.52 144.812 123.584 144.812 123.006 145.324C122.429 145.835 122.429 146.664 123.006 147.176C123.584 147.687 124.52 147.687 125.097 147.176Z" fill="black"/>
<path d="M138.861 159.367C139.48 158.819 139.48 157.931 138.861 157.383C138.243 156.835 137.24 156.835 136.621 157.383C136.003 157.931 136.003 158.819 136.621 159.367C137.24 159.915 138.243 159.915 138.861 159.367Z" fill="black"/>
<path d="M152.638 171.569C153.305 170.979 153.305 170.021 152.638 169.431C151.972 168.84 150.891 168.84 150.224 169.431C149.557 170.021 149.557 170.979 150.224 171.569C150.891 172.16 151.972 172.16 152.638 171.569Z" fill="black"/>
<path d="M166.403 183.76C167.11 183.133 167.11 182.117 166.403 181.49C165.695 180.863 164.547 180.863 163.839 181.49C163.131 182.117 163.131 183.133 163.839 183.76C164.547 184.388 165.695 184.388 166.403 183.76Z" fill="black"/>
<path d="M180.092 195.886C180.8 195.259 180.8 194.242 180.092 193.615C179.384 192.988 178.236 192.988 177.528 193.615C176.821 194.242 176.821 195.259 177.528 195.886C178.236 196.513 179.384 196.513 180.092 195.886Z" fill="black"/>
<path d="M193.707 207.945C194.374 207.354 194.374 206.397 193.707 205.806C193.04 205.216 191.96 205.216 191.293 205.806C190.626 206.397 190.626 207.354 191.293 207.945C191.96 208.535 193.04 208.535 193.707 207.945Z" fill="black"/>
<path d="M207.31 219.993C207.928 219.445 207.928 218.556 207.31 218.008C206.691 217.461 205.688 217.461 205.07 218.008C204.451 218.556 204.451 219.445 205.07 219.993C205.688 220.54 206.691 220.54 207.31 219.993Z" fill="black"/>
<path d="M220.925 232.052C221.502 231.54 221.502 230.711 220.925 230.2C220.347 229.688 219.411 229.688 218.834 230.2C218.257 230.711 218.257 231.54 218.834 232.052C219.411 232.563 220.347 232.563 220.925 232.052Z" fill="black"/>
<path d="M234.54 244.111C235.076 243.636 235.076 242.866 234.54 242.391C234.004 241.916 233.134 241.916 232.598 242.391C232.062 242.866 232.062 243.636 232.598 244.111C233.134 244.585 234.004 244.585 234.54 244.111Z" fill="black"/>
<path d="M248.155 256.17C248.65 255.731 248.65 255.021 248.155 254.582C247.66 254.144 246.857 254.144 246.363 254.582C245.868 255.021 245.868 255.731 246.363 256.17C246.857 256.608 247.66 256.608 248.155 256.17Z" fill="black"/>
<path d="M261.757 268.217C262.204 267.822 262.204 267.18 261.757 266.785C261.31 266.389 260.586 266.389 260.139 266.785C259.693 267.18 259.693 267.822 260.139 268.217C260.586 268.613 261.31 268.613 261.757 268.217Z" fill="black"/>
<path d="M275.372 280.276C275.778 279.917 275.778 279.335 275.372 278.976C274.967 278.617 274.309 278.617 273.904 278.976C273.498 279.335 273.498 279.917 273.904 280.276C274.309 280.636 274.967 280.636 275.372 280.276Z" fill="black"/>
<path d="M288.987 292.335C289.351 292.013 289.351 291.49 288.987 291.167C288.623 290.844 288.032 290.844 287.668 291.167C287.304 291.49 287.304 292.013 287.668 292.335C288.032 292.658 288.623 292.658 288.987 292.335Z" fill="black"/>
<path d="M302.59 304.383C302.906 304.103 302.906 303.649 302.59 303.369C302.274 303.089 301.761 303.089 301.445 303.369C301.129 303.649 301.129 304.103 301.445 304.383C301.761 304.663 302.274 304.663 302.59 304.383Z" fill="black"/>
<path d="M56.1884 61.8919C56.5114 61.6058 56.5114 61.1419 56.1884 60.8558C55.8653 60.5697 55.3416 60.5697 55.0185 60.8558C54.6955 61.1419 54.6955 61.6058 55.0185 61.892C55.3415 62.1781 55.8653 62.1781 56.1884 61.8919Z" fill="black"/>
<path d="M69.9651 74.0942C70.3363 73.7655 70.3363 73.2325 69.9651 72.9038C69.594 72.575 68.9922 72.575 68.621 72.9038C68.2499 73.2325 68.2499 73.7655 68.621 74.0942C68.9922 74.423 69.594 74.423 69.9651 74.0942Z" fill="black"/>
<path d="M83.7419 86.2965C84.1612 85.9252 84.1612 85.3231 83.7419 84.9517C83.3226 84.5804 82.6429 84.5804 82.2236 84.9517C81.8043 85.3231 81.8043 85.9252 82.2236 86.2965C82.6429 86.6679 83.3226 86.6679 83.7419 86.2965Z" fill="black"/>
<path d="M97.5187 98.4988C97.9861 98.0848 97.9861 97.4137 97.5187 96.9997C97.0513 96.5857 96.2935 96.5857 95.8261 96.9997C95.3588 97.4137 95.3588 98.0848 95.8261 98.4988C96.2935 98.9128 97.0513 98.9128 97.5187 98.4988Z" fill="black"/>
<path d="M111.295 110.701C111.811 110.245 111.811 109.504 111.295 109.048C110.78 108.591 109.944 108.591 109.429 109.048C108.913 109.504 108.913 110.245 109.429 110.701C109.944 111.158 110.78 111.158 111.295 110.701Z" fill="black"/>
<path d="M125.072 122.903C125.636 122.404 125.636 121.595 125.072 121.096C124.509 120.596 123.595 120.596 123.031 121.096C122.468 121.595 122.468 122.404 123.031 122.903C123.595 123.403 124.509 123.403 125.072 122.903Z" fill="black"/>
<path d="M138.849 135.106C139.461 134.564 139.461 133.685 138.849 133.144C138.237 132.602 137.245 132.602 136.634 133.144C136.022 133.685 136.022 134.564 136.634 135.106C137.245 135.647 138.237 135.647 138.849 135.106Z" fill="black"/>
<path d="M152.626 147.308C153.286 146.724 153.286 145.776 152.626 145.192C151.966 144.607 150.896 144.607 150.236 145.192C149.576 145.776 149.576 146.724 150.236 147.308C150.896 147.892 151.966 147.892 152.626 147.308Z" fill="black"/>
<path d="M166.403 159.51C167.11 158.883 167.11 157.867 166.403 157.24C165.695 156.612 164.547 156.612 163.839 157.24C163.131 157.867 163.131 158.883 163.839 159.51C164.547 160.137 165.695 160.137 166.403 159.51Z" fill="black"/>
<path d="M180.179 171.713C180.935 171.043 180.935 169.957 180.179 169.287C179.423 168.618 178.197 168.618 177.441 169.287C176.685 169.957 176.685 171.043 177.441 171.713C178.197 172.382 179.423 172.382 180.179 171.713Z" fill="black"/>
<path d="M193.869 183.838C194.625 183.168 194.625 182.082 193.869 181.413C193.113 180.743 191.887 180.743 191.131 181.413C190.375 182.082 190.375 183.168 191.131 183.838C191.887 184.507 193.113 184.507 193.869 183.838Z" fill="black"/>
<path d="M207.471 195.886C208.179 195.259 208.179 194.242 207.471 193.615C206.764 192.988 205.616 192.988 204.908 193.615C204.2 194.242 204.2 195.259 204.908 195.886C205.616 196.513 206.764 196.513 207.471 195.886Z" fill="black"/>
<path d="M221.074 207.934C221.734 207.349 221.734 206.402 221.074 205.817C220.414 205.233 219.344 205.233 218.685 205.817C218.025 206.402 218.025 207.349 218.685 207.934C219.344 208.518 220.414 208.518 221.074 207.934Z" fill="black"/>
<path d="M234.677 219.982C235.288 219.44 235.288 218.561 234.677 218.019C234.065 217.478 233.073 217.478 232.461 218.019C231.85 218.561 231.85 219.44 232.461 219.982C233.073 220.523 234.065 220.523 234.677 219.982Z" fill="black"/>
<path d="M248.279 232.029C248.843 231.53 248.843 230.721 248.279 230.222C247.716 229.723 246.802 229.723 246.238 230.222C245.674 230.721 245.675 231.53 246.238 232.029C246.802 232.529 247.716 232.529 248.279 232.029Z" fill="black"/>
<path d="M261.882 244.077C262.397 243.621 262.397 242.881 261.882 242.424C261.366 241.967 260.53 241.967 260.015 242.424C259.499 242.881 259.499 243.621 260.015 244.077C260.53 244.534 261.366 244.534 261.882 244.077Z" fill="black"/>
<path d="M275.484 256.125C275.952 255.711 275.952 255.04 275.484 254.626C275.017 254.212 274.259 254.212 273.792 254.626C273.324 255.04 273.324 255.711 273.792 256.125C274.259 256.539 275.017 256.539 275.484 256.125Z" fill="black"/>
<path d="M289.087 268.173C289.506 267.802 289.506 267.2 289.087 266.829C288.668 266.457 287.988 266.457 287.568 266.829C287.149 267.2 287.149 267.802 287.568 268.173C287.988 268.545 288.668 268.545 289.087 268.173Z" fill="black"/>
<path d="M302.689 280.221C303.06 279.893 303.06 279.36 302.689 279.031C302.318 278.702 301.716 278.702 301.345 279.031C300.974 279.36 300.974 279.893 301.345 280.221C301.716 280.55 302.318 280.55 302.689 280.221Z" fill="black"/>
<path d="M316.292 292.269C316.615 291.983 316.615 291.519 316.292 291.233C315.969 290.947 315.445 290.947 315.122 291.233C314.799 291.519 314.799 291.983 315.122 292.269C315.445 292.555 315.969 292.555 316.292 292.269Z" fill="black"/>
<path d="M69.878 49.7668C70.2011 49.4807 70.2011 49.0168 69.878 48.7307C69.555 48.4446 69.0312 48.4446 68.7082 48.7307C68.3851 49.0168 68.3851 49.4807 68.7082 49.7668C69.0312 50.0529 69.555 50.0529 69.878 49.7668Z" fill="black"/>
<path d="M83.6548 61.9691C84.0259 61.6404 84.0259 61.1074 83.6548 60.7786C83.2836 60.4499 82.6819 60.4499 82.3107 60.7786C81.9396 61.1074 81.9396 61.6404 82.3107 61.9691C82.6819 62.2978 83.2836 62.2978 83.6548 61.9691Z" fill="black"/>
<path d="M97.4316 74.1714C97.8508 73.8 97.8508 73.198 97.4316 72.8266C97.0123 72.4553 96.3325 72.4553 95.9132 72.8266C95.494 73.198 95.494 73.8 95.9132 74.1714C96.3325 74.5427 97.0123 74.5427 97.4316 74.1714Z" fill="black"/>
<path d="M111.208 86.3737C111.676 85.9597 111.676 85.2885 111.208 84.8746C110.741 84.4606 109.983 84.4606 109.516 84.8746C109.048 85.2885 109.048 85.9597 109.516 86.3737C109.983 86.7876 110.741 86.7876 111.208 86.3737Z" fill="black"/>
<path d="M124.985 98.576C125.501 98.1194 125.501 97.3791 124.985 96.9225C124.47 96.466 123.634 96.466 123.118 96.9225C122.603 97.3791 122.603 98.1194 123.118 98.576C123.634 99.0325 124.47 99.0325 124.985 98.576Z" fill="black"/>
<path d="M138.762 110.778C139.325 110.279 139.325 109.47 138.762 108.971C138.198 108.471 137.284 108.471 136.721 108.971C136.157 109.47 136.157 110.279 136.721 110.778C137.284 111.277 138.198 111.277 138.762 110.778Z" fill="black"/>
<path d="M152.539 122.981C153.15 122.439 153.15 121.56 152.539 121.018C151.927 120.477 150.935 120.477 150.323 121.018C149.712 121.56 149.712 122.439 150.323 122.981C150.935 123.522 151.927 123.522 152.539 122.981Z" fill="black"/>
<path d="M166.315 135.183C166.975 134.598 166.975 133.651 166.315 133.066C165.656 132.482 164.586 132.482 163.926 133.066C163.266 133.651 163.266 134.598 163.926 135.183C164.586 135.767 165.656 135.767 166.315 135.183Z" fill="black"/>
<path d="M180.092 147.385C180.8 146.758 180.8 145.741 180.092 145.114C179.384 144.487 178.236 144.487 177.528 145.114C176.821 145.741 176.821 146.758 177.528 147.385C178.236 148.012 179.384 148.012 180.092 147.385Z" fill="black"/>
<path d="M193.869 159.587C194.625 158.918 194.625 157.832 193.869 157.162C193.113 156.493 191.887 156.493 191.131 157.162C190.375 157.832 190.375 158.918 191.131 159.587C191.887 160.257 193.113 160.257 193.869 159.587Z" fill="black"/>
<path d="M207.559 171.713C208.315 171.043 208.315 169.957 207.559 169.287C206.803 168.618 205.577 168.618 204.821 169.287C204.065 169.957 204.065 171.043 204.821 171.713C205.577 172.382 206.803 172.382 207.559 171.713Z" fill="black"/>
<path d="M221.161 183.76C221.869 183.133 221.869 182.117 221.161 181.49C220.453 180.863 219.305 180.863 218.597 181.49C217.89 182.117 217.89 183.133 218.597 183.76C219.305 184.388 220.453 184.388 221.161 183.76Z" fill="black"/>
<path d="M234.764 195.808C235.424 195.224 235.424 194.276 234.764 193.692C234.104 193.108 233.034 193.108 232.374 193.692C231.714 194.276 231.714 195.224 232.374 195.808C233.034 196.393 234.104 196.393 234.764 195.808Z" fill="black"/>
<path d="M248.366 207.856C248.978 207.315 248.978 206.436 248.366 205.894C247.755 205.353 246.763 205.353 246.151 205.894C245.539 206.436 245.539 207.315 246.151 207.856C246.763 208.398 247.755 208.398 248.366 207.856Z" fill="black"/>
<path d="M261.969 219.904C262.532 219.405 262.532 218.596 261.969 218.097C261.405 217.597 260.491 217.597 259.928 218.097C259.364 218.596 259.364 219.405 259.928 219.904C260.491 220.404 261.405 220.404 261.969 219.904Z" fill="black"/>
<path d="M275.571 231.952C276.087 231.496 276.087 230.755 275.571 230.299C275.056 229.842 274.22 229.842 273.705 230.299C273.189 230.755 273.189 231.496 273.705 231.952C274.22 232.409 275.056 232.409 275.571 231.952Z" fill="black"/>
<path d="M289.174 244C289.641 243.586 289.641 242.915 289.174 242.501C288.706 242.087 287.949 242.087 287.481 242.501C287.014 242.915 287.014 243.586 287.481 244C287.949 244.414 288.706 244.414 289.174 244Z" fill="black"/>
<path d="M302.776 256.048C303.196 255.677 303.196 255.075 302.776 254.703C302.357 254.332 301.677 254.332 301.258 254.703C300.839 255.075 300.839 255.677 301.258 256.048C301.677 256.42 302.357 256.42 302.776 256.048Z" fill="black"/>
<path d="M316.379 268.096C316.75 267.767 316.75 267.234 316.379 266.906C316.008 266.577 315.406 266.577 315.035 266.906C314.664 267.234 314.664 267.767 315.035 268.096C315.406 268.425 316.008 268.425 316.379 268.096Z" fill="black"/>
<path d="M329.981 280.144C330.305 279.858 330.305 279.394 329.981 279.108C329.658 278.822 329.135 278.822 328.812 279.108C328.489 279.394 328.489 279.858 328.812 280.144C329.135 280.43 329.658 280.43 329.981 280.144Z" fill="black"/>
<path d="M83.5552 37.6307C83.8714 37.3506 83.8714 36.8966 83.5552 36.6166C83.2391 36.3365 82.7264 36.3365 82.4103 36.6166C82.0941 36.8966 82.0941 37.3506 82.4103 37.6307C82.7264 37.9107 83.2391 37.9107 83.5552 37.6307Z" fill="black"/>
<path d="M97.332 49.833C97.6963 49.5103 97.6963 48.9872 97.332 48.6645C96.9677 48.3419 96.3771 48.3419 96.0128 48.6645C95.6485 48.9872 95.6485 49.5103 96.0128 49.833C96.3771 50.1556 96.9677 50.1556 97.332 49.833Z" fill="black"/>
<path d="M111.096 62.0242C111.502 61.665 111.502 61.0827 111.096 60.7235C110.691 60.3644 110.033 60.3644 109.628 60.7235C109.222 61.0827 109.222 61.665 109.628 62.0242C110.033 62.3834 110.691 62.3834 111.096 62.0242Z" fill="black"/>
<path d="M124.861 74.2155C125.307 73.8198 125.307 73.1782 124.861 72.7825C124.414 72.3868 123.69 72.3868 123.243 72.7825C122.796 73.1782 122.796 73.8198 123.243 74.2155C123.69 74.6112 124.414 74.6112 124.861 74.2155Z" fill="black"/>
<path d="M138.637 86.4178C139.132 85.9795 139.132 85.2688 138.637 84.8305C138.143 84.3922 137.34 84.3922 136.845 84.8305C136.35 85.2688 136.35 85.9795 136.845 86.4178C137.34 86.8561 138.143 86.8561 138.637 86.4178Z" fill="black"/>
<path d="M152.402 98.609C152.938 98.1342 152.938 97.3643 152.402 96.8895C151.866 96.4146 150.996 96.4146 150.46 96.8895C149.924 97.3643 149.924 98.1342 150.46 98.609C150.996 99.0839 151.866 99.0839 152.402 98.609Z" fill="black"/>
<path d="M166.166 110.8C166.743 110.289 166.743 109.46 166.166 108.948C165.589 108.437 164.653 108.437 164.075 108.948C163.498 109.46 163.498 110.289 164.075 110.8C164.653 111.312 165.589 111.312 166.166 110.8Z" fill="black"/>
<path d="M179.93 122.992C180.549 122.444 180.549 121.555 179.93 121.007C179.312 120.46 178.309 120.46 177.69 121.007C177.072 121.555 177.072 122.444 177.69 122.992C178.309 123.539 179.312 123.539 179.93 122.992Z" fill="black"/>
<path d="M193.707 135.194C194.374 134.603 194.374 133.646 193.707 133.055C193.04 132.465 191.96 132.465 191.293 133.055C190.626 133.646 190.626 134.603 191.293 135.194C191.96 135.784 193.04 135.784 193.707 135.194Z" fill="black"/>
<path d="M207.471 147.385C208.179 146.758 208.179 145.741 207.471 145.114C206.764 144.487 205.616 144.487 204.908 145.114C204.2 145.741 204.2 146.758 204.908 147.385C205.616 148.012 206.764 148.012 207.471 147.385Z" fill="black"/>
<path d="M221.161 159.51C221.869 158.883 221.869 157.867 221.161 157.24C220.453 156.612 219.305 156.612 218.597 157.24C217.89 157.867 217.89 158.883 218.597 159.51C219.305 160.137 220.453 160.137 221.161 159.51Z" fill="black"/>
<path d="M234.776 171.569C235.443 170.979 235.443 170.021 234.776 169.431C234.109 168.84 233.029 168.84 232.362 169.431C231.695 170.021 231.695 170.979 232.362 171.569C233.029 172.16 234.109 172.16 234.776 171.569Z" fill="black"/>
<path d="M248.379 183.617C248.997 183.069 248.997 182.181 248.379 181.633C247.76 181.085 246.757 181.085 246.139 181.633C245.52 182.181 245.52 183.069 246.139 183.617C246.757 184.165 247.76 184.165 248.379 183.617Z" fill="black"/>
<path d="M261.994 195.676C262.571 195.165 262.571 194.336 261.994 193.824C261.416 193.313 260.48 193.313 259.903 193.824C259.326 194.336 259.326 195.165 259.903 195.676C260.48 196.188 261.416 196.188 261.994 195.676Z" fill="black"/>
<path d="M275.609 207.735C276.145 207.26 276.145 206.49 275.609 206.016C275.073 205.541 274.203 205.541 273.667 206.016C273.131 206.49 273.131 207.26 273.667 207.735C274.203 208.21 275.073 208.21 275.609 207.735Z" fill="black"/>
<path d="M289.224 219.794C289.719 219.356 289.719 218.645 289.224 218.207C288.729 217.769 287.926 217.769 287.432 218.207C286.937 218.645 286.937 219.356 287.432 219.794C287.926 220.232 288.729 220.232 289.224 219.794Z" fill="black"/>
<path d="M302.826 231.842C303.273 231.446 303.273 230.805 302.826 230.409C302.379 230.013 301.655 230.013 301.208 230.409C300.762 230.805 300.762 231.446 301.208 231.842C301.655 232.238 302.379 232.238 302.826 231.842Z" fill="black"/>
<path d="M316.441 243.901C316.847 243.542 316.847 242.96 316.441 242.6C316.036 242.241 315.378 242.241 314.973 242.6C314.567 242.96 314.567 243.542 314.973 243.901C315.378 244.26 316.036 244.26 316.441 243.901Z" fill="black"/>
<path d="M330.056 255.96C330.42 255.637 330.42 255.114 330.056 254.792C329.692 254.469 329.101 254.469 328.737 254.792C328.373 255.114 328.373 255.637 328.737 255.96C329.101 256.283 329.692 256.283 330.056 255.96Z" fill="black"/>
<path d="M343.659 268.008C343.975 267.728 343.975 267.274 343.659 266.994C343.343 266.714 342.83 266.714 342.514 266.994C342.198 267.274 342.198 267.728 342.514 268.008C342.83 268.288 343.343 268.288 343.659 268.008Z" fill="black"/>
<path d="M97.2449 25.5056C97.5611 25.2255 97.5611 24.7715 97.2449 24.4914C96.9287 24.2114 96.4161 24.2114 96.0999 24.4915C95.7838 24.7715 95.7837 25.2255 96.0999 25.5056C96.4161 25.7856 96.9287 25.7856 97.2449 25.5056Z" fill="black"/>
<path d="M110.997 37.6858C111.347 37.3753 111.347 36.8719 110.997 36.5615C110.646 36.251 110.078 36.251 109.727 36.5615C109.377 36.8719 109.377 37.3753 109.727 37.6858C110.078 37.9963 110.646 37.9963 110.997 37.6858Z" fill="black"/>
<path d="M124.761 49.8771C125.153 49.5301 125.153 48.9674 124.761 48.6204C124.369 48.2734 123.734 48.2734 123.342 48.6204C122.951 48.9674 122.951 49.5301 123.342 49.8771C123.734 50.2241 124.369 50.2241 124.761 49.8771Z" fill="black"/>
<path d="M138.513 62.0573C138.939 61.6799 138.939 61.0679 138.513 60.6905C138.087 60.313 137.396 60.313 136.97 60.6905C136.544 61.0679 136.544 61.6798 136.97 62.0573C137.396 62.4347 138.087 62.4347 138.513 62.0573Z" fill="black"/>
<path d="M152.277 74.2486C152.745 73.8346 152.745 73.1634 152.277 72.7495C151.81 72.3355 151.052 72.3355 150.585 72.7495C150.117 73.1634 150.117 73.8346 150.585 74.2486C151.052 74.6625 151.81 74.6625 152.277 74.2486Z" fill="black"/>
<path d="M166.042 86.4398C166.55 85.9893 166.55 85.2589 166.042 84.8084C165.533 84.3579 164.708 84.3579 164.2 84.8084C163.691 85.2589 163.691 85.9893 164.2 86.4398C164.708 86.8903 165.533 86.8903 166.042 86.4398Z" fill="black"/>
<path d="M179.794 98.6201C180.337 98.1391 180.336 97.3594 179.794 96.8784C179.251 96.3975 178.37 96.3975 177.827 96.8784C177.284 97.3594 177.284 98.1391 177.827 98.62C178.37 99.101 179.251 99.101 179.794 98.6201Z" fill="black"/>
<path d="M193.558 110.811C194.142 110.294 194.142 109.455 193.558 108.937C192.974 108.42 192.026 108.42 191.442 108.937C190.858 109.455 190.858 110.294 191.442 110.811C192.026 111.329 192.974 111.329 193.558 110.811Z" fill="black"/>
<path d="M207.31 122.992C207.928 122.444 207.928 121.555 207.31 121.007C206.691 120.46 205.688 120.46 205.07 121.007C204.451 121.555 204.451 122.444 205.07 122.992C205.688 123.539 206.691 123.539 207.31 122.992Z" fill="black"/>
<path d="M221.074 135.183C221.734 134.598 221.734 133.651 221.074 133.066C220.414 132.482 219.344 132.482 218.685 133.066C218.025 133.651 218.025 134.598 218.685 135.183C219.344 135.767 220.414 135.767 221.074 135.183Z" fill="black"/>
<path d="M234.764 147.308C235.424 146.724 235.424 145.776 234.764 145.192C234.104 144.607 233.034 144.607 232.374 145.192C231.714 145.776 231.714 146.724 232.374 147.308C233.034 147.892 234.104 147.892 234.764 147.308Z" fill="black"/>
<path d="M248.379 159.367C248.997 158.819 248.997 157.931 248.379 157.383C247.76 156.835 246.757 156.835 246.139 157.383C245.52 157.931 245.52 158.819 246.139 159.367C246.757 159.915 247.76 159.915 248.379 159.367Z" fill="black"/>
<path d="M262.006 171.437C262.59 170.919 262.59 170.081 262.006 169.563C261.422 169.046 260.475 169.046 259.89 169.563C259.306 170.081 259.306 170.919 259.89 171.437C260.475 171.954 261.422 171.954 262.006 171.437Z" fill="black"/>
<path d="M275.621 183.496C276.164 183.015 276.164 182.235 275.621 181.754C275.078 181.273 274.198 181.273 273.655 181.754C273.112 182.235 273.112 183.015 273.655 183.496C274.198 183.977 275.078 183.977 275.621 183.496Z" fill="black"/>
<path d="M289.249 195.566C289.757 195.115 289.757 194.385 289.249 193.935C288.74 193.484 287.915 193.484 287.407 193.935C286.898 194.385 286.898 195.115 287.407 195.566C287.915 196.016 288.74 196.016 289.249 195.566Z" fill="black"/>
<path d="M302.864 207.625C303.331 207.211 303.331 206.54 302.864 206.126C302.396 205.712 301.638 205.712 301.171 206.126C300.704 206.54 300.704 207.211 301.171 207.625C301.638 208.039 302.396 208.039 302.864 207.625Z" fill="black"/>
<path d="M316.479 219.684C316.905 219.306 316.905 218.695 316.479 218.317C316.052 217.94 315.361 217.94 314.935 218.317C314.509 218.695 314.509 219.306 314.935 219.684C315.361 220.061 316.052 220.061 316.479 219.684Z" fill="black"/>
<path d="M330.106 231.754C330.498 231.407 330.498 230.844 330.106 230.497C329.714 230.15 329.079 230.15 328.687 230.497C328.295 230.844 328.295 231.407 328.687 231.754C329.079 232.101 329.714 232.101 330.106 231.754Z" fill="black"/>
<path d="M343.721 243.813C344.071 243.502 344.071 242.999 343.721 242.689C343.37 242.378 342.802 242.378 342.452 242.689C342.101 242.999 342.101 243.502 342.452 243.813C342.802 244.123 343.37 244.123 343.721 243.813Z" fill="black"/>
<path d="M357.348 255.883C357.665 255.603 357.665 255.149 357.348 254.869C357.032 254.589 356.52 254.589 356.203 254.869C355.887 255.149 355.887 255.603 356.203 255.883C356.52 256.163 357.032 256.163 357.348 255.883Z" fill="black"/>
<path d="M124.674 25.5496C125.018 25.2453 125.018 24.7517 124.674 24.4474C124.33 24.143 123.773 24.143 123.429 24.4474C123.086 24.7517 123.086 25.2453 123.429 25.5496C123.773 25.854 124.33 25.854 124.674 25.5496Z" fill="black"/>
<path d="M138.426 37.7299C138.804 37.3951 138.804 36.8522 138.426 36.5174C138.048 36.1825 137.435 36.1825 137.057 36.5174C136.679 36.8522 136.679 37.3951 137.057 37.7299C137.435 38.0647 138.048 38.0647 138.426 37.7299Z" fill="black"/>
<path d="M152.178 49.9101C152.59 49.5449 152.59 48.9526 152.178 48.5874C151.765 48.2221 151.097 48.2221 150.684 48.5874C150.272 48.9527 150.272 49.5449 150.684 49.9101C151.097 50.2754 151.765 50.2754 152.178 49.9101Z" fill="black"/>
<path d="M165.917 62.0793C166.357 61.6897 166.357 61.058 165.917 60.6684C165.477 60.2788 164.764 60.2788 164.324 60.6684C163.884 61.058 163.884 61.6897 164.324 62.0793C164.764 62.469 165.477 62.469 165.917 62.0793Z" fill="black"/>
<path d="M179.669 74.2596C180.143 73.8395 180.143 73.1585 179.669 72.7384C179.195 72.3184 178.426 72.3184 177.952 72.7384C177.477 73.1585 177.477 73.8395 177.952 74.2596C178.426 74.6796 179.195 74.6796 179.669 74.2596Z" fill="black"/>
<path d="M193.421 86.4398C193.93 85.9893 193.93 85.2589 193.421 84.8084C192.912 84.3579 192.088 84.3579 191.579 84.8084C191.07 85.2589 191.07 85.9893 191.579 86.4398C192.088 86.8903 192.912 86.8903 193.421 86.4398Z" fill="black"/>
<path d="M207.173 98.6201C207.716 98.1391 207.716 97.3594 207.173 96.8784C206.63 96.3975 205.749 96.3975 205.206 96.8784C204.663 97.3594 204.664 98.1391 205.206 98.62C205.749 99.101 206.63 99.101 207.173 98.6201Z" fill="black"/>
<path d="M220.925 110.8C221.502 110.289 221.502 109.46 220.925 108.948C220.347 108.437 219.411 108.437 218.834 108.948C218.257 109.46 218.257 110.289 218.834 110.8C219.411 111.312 220.347 111.312 220.925 110.8Z" fill="black"/>
<path d="M234.677 122.981C235.288 122.439 235.288 121.56 234.677 121.018C234.065 120.477 233.073 120.477 232.461 121.018C231.85 121.56 231.85 122.439 232.461 122.981C233.073 123.522 234.065 123.522 234.677 122.981Z" fill="black"/>
<path d="M248.366 135.106C248.978 134.564 248.978 133.685 248.366 133.144C247.755 132.602 246.763 132.602 246.151 133.144C245.539 133.685 245.539 134.564 246.151 135.106C246.763 135.647 247.755 135.647 248.366 135.106Z" fill="black"/>
<path d="M261.994 147.176C262.571 146.664 262.571 145.835 261.994 145.324C261.416 144.812 260.48 144.812 259.903 145.324C259.326 145.835 259.326 146.664 259.903 147.176C260.48 147.687 261.416 147.687 261.994 147.176Z" fill="black"/>
<path d="M275.621 159.246C276.164 158.765 276.164 157.985 275.621 157.504C275.078 157.023 274.198 157.023 273.655 157.504C273.112 157.985 273.112 158.765 273.655 159.246C274.198 159.727 275.078 159.727 275.621 159.246Z" fill="black"/>
<path d="M289.249 171.316C289.757 170.865 289.757 170.135 289.249 169.684C288.74 169.234 287.915 169.234 287.407 169.684C286.898 170.135 286.898 170.865 287.407 171.316C287.915 171.766 288.74 171.766 289.249 171.316Z" fill="black"/>
<path d="M302.876 183.386C303.35 182.966 303.35 182.285 302.876 181.865C302.402 181.444 301.633 181.444 301.159 181.865C300.684 182.285 300.684 182.966 301.159 183.386C301.633 183.806 302.402 183.806 302.876 183.386Z" fill="black"/>
<path d="M316.503 195.456C316.943 195.066 316.943 194.434 316.503 194.045C316.064 193.655 315.35 193.655 314.91 194.045C314.471 194.434 314.471 195.066 314.91 195.456C315.35 195.845 316.064 195.845 316.503 195.456Z" fill="black"/>
<path d="M330.143 207.537C330.556 207.171 330.556 206.579 330.143 206.214C329.731 205.849 329.062 205.849 328.65 206.214C328.237 206.579 328.237 207.171 328.65 207.537C329.062 207.902 329.731 207.902 330.143 207.537Z" fill="black"/>
<path d="M343.771 219.607C344.149 219.272 344.149 218.729 343.771 218.394C343.393 218.059 342.78 218.059 342.402 218.394C342.024 218.729 342.024 219.272 342.402 219.607C342.78 219.942 343.393 219.942 343.771 219.607Z" fill="black"/>
<path d="M357.398 231.677C357.742 231.372 357.742 230.879 357.398 230.574C357.054 230.27 356.497 230.27 356.154 230.574C355.81 230.879 355.81 231.372 356.154 231.677C356.497 231.981 357.054 231.981 357.398 231.677Z" fill="black"/>
<path d="M138.339 13.4025C138.669 13.1103 138.669 12.6365 138.339 12.3443C138.009 12.0521 137.474 12.0521 137.144 12.3443C136.814 12.6365 136.814 13.1103 137.144 13.4025C137.474 13.6947 138.009 13.6947 138.339 13.4025Z" fill="black"/>
<path d="M152.091 25.5827C152.455 25.2601 152.455 24.7369 152.091 24.4143C151.726 24.0916 151.136 24.0916 150.771 24.4143C150.407 24.7369 150.407 25.2601 150.771 25.5827C151.136 25.9054 151.726 25.9054 152.091 25.5827Z" fill="black"/>
<path d="M165.83 37.7519C166.222 37.4049 166.222 36.8423 165.83 36.4953C165.438 36.1483 164.803 36.1483 164.411 36.4953C164.02 36.8423 164.02 37.4049 164.411 37.7519C164.803 38.0989 165.438 38.0989 165.83 37.7519Z" fill="black"/>
<path d="M179.569 49.9211C179.989 49.5498 179.989 48.9477 179.569 48.5764C179.15 48.205 178.47 48.205 178.051 48.5764C177.632 48.9477 177.632 49.5498 178.051 49.9211C178.47 50.2925 179.15 50.2925 179.569 49.9211Z" fill="black"/>
<path d="M193.309 62.0904C193.756 61.6947 193.756 61.0531 193.309 60.6574C192.862 60.2617 192.138 60.2617 191.691 60.6574C191.244 61.0531 191.244 61.6947 191.691 62.0904C192.138 62.4861 192.862 62.4861 193.309 62.0904Z" fill="black"/>
<path d="M207.048 74.2596C207.523 73.8395 207.523 73.1585 207.048 72.7384C206.574 72.3184 205.805 72.3184 205.331 72.7384C204.857 73.1585 204.857 73.8395 205.331 74.2596C205.805 74.6796 206.574 74.6796 207.048 74.2596Z" fill="black"/>
<path d="M220.8 86.4398C221.309 85.9893 221.309 85.2589 220.8 84.8084C220.292 84.3579 219.467 84.3579 218.958 84.8084C218.45 85.2589 218.45 85.9893 218.958 86.4398C219.467 86.8903 220.292 86.8903 220.8 86.4398Z" fill="black"/>
<path d="M234.54 98.609C235.076 98.1342 235.076 97.3643 234.54 96.8895C234.004 96.4146 233.134 96.4146 232.598 96.8895C232.062 97.3643 232.062 98.1342 232.598 98.609C233.134 99.0839 234.004 99.0839 234.54 98.609Z" fill="black"/>
<path d="M248.279 110.778C248.843 110.279 248.843 109.47 248.279 108.97C247.716 108.471 246.802 108.471 246.238 108.971C245.675 109.47 245.674 110.279 246.238 110.778C246.802 111.277 247.716 111.277 248.279 110.778Z" fill="black"/>
<path d="M261.969 122.903C262.532 122.404 262.532 121.595 261.969 121.096C261.405 120.596 260.491 120.596 259.928 121.096C259.364 121.595 259.364 122.404 259.928 122.903C260.491 123.403 261.405 123.403 261.969 122.903Z" fill="black"/>
<path d="M275.609 134.984C276.145 134.51 276.145 133.74 275.609 133.265C275.073 132.79 274.203 132.79 273.667 133.265C273.131 133.74 273.131 134.51 273.667 134.984C274.203 135.459 275.073 135.459 275.609 134.984Z" fill="black"/>
<path d="M289.249 147.065C289.757 146.615 289.757 145.885 289.249 145.434C288.74 144.984 287.915 144.984 287.407 145.434C286.898 145.885 286.898 146.615 287.407 147.065C287.915 147.516 288.74 147.516 289.249 147.065Z" fill="black"/>
<path d="M302.876 159.135C303.35 158.715 303.35 158.034 302.876 157.614C302.402 157.194 301.633 157.194 301.159 157.614C300.684 158.034 300.684 158.715 301.159 159.135C301.633 159.556 302.402 159.556 302.876 159.135Z" fill="black"/>
<path d="M316.516 171.216C316.963 170.821 316.963 170.179 316.516 169.784C316.069 169.388 315.345 169.388 314.898 169.784C314.451 170.179 314.451 170.821 314.898 171.216C315.345 171.612 316.069 171.612 316.516 171.216Z" fill="black"/>
<path d="M330.156 183.298C330.575 182.926 330.575 182.324 330.156 181.953C329.736 181.581 329.057 181.581 328.637 181.953C328.218 182.324 328.218 182.926 328.637 183.298C329.057 183.669 329.736 183.669 330.156 183.298Z" fill="black"/>
<path d="M343.796 195.379C344.187 195.032 344.187 194.469 343.796 194.122C343.404 193.775 342.769 193.775 342.377 194.122C341.985 194.469 341.985 195.032 342.377 195.379C342.769 195.726 343.404 195.726 343.796 195.379Z" fill="black"/>
<path d="M357.435 207.46C357.8 207.137 357.8 206.614 357.435 206.291C357.071 205.969 356.481 205.969 356.116 206.291C355.752 206.614 355.752 207.137 356.116 207.46C356.481 207.782 357.071 207.782 357.435 207.46Z" fill="black"/>
<path d="M371.063 219.53C371.393 219.237 371.393 218.764 371.063 218.471C370.733 218.179 370.198 218.179 369.868 218.471C369.538 218.764 369.538 219.237 369.868 219.53C370.198 219.822 370.733 219.822 371.063 219.53Z" fill="black"/>
<path d="M165.755 13.4355C166.106 13.1251 166.106 12.6217 165.755 12.3112C165.405 12.0007 164.837 12.0007 164.486 12.3112C164.135 12.6217 164.135 13.1251 164.486 13.4355C164.837 13.746 165.405 13.746 165.755 13.4355Z" fill="black"/>
<path d="M179.482 25.5937C179.854 25.265 179.854 24.732 179.482 24.4033C179.111 24.0745 178.509 24.0745 178.138 24.4033C177.767 24.732 177.767 25.265 178.138 25.5937C178.509 25.9225 179.111 25.9225 179.482 25.5937Z" fill="black"/>
<path d="M193.209 37.7519C193.601 37.4049 193.601 36.8423 193.209 36.4953C192.818 36.1483 192.182 36.1483 191.791 36.4953C191.399 36.8423 191.399 37.4049 191.791 37.7519C192.182 38.0989 192.818 38.0989 193.209 37.7519Z" fill="black"/>
<path d="M206.949 49.9211C207.368 49.5498 207.368 48.9477 206.949 48.5764C206.53 48.205 205.85 48.205 205.43 48.5764C205.011 48.9477 205.011 49.5498 205.43 49.9211C205.85 50.2925 206.53 50.2925 206.949 49.9211Z" fill="black"/>
<path d="M220.688 62.0904C221.135 61.6947 221.135 61.0531 220.688 60.6574C220.241 60.2617 219.517 60.2617 219.07 60.6574C218.624 61.0531 218.624 61.6947 219.07 62.0904C219.517 62.4861 220.242 62.4861 220.688 62.0904Z" fill="black"/>
<path d="M234.415 74.2486C234.883 73.8346 234.883 73.1634 234.415 72.7495C233.948 72.3355 233.19 72.3355 232.723 72.7495C232.255 73.1634 232.255 73.8346 232.723 74.2486C233.19 74.6625 233.948 74.6625 234.415 74.2486Z" fill="black"/>
<path d="M248.155 86.4178C248.65 85.9795 248.65 85.2688 248.155 84.8305C247.66 84.3922 246.857 84.3922 246.363 84.8305C245.868 85.2688 245.868 85.9795 246.363 86.4178C246.857 86.8561 247.66 86.8561 248.155 86.4178Z" fill="black"/>
<path d="M261.882 98.576C262.397 98.1194 262.397 97.3791 261.882 96.9225C261.366 96.466 260.53 96.466 260.015 96.9225C259.499 97.3791 259.499 98.1194 260.015 98.576C260.53 99.0325 261.366 99.0325 261.882 98.576Z" fill="black"/>
<path d="M275.571 110.701C276.087 110.245 276.087 109.504 275.571 109.048C275.056 108.591 274.22 108.591 273.705 109.048C273.189 109.504 273.189 110.245 273.705 110.701C274.22 111.158 275.056 111.158 275.571 110.701Z" fill="black"/>
<path d="M289.224 122.793C289.719 122.355 289.719 121.644 289.224 121.206C288.729 120.768 287.926 120.768 287.432 121.206C286.937 121.644 286.937 122.355 287.432 122.793C287.926 123.231 288.729 123.231 289.224 122.793Z" fill="black"/>
<path d="M302.864 134.874C303.331 134.46 303.331 133.789 302.864 133.375C302.396 132.961 301.638 132.961 301.171 133.375C300.704 133.789 300.704 134.46 301.171 134.874C301.638 135.288 302.396 135.288 302.864 134.874Z" fill="black"/>
<path d="M316.516 146.966C316.963 146.571 316.963 145.929 316.516 145.533C316.069 145.138 315.345 145.138 314.898 145.533C314.451 145.929 314.451 146.571 314.898 146.966C315.345 147.362 316.069 147.362 316.516 146.966Z" fill="black"/>
<path d="M330.156 159.047C330.575 158.676 330.575 158.074 330.156 157.702C329.736 157.331 329.057 157.331 328.637 157.702C328.218 158.074 328.218 158.676 328.637 159.047C329.057 159.419 329.736 159.419 330.156 159.047Z" fill="black"/>
<path d="M343.796 171.128C344.187 170.781 344.187 170.219 343.796 169.872C343.404 169.525 342.769 169.525 342.377 169.872C341.985 170.219 341.985 170.781 342.377 171.128C342.769 171.475 343.404 171.475 343.796 171.128Z" fill="black"/>
<path d="M357.448 183.22C357.819 182.892 357.819 182.359 357.448 182.03C357.077 181.701 356.475 181.701 356.104 182.03C355.733 182.359 355.733 182.892 356.104 183.22C356.475 183.549 357.077 183.549 357.448 183.22Z" fill="black"/>
<path d="M371.1 195.312C371.451 195.002 371.451 194.499 371.1 194.188C370.75 193.878 370.181 193.878 369.831 194.188C369.48 194.499 369.48 195.002 369.831 195.312C370.181 195.623 370.75 195.623 371.1 195.312Z" fill="black"/>
<path d="M179.408 1.27735C179.738 0.985137 179.738 0.511373 179.408 0.219161C179.078 -0.0730509 178.543 -0.073055 178.213 0.219157C177.883 0.511369 177.883 0.985132 178.213 1.27734C178.543 1.56956 179.078 1.56956 179.408 1.27735Z" fill="black"/>
<path d="M193.135 13.4355C193.485 13.1251 193.485 12.6217 193.135 12.3112C192.784 12.0007 192.216 12.0007 191.865 12.3112C191.515 12.6217 191.515 13.1251 191.865 13.4355C192.216 13.746 192.784 13.746 193.135 13.4355Z" fill="black"/>
<path d="M206.862 25.5937C207.233 25.265 207.233 24.732 206.862 24.4033C206.491 24.0745 205.889 24.0745 205.518 24.4033C205.146 24.732 205.146 25.265 205.518 25.5937C205.889 25.9225 206.491 25.9225 206.862 25.5937Z" fill="black"/>
<path d="M220.589 37.7519C220.98 37.4049 220.98 36.8423 220.589 36.4953C220.197 36.1483 219.562 36.1483 219.17 36.4953C218.778 36.8423 218.778 37.4049 219.17 37.7519C219.562 38.0989 220.197 38.0989 220.589 37.7519Z" fill="black"/>
<path d="M234.316 49.9101C234.728 49.5449 234.728 48.9526 234.316 48.5874C233.903 48.2221 233.235 48.2221 232.822 48.5874C232.41 48.9527 232.41 49.5449 232.822 49.9101C233.235 50.2754 233.903 50.2754 234.316 49.9101Z" fill="black"/>
<path d="M248.03 62.0573C248.456 61.6799 248.456 61.0679 248.03 60.6905C247.604 60.313 246.913 60.313 246.487 60.6905C246.061 61.0679 246.061 61.6798 246.487 62.0573C246.913 62.4347 247.604 62.4347 248.03 62.0573Z" fill="black"/>
<path d="M261.757 74.2155C262.204 73.8198 262.204 73.1782 261.757 72.7825C261.31 72.3868 260.586 72.3868 260.139 72.7825C259.693 73.1782 259.693 73.8198 260.139 74.2155C260.586 74.6112 261.31 74.6112 261.757 74.2155Z" fill="black"/>
<path d="M275.484 86.3737C275.952 85.9597 275.952 85.2886 275.484 84.8746C275.017 84.4606 274.259 84.4606 273.792 84.8746C273.324 85.2885 273.324 85.9597 273.792 86.3737C274.259 86.7876 275.017 86.7876 275.484 86.3737Z" fill="black"/>
<path d="M289.174 98.4988C289.641 98.0848 289.641 97.4137 289.174 96.9997C288.706 96.5857 287.949 96.5857 287.481 96.9997C287.014 97.4137 287.014 98.0848 287.481 98.4988C287.949 98.9128 288.706 98.9128 289.174 98.4988Z" fill="black"/>
<path d="M302.826 110.591C303.273 110.195 303.273 109.554 302.826 109.158C302.379 108.762 301.655 108.762 301.208 109.158C300.762 109.554 300.762 110.195 301.208 110.591C301.655 110.987 302.379 110.987 302.826 110.591Z" fill="black"/>
<path d="M316.479 122.683C316.905 122.305 316.905 121.694 316.479 121.316C316.052 120.939 315.361 120.939 314.935 121.316C314.509 121.694 314.509 122.305 314.935 122.683C315.361 123.06 316.052 123.06 316.479 122.683Z" fill="black"/>
<path d="M330.143 134.786C330.556 134.421 330.556 133.829 330.143 133.463C329.731 133.098 329.062 133.098 328.65 133.463C328.237 133.829 328.237 134.421 328.65 134.786C329.062 135.151 329.731 135.151 330.143 134.786Z" fill="black"/>
<path d="M343.796 146.878C344.187 146.531 344.187 145.968 343.796 145.621C343.404 145.274 342.769 145.274 342.377 145.621C341.985 145.968 341.985 146.531 342.377 146.878C342.769 147.225 343.404 147.225 343.796 146.878Z" fill="black"/>
<path d="M357.448 158.97C357.819 158.641 357.819 158.108 357.448 157.78C357.077 157.451 356.475 157.451 356.104 157.78C355.733 158.108 355.733 158.641 356.104 158.97C356.475 159.299 357.077 159.299 357.448 158.97Z" fill="black"/>
<path d="M371.1 171.062C371.451 170.752 371.451 170.248 371.1 169.938C370.75 169.627 370.181 169.627 369.831 169.938C369.48 170.248 369.48 170.752 369.831 171.062C370.181 171.373 370.75 171.373 371.1 171.062Z" fill="black"/>
<path d="M384.753 183.154C385.082 182.862 385.082 182.388 384.753 182.096C384.423 181.804 383.888 181.804 383.558 182.096C383.228 182.388 383.228 182.862 383.558 183.154C383.888 183.446 384.423 183.446 384.753 183.154Z" fill="black"/>
<path d="M206.787 1.27735C207.117 0.985139 207.117 0.511375 206.787 0.219163C206.457 -0.0730487 205.922 -0.0730529 205.592 0.219159C205.262 0.511371 205.262 0.985134 205.592 1.27735C205.922 1.56956 206.457 1.56956 206.787 1.27735Z" fill="black"/>
<path d="M220.514 13.4355C220.865 13.1251 220.865 12.6217 220.514 12.3112C220.163 12.0007 219.595 12.0007 219.245 12.3112C218.894 12.6217 218.894 13.1251 219.245 13.4355C219.595 13.746 220.163 13.746 220.514 13.4355Z" fill="black"/>
<path d="M234.229 25.5827C234.593 25.2601 234.593 24.7369 234.229 24.4143C233.864 24.0916 233.274 24.0916 232.909 24.4143C232.545 24.7369 232.545 25.2601 232.909 25.5827C233.274 25.9054 233.864 25.9054 234.229 25.5827Z" fill="black"/>
<path d="M247.943 37.7299C248.321 37.3951 248.321 36.8522 247.943 36.5174C247.565 36.1825 246.952 36.1825 246.574 36.5174C246.196 36.8522 246.196 37.3951 246.574 37.7299C246.952 38.0647 247.565 38.0647 247.943 37.7299Z" fill="black"/>
<path d="M261.658 49.8771C262.049 49.5301 262.049 48.9674 261.658 48.6204C261.266 48.2734 260.631 48.2734 260.239 48.6205C259.847 48.9675 259.847 49.5301 260.239 49.8771C260.631 50.2241 261.266 50.2241 261.658 49.8771Z" fill="black"/>
<path d="M275.372 62.0242C275.778 61.665 275.778 61.0827 275.372 60.7235C274.967 60.3644 274.309 60.3644 273.904 60.7235C273.498 61.0827 273.498 61.665 273.904 62.0242C274.309 62.3834 274.967 62.3834 275.372 62.0242Z" fill="black"/>
<path d="M289.087 74.1714C289.506 73.8 289.506 73.198 289.087 72.8266C288.668 72.4553 287.988 72.4553 287.568 72.8266C287.149 73.198 287.149 73.8 287.568 74.1714C287.988 74.5427 288.668 74.5427 289.087 74.1714Z" fill="black"/>
<path d="M302.776 86.2965C303.196 85.9252 303.196 85.3231 302.776 84.9517C302.357 84.5804 301.677 84.5804 301.258 84.9517C300.839 85.3231 300.839 85.9252 301.258 86.2965C301.677 86.6679 302.357 86.6679 302.776 86.2965Z" fill="black"/>
<path d="M316.441 98.3996C316.847 98.0404 316.847 97.4581 316.441 97.0989C316.036 96.7397 315.378 96.7397 314.973 97.0989C314.567 97.4581 314.567 98.0404 314.973 98.3996C315.378 98.7588 316.036 98.7588 316.441 98.3996Z" fill="black"/>
<path d="M330.106 110.503C330.498 110.156 330.498 109.593 330.106 109.246C329.714 108.899 329.079 108.899 328.687 109.246C328.295 109.593 328.295 110.156 328.687 110.503C329.079 110.85 329.714 110.85 330.106 110.503Z" fill="black"/>
<path d="M343.771 122.606C344.149 122.271 344.149 121.728 343.771 121.393C343.393 121.058 342.78 121.058 342.402 121.393C342.024 121.728 342.024 122.271 342.402 122.606C342.78 122.941 343.393 122.941 343.771 122.606Z" fill="black"/>
<path d="M357.435 134.709C357.8 134.386 357.8 133.863 357.435 133.54C357.071 133.218 356.481 133.218 356.116 133.54C355.752 133.863 355.752 134.386 356.116 134.709C356.481 135.031 357.071 135.031 357.435 134.709Z" fill="black"/>
<path d="M371.1 146.812C371.451 146.501 371.451 145.998 371.1 145.688C370.75 145.377 370.181 145.377 369.831 145.688C369.48 145.998 369.48 146.501 369.831 146.812C370.181 147.122 370.75 147.122 371.1 146.812Z" fill="black"/>
<path d="M384.753 158.904C385.082 158.612 385.082 158.138 384.753 157.846C384.423 157.554 383.888 157.554 383.558 157.846C383.228 158.138 383.228 158.612 383.558 158.904C383.888 159.196 384.423 159.196 384.753 158.904Z" fill="black"/>
<path d="M247.856 13.4025C248.186 13.1103 248.186 12.6365 247.856 12.3443C247.526 12.0521 246.991 12.0521 246.661 12.3443C246.331 12.6365 246.331 13.1103 246.661 13.4025C246.991 13.6947 247.526 13.6947 247.856 13.4025Z" fill="black"/>
<path d="M261.571 25.5496C261.914 25.2453 261.914 24.7517 261.571 24.4474C261.227 24.143 260.67 24.143 260.326 24.4474C259.982 24.7517 259.982 25.2453 260.326 25.5496C260.67 25.854 261.227 25.854 261.571 25.5496Z" fill="black"/>
<path d="M275.273 37.6858C275.623 37.3753 275.623 36.8719 275.273 36.5615C274.922 36.251 274.354 36.251 274.003 36.5615C273.653 36.8719 273.653 37.3753 274.003 37.6858C274.354 37.9963 274.922 37.9963 275.273 37.6858Z" fill="black"/>
<path d="M288.987 49.833C289.351 49.5103 289.351 48.9872 288.987 48.6645C288.623 48.3419 288.032 48.3419 287.668 48.6645C287.304 48.9872 287.304 49.5103 287.668 49.833C288.032 50.1556 288.623 50.1556 288.987 49.833Z" fill="black"/>
<path d="M302.689 61.9691C303.06 61.6404 303.06 61.1074 302.689 60.7787C302.318 60.4499 301.716 60.4499 301.345 60.7786C300.974 61.1074 300.974 61.6404 301.345 61.9691C301.716 62.2978 302.318 62.2978 302.689 61.9691Z" fill="black"/>
<path d="M316.379 74.0942C316.75 73.7655 316.75 73.2325 316.379 72.9038C316.008 72.575 315.406 72.575 315.035 72.9038C314.664 73.2325 314.664 73.7655 315.035 74.0942C315.406 74.423 316.008 74.423 316.379 74.0942Z" fill="black"/>
<path d="M330.056 86.2083C330.42 85.8857 330.42 85.3626 330.056 85.0399C329.692 84.7173 329.101 84.7173 328.737 85.0399C328.373 85.3626 328.373 85.8857 328.737 86.2083C329.101 86.531 329.692 86.531 330.056 86.2083Z" fill="black"/>
<path d="M343.721 98.3114C344.071 98.0009 344.071 97.4976 343.721 97.1871C343.37 96.8766 342.802 96.8766 342.452 97.1871C342.101 97.4976 342.101 98.0009 342.452 98.3114C342.802 98.6219 343.37 98.6219 343.721 98.3114Z" fill="black"/>
<path d="M357.398 110.426C357.742 110.121 357.742 109.628 357.398 109.323C357.054 109.019 356.497 109.019 356.154 109.323C355.81 109.628 355.81 110.121 356.154 110.426C356.497 110.73 357.054 110.73 357.398 110.426Z" fill="black"/>
<path d="M371.063 122.529C371.393 122.236 371.393 121.763 371.063 121.47C370.733 121.178 370.198 121.178 369.868 121.47C369.538 121.763 369.538 122.236 369.868 122.529C370.198 122.821 370.733 122.821 371.063 122.529Z" fill="black"/>
<path d="M288.9 25.5056C289.216 25.2255 289.216 24.7715 288.9 24.4914C288.584 24.2114 288.071 24.2114 287.755 24.4915C287.439 24.7715 287.439 25.2255 287.755 25.5056C288.071 25.7856 288.584 25.7856 288.9 25.5056Z" fill="black"/>
<path d="M302.59 37.6307C302.906 37.3506 302.906 36.8966 302.59 36.6166C302.274 36.3365 301.761 36.3365 301.445 36.6166C301.129 36.8966 301.129 37.3507 301.445 37.6307C301.761 37.9107 302.274 37.9107 302.59 37.6307Z" fill="black"/>
<path d="M316.292 49.7668C316.615 49.4807 316.615 49.0168 316.292 48.7307C315.969 48.4446 315.445 48.4446 315.122 48.7307C314.799 49.0168 314.799 49.4807 315.122 49.7668C315.445 50.053 315.969 50.053 316.292 49.7668Z" fill="black"/>
<path d="M329.981 61.892C330.305 61.6058 330.305 61.1419 329.981 60.8558C329.658 60.5697 329.135 60.5697 328.812 60.8558C328.489 61.1419 328.489 61.6058 328.812 61.892C329.135 62.1781 329.658 62.1781 329.981 61.892Z" fill="black"/>
<path d="M343.659 74.0061C343.975 73.726 343.975 73.272 343.659 72.9919C343.343 72.7119 342.83 72.7119 342.514 72.992C342.198 73.272 342.198 73.726 342.514 74.0061C342.83 74.2861 343.343 74.2861 343.659 74.0061Z" fill="black"/>
<path d="M357.348 86.1312C357.665 85.8512 357.665 85.3971 357.348 85.1171C357.032 84.837 356.52 84.837 356.203 85.1171C355.887 85.3971 355.887 85.8512 356.203 86.1312C356.52 86.4112 357.032 86.4112 357.348 86.1312Z" fill="black"/>
</svg>
