<svg width="67" height="1018" viewBox="0 0 67 1018" fill="none" xmlns="http://www.w3.org/2000/svg">
<path d="M23.704 0C47.0635 0 66 12.4085 66 27.7151C66 43.0217 47.0635 55.4303 23.704 55.4303C10.6127 55.4303 -3.15905e-06 50.1776 -3.15905e-06 43.6981C-3.15905e-06 37.2186 10.6127 31.9659 23.704 31.9659C47.0635 31.9659 66 44.3744 66 59.681C66 74.9877 47.0635 87.3966 23.704 87.3966C10.6127 87.3966 -3.15905e-06 82.1437 -3.15905e-06 75.664C-3.15905e-06 69.1845 10.6127 63.9318 23.704 63.9318C47.0635 63.9318 66 76.4165 66 91.8169C66 107.217 47.0635 119.702 23.704 119.702C10.6127 119.702 -3.15905e-06 114.45 -3.15905e-06 107.97C-3.15905e-06 101.49 10.6127 96.2383 23.704 96.2383C47.0635 96.2383 66 108.646 66 123.953C66 139.26 47.0635 151.668 23.704 151.668C10.6127 151.668 -3.15905e-06 146.416 -3.15905e-06 139.936C-3.15905e-06 133.456 10.6127 128.203 23.704 128.203C47.0635 128.203 66 140.612 66 155.919C66 171.226 47.0635 183.634 23.704 183.634C10.6127 183.634 -3.15905e-06 178.381 -3.15905e-06 171.902C-3.15905e-06 165.423 10.6127 160.17 23.704 160.17C47.0635 160.17 66 172.579 66 187.884C66 203.191 47.0635 215.6 23.704 215.6C10.6127 215.6 -3.15905e-06 210.347 -3.15905e-06 203.867C-3.15905e-06 197.389 10.6127 192.136 23.704 192.136C47.0635 192.136 66 204.62 66 220.02C66 235.421 47.0635 247.906 23.704 247.906" stroke="black" stroke-width="2" stroke-linecap="round"/>
<path d="M23.704 192.273C47.0635 192.273 66 204.682 66 219.989C66 235.295 47.0635 247.704 23.704 247.704C10.6127 247.704 -3.15905e-06 242.451 -3.15905e-06 235.972C-3.15905e-06 229.492 10.6127 224.239 23.704 224.239C47.0635 224.239 66 236.648 66 251.955C66 267.261 47.0635 279.67 23.704 279.67C10.6127 279.67 -3.15905e-06 274.417 -3.15905e-06 267.938C-3.15905e-06 261.458 10.6127 256.205 23.704 256.205C47.0635 256.205 66 268.69 66 284.09C66 299.491 47.0635 311.976 23.704 311.976C10.6127 311.976 -3.15905e-06 306.723 -3.15905e-06 300.243C-3.15905e-06 293.764 10.6127 288.512 23.704 288.512C47.0635 288.512 66 300.92 66 316.226C66 331.533 47.0635 343.941 23.704 343.941C10.6127 343.941 -3.15905e-06 338.689 -3.15905e-06 332.21C-3.15905e-06 325.73 10.6127 320.477 23.704 320.477C47.0635 320.477 66 332.886 66 348.193C66 363.499 47.0635 375.907 23.704 375.907C10.6127 375.907 -3.15905e-06 370.655 -3.15905e-06 364.176C-3.15905e-06 357.696 10.6127 352.443 23.704 352.443C47.0635 352.443 66 364.852 66 380.158C66 395.465 47.0635 407.874 23.704 407.874C10.6127 407.874 -3.15905e-06 402.621 -3.15905e-06 396.141C-3.15905e-06 389.662 10.6127 384.409 23.704 384.409C47.0635 384.409 66 396.894 66 412.294C66 427.694 47.0635 440.179 23.704 440.179" stroke="black" stroke-width="2" stroke-linecap="round"/>
<path d="M23.704 384.547C47.0635 384.547 66 396.956 66 412.262C66 427.569 47.0635 439.977 23.704 439.977C10.6127 439.977 -3.15905e-06 434.725 -3.15905e-06 428.245C-3.15905e-06 421.766 10.6127 416.513 23.704 416.513C47.0635 416.513 66 428.921 66 444.228C66 459.535 47.0635 471.944 23.704 471.944C10.6127 471.944 -3.15905e-06 466.691 -3.15905e-06 460.211C-3.15905e-06 453.732 10.6127 448.479 23.704 448.479C47.0635 448.479 66 460.964 66 476.364C66 491.764 47.0635 504.249 23.704 504.249C10.6127 504.249 -3.15905e-06 498.997 -3.15905e-06 492.517C-3.15905e-06 486.037 10.6127 480.785 23.704 480.785C47.0635 480.785 66 493.193 66 508.5C66 523.807 47.0635 536.215 23.704 536.215C10.6127 536.215 -3.15905e-06 530.963 -3.15905e-06 524.483C-3.15905e-06 518.003 10.6127 512.751 23.704 512.751C47.0635 512.751 66 525.159 66 540.466C66 555.773 47.0635 568.181 23.704 568.181C10.6127 568.181 -3.15905e-06 562.928 -3.15905e-06 556.449C-3.15905e-06 549.97 10.6127 544.717 23.704 544.717C47.0635 544.717 66 557.126 66 572.431C66 587.738 47.0635 600.147 23.704 600.147C10.6127 600.147 -3.15905e-06 594.894 -3.15905e-06 588.415C-3.15905e-06 581.936 10.6127 576.683 23.704 576.683C47.0635 576.683 66 589.167 66 604.567C66 619.968 47.0635 632.453 23.704 632.453" stroke="black" stroke-width="2" stroke-linecap="round"/>
<path d="M23.704 576.821C47.0635 576.821 66 589.229 66 604.536C66 619.842 47.0635 632.251 23.704 632.251C10.6127 632.251 -3.15905e-06 626.998 -3.15905e-06 620.519C-3.15905e-06 614.039 10.6127 608.786 23.704 608.786C47.0635 608.786 66 621.195 66 636.502C66 651.808 47.0635 664.217 23.704 664.217C10.6127 664.217 -3.15905e-06 658.964 -3.15905e-06 652.485C-3.15905e-06 646.005 10.6127 640.752 23.704 640.752C47.0635 640.752 66 653.237 66 668.637C66 684.038 47.0635 696.523 23.704 696.523C10.6127 696.523 -3.15905e-06 691.27 -3.15905e-06 684.79C-3.15905e-06 678.311 10.6127 673.059 23.704 673.059C47.0635 673.059 66 685.467 66 700.774C66 716.08 47.0635 728.488 23.704 728.488C10.6127 728.488 -3.15905e-06 723.236 -3.15905e-06 716.757C-3.15905e-06 710.277 10.6127 705.024 23.704 705.024C47.0635 705.024 66 717.433 66 732.74C66 748.046 47.0635 760.454 23.704 760.454C10.6127 760.454 -3.15905e-06 755.202 -3.15905e-06 748.723C-3.15905e-06 742.243 10.6127 736.99 23.704 736.99C47.0635 736.99 66 749.399 66 764.705C66 780.012 47.0635 792.421 23.704 792.421C10.6127 792.421 -3.15905e-06 787.168 -3.15905e-06 780.688C-3.15905e-06 774.209 10.6127 768.956 23.704 768.956C47.0635 768.956 66 781.441 66 796.841C66 812.241 47.0635 824.726 23.704 824.726" stroke="black" stroke-width="2" stroke-linecap="round"/>
<path d="M23.704 769.094C47.0635 769.094 66 781.503 66 796.809C66 812.116 47.0635 824.524 23.704 824.524C10.6127 824.524 -3.15905e-06 819.272 -3.15905e-06 812.792C-3.15905e-06 806.313 10.6127 801.06 23.704 801.06C47.0635 801.06 66 813.468 66 828.775C66 844.082 47.0635 856.491 23.704 856.491C10.6127 856.491 -3.15905e-06 851.238 -3.15905e-06 844.758C-3.15905e-06 838.279 10.6127 833.026 23.704 833.026C47.0635 833.026 66 845.511 66 860.911C66 876.311 47.0635 888.797 23.704 888.797C10.6127 888.797 -3.15905e-06 883.544 -3.15905e-06 877.064C-3.15905e-06 870.584 10.6127 865.332 23.704 865.332C47.0635 865.332 66 877.74 66 893.047C66 908.354 47.0635 920.762 23.704 920.762C10.6127 920.762 -3.15905e-06 915.51 -3.15905e-06 909.03C-3.15905e-06 902.55 10.6127 897.298 23.704 897.298C47.0635 897.298 66 909.706 66 925.013C66 940.32 47.0635 952.728 23.704 952.728C10.6127 952.728 -3.15905e-06 947.475 -3.15905e-06 940.996C-3.15905e-06 934.517 10.6127 929.264 23.704 929.264C47.0635 929.264 66 941.673 66 956.978C66 972.285 47.0635 984.694 23.704 984.694C10.6127 984.694 -3.15905e-06 979.441 -3.15905e-06 972.962C-3.15905e-06 966.483 10.6127 961.23 23.704 961.23C47.0635 961.23 66 973.714 66 989.114C66 1004.51 47.0635 1017 23.704 1017" stroke="black" stroke-width="2" stroke-linecap="round"/>
</svg>
