<svg width="31" height="31" viewBox="0 0 31 31" fill="none" xmlns="http://www.w3.org/2000/svg">
<path d="M21.2802 6.98535L24.0147 9.71981M23.0382 4.5764L15.6408 11.9738C15.2586 12.3555 14.9979 12.8417 14.8917 13.3714L14.2084 16.7917L17.6287 16.1071C18.1583 16.0012 18.644 15.7416 19.0263 15.3592L26.4237 7.96185C26.646 7.73956 26.8223 7.47566 26.9426 7.18522C27.0629 6.89478 27.1248 6.58349 27.1248 6.26912C27.1248 5.95476 27.0629 5.64347 26.9426 5.35303C26.8223 5.06259 26.646 4.79869 26.4237 4.5764C26.2014 4.3541 25.9375 4.17777 25.647 4.05747C25.3566 3.93716 25.0453 3.87524 24.7309 3.87524C24.4166 3.87524 24.1053 3.93716 23.8148 4.05747C23.5244 4.17777 23.2605 4.3541 23.0382 4.5764Z" stroke="#080808" stroke-width="2" stroke-linecap="round" stroke-linejoin="round"/>
<path d="M24.5417 19.375V23.25C24.5417 23.9352 24.2695 24.5923 23.785 25.0767C23.3006 25.5612 22.6435 25.8334 21.9584 25.8334H7.75002C7.06488 25.8334 6.4078 25.5612 5.92333 25.0767C5.43886 24.5923 5.16669 23.9352 5.16669 23.25V9.04171C5.16669 8.35656 5.43886 7.69948 5.92333 7.21501C6.4078 6.73055 7.06488 6.45837 7.75002 6.45837H11.625" stroke="#080808" stroke-width="2" stroke-linecap="round" stroke-linejoin="round"/>
</svg>
