<svg width="35" height="35" viewBox="0 0 35 35" fill="none" xmlns="http://www.w3.org/2000/svg">
<path fill-rule="evenodd" clip-rule="evenodd" d="M24.7917 7.29169V5.83335C24.7917 5.05981 24.4844 4.31794 23.9374 3.77096C23.3904 3.22398 22.6485 2.91669 21.875 2.91669H13.125C12.3515 2.91669 11.6096 3.22398 11.0626 3.77096C10.5156 4.31794 10.2083 5.05981 10.2083 5.83335V7.29169H5.83333C5.44656 7.29169 5.07563 7.44533 4.80214 7.71882C4.52865 7.99231 4.375 8.36325 4.375 8.75002C4.375 9.13679 4.52865 9.50773 4.80214 9.78122C5.07563 10.0547 5.44656 10.2084 5.83333 10.2084H7.29167V26.25C7.29167 27.4103 7.7526 28.5231 8.57307 29.3436C9.39355 30.1641 10.5063 30.625 11.6667 30.625H23.3333C24.4937 30.625 25.6065 30.1641 26.4269 29.3436C27.2474 28.5231 27.7083 27.4103 27.7083 26.25V10.2084H29.1667C29.5534 10.2084 29.9244 10.0547 30.1979 9.78122C30.4714 9.50773 30.625 9.13679 30.625 8.75002C30.625 8.36325 30.4714 7.99231 30.1979 7.71882C29.9244 7.44533 29.5534 7.29169 29.1667 7.29169H24.7917ZM21.875 5.83335H13.125V7.29169H21.875V5.83335ZM24.7917 10.2084H10.2083V26.25C10.2083 26.6368 10.362 27.0077 10.6355 27.2812C10.909 27.5547 11.2799 27.7084 11.6667 27.7084H23.3333C23.7201 27.7084 24.091 27.5547 24.3645 27.2812C24.638 27.0077 24.7917 26.6368 24.7917 26.25V10.2084Z" fill="#080808"/>
<path d="M13.125 13.125H16.0417V24.7917H13.125V13.125ZM18.9583 13.125H21.875V24.7917H18.9583V13.125Z" fill="#080808"/>
</svg>
