<svg width="32" height="32" viewBox="0 0 32 32" fill="none" xmlns="http://www.w3.org/2000/svg">
<path d="M21.3333 18.6667H10.6667C10.313 18.6667 9.97391 18.8072 9.72386 19.0572C9.47381 19.3073 9.33333 19.6464 9.33333 20C9.33333 20.3536 9.47381 20.6928 9.72386 20.9428C9.97391 21.1929 10.313 21.3334 10.6667 21.3334H21.3333C21.687 21.3334 22.0261 21.1929 22.2761 20.9428C22.5262 20.6928 22.6667 20.3536 22.6667 20C22.6667 19.6464 22.5262 19.3073 22.2761 19.0572C22.0261 18.8072 21.687 18.6667 21.3333 18.6667ZM21.3333 13.3334H13.3333C12.9797 13.3334 12.6406 13.4738 12.3905 13.7239C12.1405 13.9739 12 14.3131 12 14.6667C12 15.0203 12.1405 15.3594 12.3905 15.6095C12.6406 15.8595 12.9797 16 13.3333 16H21.3333C21.687 16 22.0261 15.8595 22.2761 15.6095C22.5262 15.3594 22.6667 15.0203 22.6667 14.6667C22.6667 14.3131 22.5262 13.9739 22.2761 13.7239C22.0261 13.4738 21.687 13.3334 21.3333 13.3334ZM26.6667 5.33335H22.6667V4.00002C22.6667 3.6464 22.5262 3.30726 22.2761 3.05721C22.0261 2.80716 21.687 2.66669 21.3333 2.66669C20.9797 2.66669 20.6406 2.80716 20.3905 3.05721C20.1405 3.30726 20 3.6464 20 4.00002V5.33335H17.3333V4.00002C17.3333 3.6464 17.1929 3.30726 16.9428 3.05721C16.6928 2.80716 16.3536 2.66669 16 2.66669C15.6464 2.66669 15.3072 2.80716 15.0572 3.05721C14.8071 3.30726 14.6667 3.6464 14.6667 4.00002V5.33335H12V4.00002C12 3.6464 11.8595 3.30726 11.6095 3.05721C11.3594 2.80716 11.0203 2.66669 10.6667 2.66669C10.313 2.66669 9.97391 2.80716 9.72386 3.05721C9.47381 3.30726 9.33333 3.6464 9.33333 4.00002V5.33335H5.33333C4.97971 5.33335 4.64057 5.47383 4.39052 5.72388C4.14048 5.97393 4 6.31306 4 6.66669V25.3334C4 26.3942 4.42143 27.4116 5.17157 28.1618C5.92172 28.9119 6.93913 29.3334 8 29.3334H24C25.0609 29.3334 26.0783 28.9119 26.8284 28.1618C27.5786 27.4116 28 26.3942 28 25.3334V6.66669C28 6.31306 27.8595 5.97393 27.6095 5.72388C27.3594 5.47383 27.0203 5.33335 26.6667 5.33335ZM25.3333 25.3334C25.3333 25.687 25.1929 26.0261 24.9428 26.2762C24.6928 26.5262 24.3536 26.6667 24 26.6667H8C7.64638 26.6667 7.30724 26.5262 7.05719 26.2762C6.80714 26.0261 6.66667 25.687 6.66667 25.3334V8.00002H9.33333V9.33335C9.33333 9.68698 9.47381 10.0261 9.72386 10.2762C9.97391 10.5262 10.313 10.6667 10.6667 10.6667C11.0203 10.6667 11.3594 10.5262 11.6095 10.2762C11.8595 10.0261 12 9.68698 12 9.33335V8.00002H14.6667V9.33335C14.6667 9.68698 14.8071 10.0261 15.0572 10.2762C15.3072 10.5262 15.6464 10.6667 16 10.6667C16.3536 10.6667 16.6928 10.5262 16.9428 10.2762C17.1929 10.0261 17.3333 9.68698 17.3333 9.33335V8.00002H20V9.33335C20 9.68698 20.1405 10.0261 20.3905 10.2762C20.6406 10.5262 20.9797 10.6667 21.3333 10.6667C21.687 10.6667 22.0261 10.5262 22.2761 10.2762C22.5262 10.0261 22.6667 9.68698 22.6667 9.33335V8.00002H25.3333V25.3334Z" fill="#080808"/>
</svg>
